<svg width="45" height="33" viewBox="0 0 45 33" fill="none" xmlns="http://www.w3.org/2000/svg">
<path d="M42 24C42 24.5304 41.7893 25.0391 41.4142 25.4142C41.0391 25.7893 40.5304 26 40 26H28L24 30V14C24 13.4696 24.2107 12.9609 24.5858 12.5858C24.9609 12.2107 25.4696 12 26 12H40C40.5304 12 41.0391 12.2107 41.4142 12.5858C41.7893 12.9609 42 13.4696 42 14V24Z" fill="#666666" stroke="#666666" stroke-width="2" stroke-linecap="round" stroke-linejoin="round"/>
<path d="M3 15C3 15.5304 3.21071 16.0391 3.58579 16.4142C3.96086 16.7893 4.46957 17 5 17H17L21 21V5C21 4.46957 20.7893 3.96086 20.4142 3.58579C20.0391 3.21071 19.5304 3 19 3H5C4.46957 3 3.96086 3.21071 3.58579 3.58579C3.21071 3.96086 3 4.46957 3 5V15Z" fill="url(#paint0_linear_426_6965)" stroke="url(#paint1_linear_426_6965)" stroke-width="2" stroke-linecap="round" stroke-linejoin="round"/>
<defs>
<linearGradient id="paint0_linear_426_6965" x1="19.5326" y1="12.2" x2="3" y2="12.2" gradientUnits="userSpaceOnUse">
<stop stop-color="#F14950"/>
<stop offset="0.632812" stop-color="#DA1C21"/>
</linearGradient>
<linearGradient id="paint1_linear_426_6965" x1="19.5326" y1="12.2" x2="3" y2="12.2" gradientUnits="userSpaceOnUse">
<stop stop-color="#F14950"/>
<stop offset="0.632812" stop-color="#DA1C21"/>
</linearGradient>
</defs>
</svg>
