<svg width="50" height="50" viewBox="0 0 50 50" fill="none" xmlns="http://www.w3.org/2000/svg">
<g clip-path="url(#clip0_426_4235)">
<path d="M46.8751 50C32.2918 50 17.7084 50 3.12508 50C2.65633 49.7786 2.48706 49.401 2.50008 48.8932C2.5131 47.6562 2.50008 46.4193 2.50008 45.1823C2.50008 44.8438 2.50008 44.5182 2.50008 44.1536C2.04435 44.1536 1.62769 44.1536 1.198 44.1536C0.234456 44.1536 -0.0129395 43.9062 -0.0129395 42.9427C8.13818e-05 33.2031 8.13818e-05 23.4635 8.13818e-05 13.7109C8.13818e-05 12.7474 0.247477 12.5 1.21102 12.5C5.05217 12.5 8.89331 12.5 12.7345 12.5C12.9167 12.5 13.1121 12.5 13.3334 12.5C13.3334 12.2396 13.3334 12.0443 13.3334 11.849C13.3334 8.32031 13.3334 4.79167 13.3334 1.26302C13.3334 0.234375 13.5678 0 14.5964 0C21.5235 0 28.4636 0 35.3907 0C36.4454 0 36.6668 0.221354 36.6668 1.30208C36.6668 4.83073 36.6668 8.35938 36.6668 11.888C36.6668 12.0833 36.6668 12.2656 36.6668 12.5C36.9011 12.5 37.0834 12.5 37.2527 12.5C41.1069 12.5 44.961 12.513 48.8152 12.487C49.336 12.487 49.7397 12.6172 50.0001 13.0859C50.0001 23.2422 50.0001 33.3984 50.0001 43.5547C49.7657 44.0104 49.4011 44.1927 48.8933 44.1667C48.4246 44.1406 47.9558 44.1667 47.474 44.1667C47.461 44.3229 47.461 44.4141 47.461 44.5182C47.474 45.9766 47.474 47.4479 47.5001 48.9062C47.5131 49.401 47.3569 49.7917 46.8751 50ZM34.948 32.5911C34.948 22.2786 34.948 11.9922 34.948 1.69271C28.2944 1.69271 21.6798 1.69271 15.0391 1.69271C15.0391 12.0052 15.0391 22.2917 15.0391 32.5911C16.6277 32.3698 17.8516 32.8125 18.5938 33.9453C19.5313 35.3906 19.336 36.8099 18.3204 38.0859C18.8803 38.5938 19.4141 39.0755 19.8699 39.4792C20.6511 38.737 21.4194 37.9948 22.2006 37.2526C20.4558 35.1432 20.3907 32.9297 22.0834 31.2109C23.5418 29.7266 25.9766 29.5833 27.5912 30.9115C28.4115 31.5885 28.9454 32.4479 29.0886 33.5026C29.31 35.013 28.8152 36.276 27.7996 37.2396C28.6069 38.0208 29.3751 38.763 30.1303 39.4922C30.6121 39.0625 31.1459 38.5807 31.6928 38.099C30.7032 36.8359 30.4949 35.4557 31.3933 34.0495C32.2006 32.7604 33.4246 32.3307 34.948 32.5911ZM48.3074 42.487C48.3074 33.0078 48.3074 23.5938 48.3074 14.1797C44.4272 14.1797 40.573 14.1797 36.6928 14.1797C36.6798 14.349 36.6668 14.4922 36.6668 14.6354C36.6668 20.8464 36.6668 27.0703 36.6798 33.2812C36.6798 33.5026 36.7839 33.75 36.9011 33.9453C37.4871 34.8438 37.6824 35.8073 37.3308 36.8229C37.1615 37.2786 36.9011 37.7083 36.6668 38.1641C37.8777 38.8802 38.672 39.9609 39.0496 41.3672C39.4272 41.0807 39.7397 40.8464 40.0652 40.612C38.5548 38.724 39.2449 36.849 40.1954 35.9375C41.4324 34.7656 43.2423 34.6875 44.5574 35.7161C45.2084 36.237 45.6251 36.901 45.7683 37.7083C45.9506 38.7891 45.6642 39.7656 44.935 40.5859C45.2865 40.8594 45.6251 41.0938 45.9115 41.3672C46.211 41.6667 46.4454 42.0182 46.7188 42.3307C46.7839 42.4089 46.9011 42.4609 47.0053 42.4609C47.435 42.5 47.8516 42.487 48.3074 42.487ZM1.69279 14.1797C1.69279 23.6328 1.69279 33.0469 1.69279 42.5C2.12248 42.5 2.52612 42.5 2.92977 42.5C3.03394 42.5 3.16414 42.474 3.22925 42.3958C3.81519 41.7839 4.3881 41.1458 4.97404 40.5208C3.68498 38.9714 4.06258 37.0573 5.14331 35.9896C6.36727 34.7786 8.19019 34.6875 9.54435 35.7292C11.0287 36.888 11.185 38.5286 9.96102 40.651C10.2735 40.8854 10.599 41.1068 10.9246 41.3542C11.4845 39.9479 11.6277 39.4271 13.3725 38.125C13.3334 38.0729 13.3074 38.0208 13.2683 37.9688C12.2787 36.6536 12.2397 35.2865 13.1511 33.9062C13.2683 33.737 13.3204 33.4896 13.3204 33.2682C13.3334 27.0833 13.3334 20.8984 13.3204 14.7266C13.3204 14.5573 13.3074 14.388 13.2944 14.2057C9.41414 14.1797 5.573 14.1797 1.69279 14.1797ZM29.1407 48.3073C29.1537 48.2031 29.1668 48.125 29.1668 48.0469C29.1668 46.224 29.2058 44.401 29.1537 42.5781C29.0886 40.1432 27.448 38.4635 25.1303 38.3464C23.086 38.2422 21.0157 39.8698 20.9115 41.8229C20.7944 43.9453 20.8464 46.0807 20.8334 48.2031C20.8334 48.2292 20.8595 48.2552 20.8855 48.2943C23.6329 48.3073 26.3803 48.3073 29.1407 48.3073ZM19.1277 48.3203C19.1277 46.1849 19.2058 44.0885 19.1016 42.0052C19.0365 40.7292 18.1902 39.8307 16.9792 39.388C14.7657 38.5938 12.5522 40.1693 12.5131 42.5651C12.4871 44.1406 12.5131 45.7161 12.5131 47.2917C12.5131 47.6302 12.5131 47.9688 12.5131 48.3203C14.7266 48.3203 16.9011 48.3203 19.1277 48.3203ZM37.448 48.3203C37.474 48.2552 37.4871 48.2292 37.4871 48.2031C37.4871 46.5625 37.5001 44.9219 37.4871 43.2812C37.4871 42.8255 37.4871 42.3698 37.422 41.9141C37.1225 40.1693 35.4558 38.9714 33.711 39.2188C31.9923 39.4661 30.8595 40.7943 30.8334 42.6042C30.8204 44.4141 30.8334 46.2109 30.8334 48.0208C30.8334 48.112 30.8464 48.2031 30.8595 48.3203C33.073 48.3203 35.2475 48.3203 37.448 48.3203ZM10.8334 48.3203C10.8334 47.2786 10.8334 46.276 10.8334 45.2734C10.8334 45.0521 10.8204 44.8177 10.7944 44.5964C10.573 42.9557 9.29696 41.7839 7.68237 41.6927C6.04175 41.6146 4.53133 42.6432 4.29696 44.2839C4.10164 45.599 4.25789 46.9531 4.25789 48.3203C6.41935 48.3203 8.58081 48.3203 10.8334 48.3203ZM45.8074 48.3333C45.8074 47.1354 45.8464 46.0026 45.7944 44.8698C45.7162 43.0859 44.3621 41.7578 42.6173 41.6927C40.8725 41.6276 39.3881 42.8646 39.2188 44.6354C39.1147 45.7292 39.1798 46.8359 39.1668 47.9427C39.1668 48.0599 39.1928 48.1901 39.2058 48.3464C41.2631 48.3464 43.2944 48.3464 45.3256 48.3464C45.4688 48.3333 45.6121 48.3333 45.8074 48.3333ZM24.974 36.6536C26.3412 36.6667 27.461 35.5859 27.4871 34.2057C27.5131 32.8385 26.3673 31.6667 24.9871 31.6667C23.6329 31.6667 22.5001 32.7865 22.4871 34.1536C22.5001 35.5208 23.6069 36.6406 24.974 36.6536ZM32.5131 35.8073C32.5001 36.7448 33.2423 37.487 34.1668 37.487C35.0652 37.487 35.8204 36.7448 35.8334 35.8464C35.8464 34.9349 35.0912 34.1667 34.1668 34.1667C33.2553 34.1797 32.5261 34.8958 32.5131 35.8073ZM17.4871 35.8594C17.5001 34.9479 16.7839 34.2057 15.8725 34.1797C14.948 34.1536 14.1798 34.8958 14.1667 35.8203C14.1537 36.7318 14.922 37.5 15.8334 37.5C16.7449 37.5 17.474 36.7578 17.4871 35.8594ZM5.84644 38.3464C5.85946 39.2578 6.58862 39.987 7.50008 39.987C8.41154 39.987 9.17977 39.2188 9.17977 38.3073C9.16675 37.4089 8.42456 36.6667 7.5131 36.6667C6.5756 36.6667 5.83342 37.4089 5.84644 38.3464ZM44.1537 38.3333C44.1537 37.4219 43.4376 36.6927 42.5261 36.6797C41.6017 36.6667 40.8334 37.4219 40.8334 38.3333C40.8334 39.2448 41.6147 40.013 42.5261 40C43.4246 39.974 44.1537 39.2448 44.1537 38.3333Z" fill="#EE1D23"/>
<path d="M25.0131 3.33333C26.5756 3.33333 28.1381 3.33333 29.7006 3.33333C30.547 3.33333 30.8334 3.63281 30.8464 4.47917C30.8464 6.4974 30.8464 8.51563 30.8464 10.5339C30.8464 11.3802 30.56 11.6667 29.7006 11.6667C26.5756 11.6667 23.4506 11.6667 20.3386 11.6667C19.4532 11.6667 19.1798 11.3932 19.1667 10.4948C19.1667 8.48958 19.1667 6.4974 19.1667 4.49219C19.1667 3.60677 19.4532 3.32031 20.3386 3.32031C21.8881 3.32031 23.4506 3.33333 25.0131 3.33333ZM29.1537 5.02604C26.3542 5.02604 23.6199 5.02604 20.8725 5.02604C20.8725 6.69271 20.8725 8.32031 20.8725 9.96094C23.6589 9.96094 26.3933 9.96094 29.1537 9.96094C29.1537 8.29427 29.1537 6.67969 29.1537 5.02604Z" fill="#EE1D23"/>
<path d="M24.1929 26.6797C24.7397 26.6797 25.2476 26.6797 25.7944 26.6797C25.7944 27.2135 25.7944 27.7474 25.7944 28.2943C25.2606 28.2943 24.7267 28.2943 24.1929 28.2943C24.1929 27.7474 24.1929 27.2266 24.1929 26.6797Z" fill="#EE1D23"/>
<path d="M25.7944 24.9869C25.2215 24.9869 24.7267 24.9869 24.1929 24.9869C24.1929 24.44 24.1929 23.9192 24.1929 23.3723C24.7267 23.3723 25.2345 23.3723 25.7944 23.3723C25.7944 23.8931 25.7944 24.44 25.7944 24.9869Z" fill="#EE1D23"/>
<path d="M24.1929 13.3594C24.7397 13.3594 25.2606 13.3594 25.7944 13.3594C25.7944 13.8932 25.7944 14.4141 25.7944 14.9609C25.2606 14.9609 24.7397 14.9609 24.1929 14.9609C24.1929 14.4401 24.1929 13.9323 24.1929 13.3594Z" fill="#EE1D23"/>
<path d="M24.2058 16.7058C24.7397 16.7058 25.2475 16.7058 25.8074 16.7058C25.8074 17.2397 25.8074 17.7605 25.8074 18.3204C25.2735 18.3204 24.7657 18.3204 24.2058 18.3204C24.2058 17.7735 24.2058 17.2527 24.2058 16.7058Z" fill="#EE1D23"/>
<path d="M24.1929 20.0391C24.7528 20.0391 25.2606 20.0391 25.8075 20.0391C25.8075 20.5729 25.8075 21.0938 25.8075 21.6406C25.2736 21.6406 24.7397 21.6406 24.1929 21.6406C24.1929 21.1068 24.1929 20.599 24.1929 20.0391Z" fill="#EE1D23"/>
<path d="M17.5132 28.2942C17.5132 27.7473 17.5132 27.2395 17.5132 26.6926C18.047 26.6926 18.5679 26.6926 19.1278 26.6926C19.1278 27.2265 19.1278 27.7473 19.1278 28.2942C18.5939 28.2942 18.0861 28.2942 17.5132 28.2942Z" fill="#EE1D23"/>
<path d="M20.8594 26.6926C21.4193 26.6926 21.9271 26.6926 22.474 26.6926C22.474 27.2265 22.474 27.7473 22.474 28.2942C21.9531 28.2942 21.4193 28.2942 20.8594 28.2942C20.8594 27.7734 20.8594 27.2525 20.8594 26.6926Z" fill="#EE1D23"/>
<path d="M27.5391 26.6926C28.099 26.6926 28.6068 26.6926 29.1406 26.6926C29.1406 27.2265 29.1406 27.7343 29.1406 28.2942C28.6198 28.2942 28.099 28.2942 27.5391 28.2942C27.5391 27.7734 27.5391 27.2395 27.5391 26.6926Z" fill="#EE1D23"/>
<path d="M32.4871 26.7058C32.4871 27.2527 32.4871 27.7605 32.4871 28.3074C31.9403 28.3074 31.4194 28.3074 30.8726 28.3074C30.8726 27.7735 30.8726 27.2657 30.8726 26.7058C31.3934 26.7058 31.9142 26.7058 32.4871 26.7058Z" fill="#EE1D23"/>
<path d="M32.4871 16.7058C32.4871 17.2527 32.4871 17.7605 32.4871 18.3074C31.9532 18.3074 31.4454 18.3074 30.8855 18.3074C30.8855 17.7865 30.8855 17.2657 30.8855 16.7058C31.4063 16.7058 31.9402 16.7058 32.4871 16.7058Z" fill="#EE1D23"/>
<path d="M19.1276 21.6666C18.5807 21.6666 18.0729 21.6666 17.5391 21.6666C17.5391 21.1327 17.5391 20.6119 17.5391 20.052C18.0599 20.052 18.5807 20.052 19.1276 20.052C19.1276 20.5728 19.1276 21.0937 19.1276 21.6666Z" fill="#EE1D23"/>
<path d="M22.4609 21.6536C21.9271 21.6536 21.4062 21.6536 20.8594 21.6536C20.8594 21.1068 20.8594 20.5859 20.8594 20.0391C21.3932 20.0391 21.9141 20.0391 22.4609 20.0391C22.4609 20.5729 22.4609 21.0938 22.4609 21.6536Z" fill="#EE1D23"/>
<path d="M29.1276 21.6536C28.5807 21.6536 28.0859 21.6536 27.5391 21.6536C27.5391 21.1198 27.5391 20.5859 27.5391 20.0391C28.0599 20.0391 28.5677 20.0391 29.1276 20.0391C29.1276 20.5599 29.1276 21.0807 29.1276 21.6536Z" fill="#EE1D23"/>
<path d="M32.4871 20.052C32.4871 20.5859 32.4871 21.0937 32.4871 21.6405C31.9533 21.6405 31.4194 21.6405 30.8726 21.6405C30.8726 21.1197 30.8726 20.6119 30.8726 20.052C31.3804 20.052 31.9012 20.052 32.4871 20.052Z" fill="#EE1D23"/>
<path d="M17.5261 18.3073C17.5261 17.7734 17.5261 17.2656 17.5261 16.7188C18.06 16.7188 18.5808 16.7188 19.1407 16.7188C19.1407 17.2526 19.1407 17.7604 19.1407 18.3073C18.5938 18.3073 18.073 18.3073 17.5261 18.3073Z" fill="#EE1D23"/>
<path d="M17.5132 24.9739C17.5132 24.427 17.5132 23.9192 17.5132 23.3723C18.047 23.3723 18.5809 23.3723 19.1278 23.3723C19.1278 23.9062 19.1278 24.427 19.1278 24.9739C18.5939 24.9739 18.0861 24.9739 17.5132 24.9739Z" fill="#EE1D23"/>
<path d="M22.448 24.974C21.9011 24.974 21.3933 24.974 20.8464 24.974C20.8464 24.4271 20.8464 23.9062 20.8464 23.3594C21.3803 23.3594 21.8881 23.3594 22.448 23.3594C22.448 23.8932 22.448 24.4141 22.448 24.974Z" fill="#EE1D23"/>
<path d="M27.5391 23.3594C28.099 23.3594 28.6068 23.3594 29.1406 23.3594C29.1406 23.8932 29.1406 24.401 29.1406 24.9609C28.6198 24.9609 28.099 24.9609 27.5391 24.9609C27.5391 24.4401 27.5391 23.9193 27.5391 23.3594Z" fill="#EE1D23"/>
<path d="M30.8726 23.3594C31.4325 23.3594 31.9403 23.3594 32.4741 23.3594C32.4741 23.8932 32.4741 24.4141 32.4741 24.9609C31.9533 24.9609 31.4325 24.9609 30.8726 24.9609C30.8726 24.4401 30.8726 23.9193 30.8726 23.3594Z" fill="#EE1D23"/>
<path d="M20.8594 14.9739C20.8594 14.414 20.8594 13.9062 20.8594 13.3723C21.3932 13.3723 21.9141 13.3723 22.4609 13.3723C22.4609 13.9062 22.4609 14.427 22.4609 14.9739C21.9271 14.9739 21.4193 14.9739 20.8594 14.9739Z" fill="#EE1D23"/>
<path d="M27.5522 13.3594C27.6825 13.3464 27.7606 13.3334 27.8387 13.3334C29.284 13.2943 29.4012 13.4506 29.1147 14.974C28.6069 14.974 28.0991 14.974 27.5522 14.974C27.5522 14.4402 27.5522 13.9193 27.5522 13.3594Z" fill="#EE1D23"/>
<path d="M27.5391 16.7058C28.0729 16.7058 28.5807 16.7058 29.1406 16.7058C29.1406 17.2397 29.1406 17.7605 29.1406 18.3204C28.6068 18.3204 28.099 18.3204 27.5391 18.3204C27.5391 17.7865 27.5391 17.2787 27.5391 16.7058Z" fill="#EE1D23"/>
<path d="M22.474 16.7188C22.474 17.2656 22.474 17.7604 22.474 18.3073C21.9271 18.3073 21.4062 18.3073 20.8594 18.3073C20.8594 17.7865 20.8594 17.2656 20.8594 16.7188C21.4062 16.7188 21.9401 16.7188 22.474 16.7188Z" fill="#EE1D23"/>
<path d="M39.2058 19.1797C39.7397 19.1797 40.2475 19.1797 40.7943 19.1797C40.7943 23.6068 40.7943 28.0208 40.7943 32.474C40.2735 32.474 39.7657 32.474 39.2058 32.474C39.2058 28.0729 39.2058 23.6589 39.2058 19.1797Z" fill="#EE1D23"/>
<path d="M45.7944 32.4871C45.2476 32.4871 44.7397 32.4871 44.1929 32.4871C44.1929 28.06 44.1929 23.6589 44.1929 19.2058C44.7137 19.2058 45.2476 19.2058 45.7944 19.2058C45.7944 23.6329 45.7944 28.047 45.7944 32.4871Z" fill="#EE1D23"/>
<path d="M5.80737 32.4869C5.24748 32.4869 4.75269 32.4869 4.20581 32.4869C4.20581 28.0598 4.20581 23.6458 4.20581 19.1926C4.72664 19.1926 5.24748 19.1926 5.80737 19.1926C5.80737 23.6197 5.80737 28.0338 5.80737 32.4869Z" fill="#EE1D23"/>
<path d="M10.8074 32.4869C10.2475 32.4869 9.75269 32.4869 9.20581 32.4869C9.20581 28.0598 9.20581 23.6458 9.20581 19.1926C9.72664 19.1926 10.2475 19.1926 10.8074 19.1926C10.8074 23.6197 10.8074 28.0338 10.8074 32.4869Z" fill="#EE1D23"/>
</g>
<defs>
<clipPath id="clip0_426_4235">
<rect width="50" height="50" fill="white"/>
</clipPath>
</defs>
</svg>
