<svg width="50" height="50" viewBox="0 0 50 50" fill="none" xmlns="http://www.w3.org/2000/svg">
<g clip-path="url(#clip0_426_4177)">
<path d="M49.9688 31.3837C49.9688 25.6133 49.9688 19.6385 49.9373 13.758C49.9373 12.9718 49.5285 11.997 48.931 11.3837C47.1228 9.51268 45.2518 7.64161 43.4436 5.84915C41.9027 4.30827 40.3147 2.72022 38.7738 1.13217C37.9876 0.330287 37.1386 -0.015625 35.9279 -0.015625C30.5348 0.0158215 25.0316 0.0158215 19.7172 0.0158215C17.909 0.0158215 16.0851 0.0158215 14.2769 0.0158215C12.0285 0.0158215 11.8555 0.188778 11.8555 2.40576C11.8555 4.21393 11.8555 6.02211 11.8555 7.87746V9.92148C10.975 9.92148 10.0945 9.92148 9.22976 9.92148C6.71404 9.92148 4.3241 9.9372 1.91844 9.90576C1.43102 9.89003 0.833536 9.93721 0.424731 10.346C0.125989 10.6605 -0.0155206 11.1164 0.000202683 11.8083C0.0473725 13.9938 0.0316492 16.2108 0.0316492 18.3649C0.0316492 19.2454 0.0316492 20.1259 0.0316492 21.0221C0.0316492 23.4435 0.188882 23.6007 2.54737 23.6165C4.78008 23.6165 6.99706 23.6165 9.30838 23.6165H11.8555V25.1731C11.8555 27.0913 11.8555 29.0253 11.8555 30.9435C11.8555 36.4938 11.8713 42.2485 11.8241 47.8932C11.8241 48.4749 11.8713 49.1353 12.2958 49.5598C12.626 49.89 13.1291 50.0315 13.9153 50.0315C13.931 50.0315 13.931 50.0315 13.9467 50.0315C25.0788 49.9844 36.4939 49.9844 47.8776 50.0315C48.6952 50.0315 49.1826 49.89 49.5285 49.5598C49.953 49.1353 50.0002 48.4749 50.0002 47.8932C49.9688 42.3586 49.9688 36.7926 49.9688 31.3837ZM38.3021 11.651V4.02526L45.8964 11.651H38.3021ZM13.9625 23.585H22.17C23.9939 23.585 24.9059 23.585 25.4562 23.0347C26.0065 22.4844 26.0065 21.5567 26.0065 19.7014C26.0065 18.9309 26.0065 18.1762 26.0065 17.4058C25.9908 15.5504 25.9908 13.6164 26.0379 11.7297C26.0537 11.0693 25.9279 10.629 25.6291 10.3303C25.3304 10.0315 24.8901 9.89003 24.214 9.90576C22.0914 9.9372 19.9216 9.9372 17.8304 9.92148C16.9971 9.92148 16.148 9.92148 15.3147 9.92148H13.9782V2.15419H36.2423C36.2423 2.98752 36.2423 3.80513 36.2581 4.62274C36.2738 6.90261 36.2895 9.27683 36.2109 11.5724C36.1952 12.1542 36.2266 12.8617 36.6826 13.3177C37.1386 13.7737 37.8461 13.8051 38.4279 13.7894C40.7392 13.7108 43.0033 13.7265 45.3933 13.7422C46.2266 13.7422 47.06 13.758 47.8933 13.758V47.8617H13.9625V23.585ZM23.8839 11.997V21.4309H2.13857V11.997H23.8839Z" fill="#EE1D23"/>
<path d="M41.7296 32.6416L43.8051 32.9246L43.4592 32.2485C43.3805 32.107 43.3177 31.9341 43.239 31.7611C43.0661 31.3523 42.8774 30.912 42.5315 30.6133C41.2894 29.4812 40 28.3806 38.7422 27.3114C38.1132 26.7768 37.4843 26.2265 36.8554 25.6919L36.8397 25.6762C33.978 23.1919 33.7579 23.1919 30.8334 25.7076C28.6478 27.5787 26.6824 29.2768 24.6856 31.0378C24.434 31.258 24.3239 31.5881 24.2453 31.8712C24.2139 31.9812 24.1824 32.0913 24.1353 32.1699L23.8994 32.7359L24.5126 32.7202C24.6227 32.7202 24.7327 32.7202 24.8428 32.7202C25.1258 32.7202 25.4088 32.7202 25.6919 32.6888C25.7705 32.6888 25.8491 32.673 25.912 32.6416C25.912 33.3649 25.912 34.1039 25.912 34.8114C25.9277 37.0756 25.9277 39.2139 25.8805 41.3837C25.8648 41.9183 25.912 42.5944 26.3522 43.019C26.6824 43.3491 27.1856 43.5064 27.9403 43.4907C31.8554 43.412 35.7862 43.412 39.5912 43.4907C39.6384 43.4907 39.6856 43.4907 39.7327 43.4907C40.2988 43.4907 40.8963 43.412 41.3051 43.019C41.651 42.673 41.7925 42.1699 41.761 41.368C41.6982 39.1982 41.7139 36.9812 41.7139 34.8586C41.7296 34.1039 41.7296 33.3806 41.7296 32.6416ZM39.717 39.2611C39.717 39.9372 39.717 40.6133 39.717 41.3051H28.0032C28.0032 41.2894 28.0032 41.2737 28.0032 41.258C27.9717 40.9435 27.9403 40.629 27.9403 40.2988C27.9403 39.6856 27.9403 39.0724 27.9246 38.4592C27.9088 36.3051 27.8931 34.0724 27.9717 31.8869C27.9875 31.3208 28.3019 30.6133 28.7107 30.2359C29.9372 29.0724 31.2107 28.0032 32.5629 26.8554C32.9875 26.4938 33.4277 26.1164 33.868 25.7548C34.2768 26.1164 34.6856 26.4624 35.0944 26.8083C36.5409 28.0661 37.9088 29.2454 39.2768 30.4561C39.5126 30.6605 39.7013 31.0535 39.7013 31.3208C39.717 33.9466 39.717 36.5252 39.717 39.2611Z" fill="#EE1D23"/>
<path d="M7.39027 17.2799C7.68901 17.4843 8.0192 17.7044 8.39656 17.7201C9.48147 17.7673 10.5821 17.7673 11.6513 17.7516C12.4532 17.7516 13.2708 17.7516 14.0727 17.7516C14.4657 17.7516 14.8745 17.7516 15.2834 17.7516C15.9595 17.7516 16.6513 17.7358 17.3274 17.7044C17.7047 17.6887 18.0349 17.4528 18.3337 17.2641C18.4437 17.1855 18.5538 17.1069 18.6639 17.044L19.2928 16.6981L18.6639 16.3522C18.5695 16.305 18.4595 16.2264 18.3494 16.1478C18.0664 15.9591 17.7519 15.739 17.3903 15.739C14.3871 15.6918 11.3368 15.6918 8.33367 15.739C7.97203 15.739 7.65757 15.9591 7.37455 16.1478C7.26449 16.2264 7.17015 16.2893 7.06008 16.3522L6.43115 16.6981L7.06008 17.044C7.15442 17.1226 7.26449 17.2013 7.39027 17.2799Z" fill="#EE1D23"/>
</g>
<defs>
<clipPath id="clip0_426_4177">
<rect width="50" height="50" fill="white"/>
</clipPath>
</defs>
</svg>
