<svg width="56" height="50" viewBox="0 0 56 50" fill="none" xmlns="http://www.w3.org/2000/svg">
<g clip-path="url(#clip0_426_4186)">
<path d="M38.2462 0.0321235C42.9575 0.0321235 47.6687 0.0321235 52.38 0.0321235C54.2121 0.0321235 55.3572 1.15825 55.3572 2.96005C55.3572 4.89055 55.3245 6.82106 55.3245 8.75156C55.3245 18.5006 55.3572 28.2818 55.3572 38.0308C55.3572 39.8005 55.3572 41.5701 55.3572 43.3397C55.3572 44.8519 54.1467 46.0746 52.5763 46.0746C48.0286 46.0746 43.481 46.0746 38.966 46.0746C38.6716 46.0746 38.4425 46.139 38.2135 46.332C29.6417 53.4749 16.4894 49.6782 13.2832 39.0926C12.0399 35.0064 12.498 31.0489 14.5591 27.3166C15.9987 24.7104 18.0599 22.6833 20.7427 21.2998C21.0044 21.1389 21.1025 20.9781 21.1025 20.6885C21.1025 14.7683 21.1353 8.88026 21.0698 2.96005C21.0698 1.19042 22.4112 -0.0322266 24.1125 -0.0322266C28.8238 0.0642985 33.535 0.0321235 38.2462 0.0321235ZM40.242 44.4337C40.3401 44.4337 40.471 44.4658 40.5692 44.4658C44.4952 44.4658 48.4539 44.4658 52.38 44.4658C53.2306 44.4658 53.6559 44.0476 53.6559 43.211C53.6559 41.4736 53.6559 39.7361 53.6559 37.9665C53.6559 27.4774 53.6559 17.0205 53.6559 6.53148C53.6559 5.30883 53.6559 4.08618 53.6559 2.86353C53.6559 2.41308 53.5251 2.02698 53.0998 1.83393C52.838 1.70523 52.5436 1.67305 52.2818 1.67305C42.8593 1.67305 33.4696 1.67305 24.0471 1.67305C23.9489 1.67305 23.8181 1.64088 23.7199 1.67305C23.4582 1.80175 23.0983 1.8661 22.9674 2.09133C22.7711 2.3809 22.7057 2.767 22.7057 3.08875C22.7057 8.71938 22.7057 14.35 22.7057 19.9806C22.7057 20.0772 22.7057 20.2059 22.7384 20.2702C30.2633 18.211 36.4141 19.9806 41.0926 26.2548C44.9532 32.4967 44.4625 38.5135 40.242 44.4337ZM42.0087 33.8803C41.6815 30.1801 40.2093 27.0913 37.461 24.6138C35.0727 22.4903 32.259 21.332 28.9873 21.1068C28.9873 21.525 28.9873 21.9111 28.9873 22.2651C28.9873 22.7799 28.6274 23.1338 28.1367 23.1338C27.6787 23.1338 27.3515 22.7799 27.3188 22.2651C27.3188 21.9111 27.3188 21.525 27.3188 21.1068C23.6872 21.3642 20.6445 22.7477 18.158 25.2573C15.8351 27.6383 14.5264 30.5341 14.2974 33.8803C14.69 33.8803 15.0172 33.8803 15.3771 33.8803C15.9987 33.8803 16.3913 34.202 16.3586 34.7168C16.3586 35.2316 15.9987 35.5212 15.3771 35.5212C15.0172 35.5212 14.69 35.5212 14.3301 35.5212C14.69 42.8893 21.2334 48.1982 27.3188 48.2303C27.3188 47.8442 27.2861 47.4903 27.3188 47.1042C27.3188 46.9111 27.3842 46.7181 27.4824 46.5572C27.7114 46.2355 28.0385 46.1711 28.3984 46.2677C28.7583 46.3642 28.9546 46.6538 28.9873 47.0077C28.9873 47.426 28.9873 47.812 28.9873 48.2303C36.2832 47.8764 41.7797 41.6988 41.9433 35.5212C41.9105 35.5212 41.9105 35.489 41.8778 35.489C41.5507 35.489 41.1908 35.489 40.8636 35.4568C40.3074 35.4568 39.9148 35.1029 39.9475 34.6203C39.9475 34.1377 40.3401 33.8159 40.8963 33.8159C41.2235 33.8803 41.5834 33.8803 42.0087 33.8803Z" fill="url(#paint0_linear_426_4186)"/>
<path d="M38.1807 13.6421C34.5491 13.6421 30.9175 13.6421 27.3187 13.6421C27.2532 13.6421 27.1878 13.6421 27.1224 13.6421C26.5662 13.6421 26.1736 13.3204 26.1736 12.8056C26.1736 12.323 26.5335 12.0012 27.1224 12.0012C27.973 12.0012 28.8564 12.0012 29.707 12.0012C31.0811 12.0012 32.4552 12.0012 33.8294 12.0012C38.9332 12.0012 44.0043 12.0012 49.1082 12.0012C49.2391 12.0012 49.4026 12.0012 49.5335 12.0012C49.9588 12.0334 50.286 12.3873 50.286 12.8056C50.286 13.2239 49.9915 13.5778 49.5335 13.61C49.3699 13.6421 49.2063 13.61 49.01 13.61C45.4112 13.6421 41.7796 13.6421 38.1807 13.6421Z" fill="url(#paint1_linear_426_4186)"/>
<path d="M38.2462 15.9909C41.9105 15.9909 45.5748 15.9909 49.2391 15.9909C49.7953 15.9909 50.0898 16.1517 50.2206 16.57C50.3515 16.9883 50.1225 17.4387 49.6645 17.5674C49.4682 17.6318 49.2719 17.6318 49.0756 17.6318C41.8124 17.6318 34.5492 17.6318 27.286 17.6318C27.0897 17.6318 26.9262 17.6318 26.7298 17.5674C26.37 17.4709 26.1082 17.117 26.1409 16.7631C26.1737 16.377 26.4354 16.0552 26.828 15.9909C26.9589 15.9587 27.0897 15.9909 27.2206 15.9909C30.9503 15.9909 34.5819 15.9909 38.2462 15.9909Z" fill="url(#paint2_linear_426_4186)"/>
<path d="M44.4297 21.6536C42.7938 21.6536 41.1253 21.6536 39.4894 21.6536C38.7696 21.6536 38.3443 21.1066 38.6061 20.5275C38.7696 20.1736 39.0641 20.0127 39.4567 20.0127C39.9147 20.0127 40.3728 20.0127 40.8308 20.0127C43.579 20.0127 46.3273 20.0127 49.0755 20.0127C49.2391 20.0127 49.4027 20.0127 49.5335 20.0127C49.9589 20.077 50.286 20.3988 50.286 20.8171C50.286 21.2675 49.9589 21.5893 49.5008 21.6214C49.37 21.6214 49.2064 21.6214 49.0755 21.6214C47.5051 21.6536 45.9674 21.6536 44.4297 21.6536Z" fill="url(#paint3_linear_426_4186)"/>
<path d="M38.2135 7.23926C39.8493 7.23926 41.4852 7.23926 43.121 7.23926C43.7427 7.23926 44.1025 7.52883 44.1025 8.04363C44.1025 8.55843 43.7427 8.88018 43.0883 8.88018C40.7981 8.88018 38.5079 8.88018 36.2178 8.88018C35.2035 8.88018 34.222 8.88018 33.2078 8.88018C32.5535 8.88018 32.1608 8.33321 32.3244 7.81841C32.4553 7.46448 32.7498 7.27143 33.2078 7.27143C34.9091 7.23926 36.5776 7.23926 38.2135 7.23926Z" fill="url(#paint4_linear_426_4186)"/>
<path d="M47.047 28.7645C46.2945 28.7645 45.542 28.7645 44.7568 28.7645C44.2988 28.7645 43.9716 28.5071 43.9062 28.121C43.8407 27.767 44.0043 27.3809 44.2988 27.2522C44.4951 27.1557 44.6914 27.1235 44.9204 27.1235C46.3599 27.1235 47.7668 27.1235 49.2063 27.1235C49.9261 27.1235 50.3514 27.5418 50.2205 28.121C50.1224 28.5392 49.8279 28.7645 49.3045 28.7645C48.5847 28.7645 47.8322 28.7645 47.047 28.7645Z" fill="url(#paint5_linear_426_4186)"/>
<path d="M28.9874 33.8802C29.1837 33.8802 29.3146 33.8802 29.4455 33.8802C31.1795 33.8802 32.9135 33.8802 34.6147 33.8802C34.811 33.8802 35.0401 33.9124 35.2364 33.9767C35.5635 34.1054 35.7271 34.4915 35.6617 34.8454C35.5962 35.2315 35.2691 35.4889 34.8438 35.4889C32.619 35.4889 30.3942 35.4889 28.1695 35.4889C27.6133 35.4889 27.3188 35.1672 27.3188 34.588C27.3188 32.1749 27.3188 29.7618 27.3188 27.3808C27.3188 26.8017 27.646 26.4478 28.1368 26.4478C28.6275 26.4478 28.9874 26.8017 28.9874 27.3808C28.9874 29.3757 28.9874 31.3705 28.9874 33.3654C28.9874 33.5584 28.9874 33.6871 28.9874 33.8802Z" fill="url(#paint6_linear_426_4186)"/>
</g>
<defs>
<linearGradient id="paint0_linear_426_4186" x1="16.0828" y1="25.5345" x2="55.3572" y2="25.5345" gradientUnits="userSpaceOnUse">
<stop stop-color="#F14950"/>
<stop offset="0.632812" stop-color="#DA1C21"/>
</linearGradient>
<linearGradient id="paint1_linear_426_4186" x1="28.1393" y1="12.8399" x2="50.286" y2="12.8399" gradientUnits="userSpaceOnUse">
<stop stop-color="#F14950"/>
<stop offset="0.632812" stop-color="#DA1C21"/>
</linearGradient>
<linearGradient id="paint2_linear_426_4186" x1="28.1044" y1="16.8226" x2="50.2572" y2="16.8226" gradientUnits="userSpaceOnUse">
<stop stop-color="#F14950"/>
<stop offset="0.632812" stop-color="#DA1C21"/>
</linearGradient>
<linearGradient id="paint3_linear_426_4186" x1="39.4868" y1="20.8514" x2="50.286" y2="20.8514" gradientUnits="userSpaceOnUse">
<stop stop-color="#F14950"/>
<stop offset="0.632812" stop-color="#DA1C21"/>
</linearGradient>
<linearGradient id="paint4_linear_426_4186" x1="33.2505" y1="8.07795" x2="44.1025" y2="8.07795" gradientUnits="userSpaceOnUse">
<stop stop-color="#F14950"/>
<stop offset="0.632812" stop-color="#DA1C21"/>
</linearGradient>
<linearGradient id="paint5_linear_426_4186" x1="44.4097" y1="27.9622" x2="50.2441" y2="27.9622" gradientUnits="userSpaceOnUse">
<stop stop-color="#F14950"/>
<stop offset="0.632812" stop-color="#DA1C21"/>
</linearGradient>
<linearGradient id="paint6_linear_426_4186" x1="28.0001" y1="31.0688" x2="35.6759" y2="31.0688" gradientUnits="userSpaceOnUse">
<stop stop-color="#F14950"/>
<stop offset="0.632812" stop-color="#DA1C21"/>
</linearGradient>
<clipPath id="clip0_426_4186">
<rect width="55.3571" height="50" fill="white"/>
</clipPath>
</defs>
</svg>
