<svg width="56" height="50" viewBox="0 0 56 50" fill="none" xmlns="http://www.w3.org/2000/svg">
<g clip-path="url(#clip0_426_4198)">
<path d="M38.246 0.0321235C42.9572 0.0321235 47.6685 0.0321235 52.3797 0.0321235C54.2119 0.0321235 55.357 1.15825 55.357 2.96005C55.357 4.89055 55.3243 6.82106 55.3243 8.75156C55.3243 18.5006 55.357 28.2818 55.357 38.0308C55.357 39.8005 55.357 41.5701 55.357 43.3397C55.357 44.8519 54.1465 46.0746 52.576 46.0746C48.0284 46.0746 43.4807 46.0746 38.9658 46.0746C38.6713 46.0746 38.4423 46.139 38.2133 46.332C29.6414 53.4749 16.4892 49.6782 13.2829 39.0926C12.0397 35.0064 12.4977 31.0489 14.5589 27.3166C15.9984 24.7104 18.0596 22.6833 20.7424 21.2998C21.0041 21.1389 21.1023 20.9781 21.1023 20.6885C21.1023 14.7683 21.135 8.88026 21.0696 2.96005C21.0696 1.19042 22.411 -0.0322266 24.1123 -0.0322266C28.8235 0.0642985 33.5348 0.0321235 38.246 0.0321235ZM40.2417 44.4337C40.3399 44.4337 40.4708 44.4658 40.5689 44.4658C44.4949 44.4658 48.4537 44.4658 52.3797 44.4658C53.2304 44.4658 53.6557 44.0476 53.6557 43.211C53.6557 41.4736 53.6557 39.7361 53.6557 37.9665C53.6557 27.4774 53.6557 17.0205 53.6557 6.53148C53.6557 5.30883 53.6557 4.08618 53.6557 2.86353C53.6557 2.41308 53.5248 2.02698 53.0995 1.83393C52.8378 1.70523 52.5433 1.67305 52.2816 1.67305C42.8591 1.67305 33.4693 1.67305 24.0468 1.67305C23.9487 1.67305 23.8178 1.64088 23.7197 1.67305C23.4579 1.80175 23.098 1.8661 22.9672 2.09133C22.7709 2.3809 22.7054 2.767 22.7054 3.08875C22.7054 8.71938 22.7054 14.35 22.7054 19.9806C22.7054 20.0772 22.7054 20.2059 22.7381 20.2702C30.2631 18.211 36.4138 19.9806 41.0924 26.2548C44.953 32.4967 44.4622 38.5135 40.2417 44.4337ZM42.0085 33.8803C41.6813 30.1801 40.209 27.0913 37.4608 24.6138C35.0725 22.4903 32.2588 21.332 28.9871 21.1068C28.9871 21.525 28.9871 21.9111 28.9871 22.2651C28.9871 22.7799 28.6272 23.1338 28.1365 23.1338C27.6784 23.1338 27.3512 22.7799 27.3185 22.2651C27.3185 21.9111 27.3185 21.525 27.3185 21.1068C23.6869 21.3642 20.6443 22.7477 18.1578 25.2573C15.8349 27.6383 14.5262 30.5341 14.2972 33.8803C14.6898 33.8803 15.0169 33.8803 15.3768 33.8803C15.9984 33.8803 16.3911 34.202 16.3583 34.7168C16.3583 35.2316 15.9984 35.5212 15.3768 35.5212C15.0169 35.5212 14.6898 35.5212 14.3299 35.5212C14.6898 42.8893 21.2332 48.1982 27.3185 48.2303C27.3185 47.8442 27.2858 47.4903 27.3185 47.1042C27.3185 46.9111 27.384 46.7181 27.4821 46.5572C27.7111 46.2355 28.0383 46.1711 28.3982 46.2677C28.7581 46.3642 28.9544 46.6538 28.9871 47.0077C28.9871 47.426 28.9871 47.812 28.9871 48.2303C36.283 47.8764 41.7794 41.6988 41.943 35.5212C41.9103 35.5212 41.9103 35.489 41.8776 35.489C41.5504 35.489 41.1905 35.489 40.8634 35.4568C40.3072 35.4568 39.9146 35.1029 39.9473 34.6203C39.9473 34.1377 40.3399 33.8159 40.8961 33.8159C41.2232 33.8803 41.5831 33.8803 42.0085 33.8803Z" fill="url(#paint0_linear_426_4198)"/>
<path d="M8.27712 27.1235C9.35678 27.1235 10.4364 27.1235 11.4834 27.1235C12.0069 27.1235 12.334 27.4774 12.3667 27.9279C12.3667 28.4105 12.0396 28.7644 11.4834 28.7644C9.32407 28.7644 7.19746 28.7644 5.03814 28.7644C4.51467 28.7644 4.1875 28.4427 4.1875 27.96C4.1875 27.4774 4.51467 27.1235 5.07086 27.1235C6.1178 27.0913 7.19746 27.0913 8.27712 27.1235Z" fill="url(#paint1_linear_426_4198)"/>
<path d="M4.05679 35.5533C3.00985 35.5533 1.93019 35.5533 0.883245 35.5533C0.261622 35.5533 -0.0982651 35.1028 0.0326029 34.5237C0.130754 34.1376 0.425207 33.9124 0.883245 33.9124C3.04257 33.9124 5.20189 33.9124 7.36121 33.9124C7.88468 33.9124 8.21185 34.2663 8.21185 34.7489C8.21185 35.1994 7.85196 35.5533 7.36121 35.5533C6.24883 35.5533 5.13645 35.5533 4.05679 35.5533Z" fill="url(#paint2_linear_426_4198)"/>
<path d="M8.24472 42.3422C7.19778 42.3422 6.11812 42.3422 5.07117 42.3422C4.71129 42.3422 4.41683 42.2135 4.25325 41.8596C4.08966 41.5379 4.1551 41.1518 4.41683 40.9909C4.71129 40.7978 5.10389 40.7013 5.46378 40.7013C7.32864 40.6691 9.1608 40.7013 11.0257 40.7013C11.1892 40.7013 11.3528 40.7013 11.4837 40.7013C12.0072 40.7335 12.3343 41.0552 12.3343 41.5379C12.3343 41.9883 12.0072 42.3422 11.4837 42.3422C10.5022 42.3744 9.48797 42.3422 8.50646 42.3422C8.44102 42.3422 8.34287 42.3422 8.24472 42.3422Z" fill="url(#paint3_linear_426_4198)"/>
<path d="M38.1805 13.6421C34.5489 13.6421 30.9173 13.6421 27.3184 13.6421C27.253 13.6421 27.1876 13.6421 27.1221 13.6421C26.5659 13.6421 26.1733 13.3204 26.1733 12.8056C26.1733 12.323 26.5332 12.0012 27.1221 12.0012C27.9728 12.0012 28.8561 12.0012 29.7068 12.0012C31.0809 12.0012 32.455 12.0012 33.8291 12.0012C38.933 12.0012 44.0041 12.0012 49.108 12.0012C49.2388 12.0012 49.4024 12.0012 49.5333 12.0012C49.9586 12.0334 50.2858 12.3873 50.2858 12.8056C50.2858 13.2239 49.9913 13.5778 49.5333 13.61C49.3697 13.6421 49.2061 13.61 49.0098 13.61C45.4109 13.6421 41.7793 13.6421 38.1805 13.6421Z" fill="url(#paint4_linear_426_4198)"/>
<path d="M38.2462 15.9909C41.9105 15.9909 45.5748 15.9909 49.2391 15.9909C49.7953 15.9909 50.0898 16.1517 50.2206 16.57C50.3515 16.9883 50.1225 17.4387 49.6645 17.5674C49.4682 17.6318 49.2719 17.6318 49.0756 17.6318C41.8124 17.6318 34.5492 17.6318 27.286 17.6318C27.0897 17.6318 26.9262 17.6318 26.7298 17.5674C26.37 17.4709 26.1082 17.117 26.1409 16.7631C26.1737 16.377 26.4354 16.0552 26.828 15.9909C26.9589 15.9587 27.0897 15.9909 27.2206 15.9909C30.9503 15.9909 34.5819 15.9909 38.2462 15.9909Z" fill="url(#paint5_linear_426_4198)"/>
<path d="M44.4297 21.6536C42.7938 21.6536 41.1253 21.6536 39.4894 21.6536C38.7696 21.6536 38.3443 21.1066 38.6061 20.5275C38.7696 20.1736 39.0641 20.0127 39.4567 20.0127C39.9147 20.0127 40.3728 20.0127 40.8308 20.0127C43.579 20.0127 46.3273 20.0127 49.0755 20.0127C49.2391 20.0127 49.4027 20.0127 49.5335 20.0127C49.9589 20.077 50.286 20.3988 50.286 20.8171C50.286 21.2675 49.9589 21.5893 49.5008 21.6214C49.37 21.6214 49.2064 21.6214 49.0755 21.6214C47.5051 21.6536 45.9674 21.6536 44.4297 21.6536Z" fill="url(#paint6_linear_426_4198)"/>
<path d="M38.2132 7.23926C39.8491 7.23926 41.4849 7.23926 43.1208 7.23926C43.7424 7.23926 44.1023 7.52883 44.1023 8.04363C44.1023 8.55843 43.7424 8.88018 43.0881 8.88018C40.7979 8.88018 38.5077 8.88018 36.2175 8.88018C35.2033 8.88018 34.2218 8.88018 33.2075 8.88018C32.5532 8.88018 32.1606 8.33321 32.3242 7.81841C32.4551 7.46448 32.7495 7.27143 33.2075 7.27143C34.9088 7.23926 36.5774 7.23926 38.2132 7.23926Z" fill="url(#paint7_linear_426_4198)"/>
<path d="M47.0468 28.7645C46.2943 28.7645 45.5418 28.7645 44.7566 28.7645C44.2985 28.7645 43.9714 28.5071 43.9059 28.121C43.8405 27.767 44.0041 27.3809 44.2985 27.2522C44.4948 27.1557 44.6911 27.1235 44.9202 27.1235C46.3597 27.1235 47.7665 27.1235 49.2061 27.1235C49.9258 27.1235 50.3512 27.5418 50.2203 28.121C50.1222 28.5392 49.8277 28.7645 49.3042 28.7645C48.5845 28.7645 47.832 28.7645 47.0468 28.7645Z" fill="url(#paint8_linear_426_4198)"/>
<path d="M28.9869 33.8802C29.1832 33.8802 29.3141 33.8802 29.445 33.8802C31.179 33.8802 32.913 33.8802 34.6142 33.8802C34.8106 33.8802 35.0396 33.9124 35.2359 33.9767C35.563 34.1054 35.7266 34.4915 35.6612 34.8454C35.5958 35.2315 35.2686 35.4889 34.8433 35.4889C32.6185 35.4889 30.3938 35.4889 28.169 35.4889C27.6128 35.4889 27.3184 35.1672 27.3184 34.588C27.3184 32.1749 27.3184 29.7618 27.3184 27.3808C27.3184 26.8017 27.6455 26.4478 28.1363 26.4478C28.627 26.4478 28.9869 26.8017 28.9869 27.3808C28.9869 29.3757 28.9869 31.3705 28.9869 33.3654C28.9869 33.5584 28.9869 33.6871 28.9869 33.8802Z" fill="url(#paint9_linear_426_4198)"/>
</g>
<defs>
<linearGradient id="paint0_linear_426_4198" x1="16.0826" y1="25.5345" x2="55.357" y2="25.5345" gradientUnits="userSpaceOnUse">
<stop stop-color="#F14950"/>
<stop offset="0.632812" stop-color="#DA1C21"/>
</linearGradient>
<linearGradient id="paint1_linear_426_4198" x1="4.85429" y1="27.9504" x2="12.3667" y2="27.9504" gradientUnits="userSpaceOnUse">
<stop stop-color="#F14950"/>
<stop offset="0.632812" stop-color="#DA1C21"/>
</linearGradient>
<linearGradient id="paint2_linear_426_4198" x1="0.674826" y1="34.751" x2="8.21185" y2="34.751" gradientUnits="userSpaceOnUse">
<stop stop-color="#F14950"/>
<stop offset="0.632812" stop-color="#DA1C21"/>
</linearGradient>
<linearGradient id="paint3_linear_426_4198" x1="4.83012" y1="41.5403" x2="12.3343" y2="41.5403" gradientUnits="userSpaceOnUse">
<stop stop-color="#F14950"/>
<stop offset="0.632812" stop-color="#DA1C21"/>
</linearGradient>
<linearGradient id="paint4_linear_426_4198" x1="28.139" y1="12.8399" x2="50.2858" y2="12.8399" gradientUnits="userSpaceOnUse">
<stop stop-color="#F14950"/>
<stop offset="0.632812" stop-color="#DA1C21"/>
</linearGradient>
<linearGradient id="paint5_linear_426_4198" x1="28.1044" y1="16.8226" x2="50.2572" y2="16.8226" gradientUnits="userSpaceOnUse">
<stop stop-color="#F14950"/>
<stop offset="0.632812" stop-color="#DA1C21"/>
</linearGradient>
<linearGradient id="paint6_linear_426_4198" x1="39.4868" y1="20.8514" x2="50.286" y2="20.8514" gradientUnits="userSpaceOnUse">
<stop stop-color="#F14950"/>
<stop offset="0.632812" stop-color="#DA1C21"/>
</linearGradient>
<linearGradient id="paint7_linear_426_4198" x1="33.2503" y1="8.07795" x2="44.1023" y2="8.07795" gradientUnits="userSpaceOnUse">
<stop stop-color="#F14950"/>
<stop offset="0.632812" stop-color="#DA1C21"/>
</linearGradient>
<linearGradient id="paint8_linear_426_4198" x1="44.4094" y1="27.9622" x2="50.2438" y2="27.9622" gradientUnits="userSpaceOnUse">
<stop stop-color="#F14950"/>
<stop offset="0.632812" stop-color="#DA1C21"/>
</linearGradient>
<linearGradient id="paint9_linear_426_4198" x1="27.9996" y1="31.0688" x2="35.6754" y2="31.0688" gradientUnits="userSpaceOnUse">
<stop stop-color="#F14950"/>
<stop offset="0.632812" stop-color="#DA1C21"/>
</linearGradient>
<clipPath id="clip0_426_4198">
<rect width="55.3571" height="50" fill="white"/>
</clipPath>
</defs>
</svg>
