<svg width="56" height="50" viewBox="0 0 56 50" fill="none" xmlns="http://www.w3.org/2000/svg">
<g clip-path="url(#clip0_201_590)">
<path d="M38.2461 0.0321235C42.9574 0.0321235 47.6686 0.0321235 52.3799 0.0321235C54.212 0.0321235 55.3571 1.15825 55.3571 2.96005C55.3571 4.89055 55.3244 6.82106 55.3244 8.75156C55.3244 18.5006 55.3571 28.2818 55.3571 38.0308C55.3571 39.8005 55.3571 41.5701 55.3571 43.3397C55.3571 44.8519 54.1466 46.0746 52.5762 46.0746C48.0285 46.0746 43.4808 46.0746 38.9659 46.0746C38.6714 46.0746 38.4424 46.139 38.2134 46.332C29.6416 53.4749 16.4893 49.6782 13.2831 39.0926C12.0398 35.0064 12.4979 31.0489 14.559 27.3166C15.9986 24.7104 18.0597 22.6833 20.7425 21.2998C21.0043 21.1389 21.1024 20.9781 21.1024 20.6885C21.1024 14.7683 21.1351 8.88026 21.0697 2.96005C21.0697 1.19042 22.4111 -0.0322266 24.1124 -0.0322266C28.8236 0.0642985 33.5349 0.0321235 38.2461 0.0321235ZM40.2419 44.4337C40.34 44.4337 40.4709 44.4658 40.569 44.4658C44.4951 44.4658 48.4538 44.4658 52.3799 44.4658C53.2305 44.4658 53.6558 44.0476 53.6558 43.211C53.6558 41.4736 53.6558 39.7361 53.6558 37.9665C53.6558 27.4774 53.6558 17.0205 53.6558 6.53148C53.6558 5.30883 53.6558 4.08618 53.6558 2.86353C53.6558 2.41308 53.525 2.02698 53.0996 1.83393C52.8379 1.70523 52.5434 1.67305 52.2817 1.67305C42.8592 1.67305 33.4694 1.67305 24.0469 1.67305C23.9488 1.67305 23.8179 1.64088 23.7198 1.67305C23.458 1.80175 23.0982 1.8661 22.9673 2.09133C22.771 2.3809 22.7056 2.767 22.7056 3.08875C22.7056 8.71938 22.7056 14.35 22.7056 19.9806C22.7056 20.0772 22.7056 20.2059 22.7383 20.2702C30.2632 18.211 36.414 19.9806 41.0925 26.2548C44.9531 32.4967 44.4624 38.5135 40.2419 44.4337ZM42.0086 33.8803C41.6814 30.1801 40.2091 27.0913 37.4609 24.6138C35.0726 22.4903 32.2589 21.332 28.9872 21.1068C28.9872 21.525 28.9872 21.9111 28.9872 22.2651C28.9872 22.7799 28.6273 23.1338 28.1366 23.1338C27.6785 23.1338 27.3514 22.7799 27.3186 22.2651C27.3186 21.9111 27.3186 21.525 27.3186 21.1068C23.6871 21.3642 20.6444 22.7477 18.1579 25.2573C15.835 27.6383 14.5263 30.5341 14.2973 33.8803C14.6899 33.8803 15.0171 33.8803 15.3769 33.8803C15.9986 33.8803 16.3912 34.202 16.3585 34.7168C16.3585 35.2316 15.9986 35.5212 15.3769 35.5212C15.0171 35.5212 14.6899 35.5212 14.33 35.5212C14.6899 42.8893 21.2333 48.1982 27.3186 48.2303C27.3186 47.8442 27.2859 47.4903 27.3186 47.1042C27.3186 46.9111 27.3841 46.7181 27.4822 46.5572C27.7113 46.2355 28.0384 46.1711 28.3983 46.2677C28.7582 46.3642 28.9545 46.6538 28.9872 47.0077C28.9872 47.426 28.9872 47.812 28.9872 48.2303C36.2831 47.8764 41.7796 41.6988 41.9431 35.5212C41.9104 35.5212 41.9104 35.489 41.8777 35.489C41.5505 35.489 41.1907 35.489 40.8635 35.4568C40.3073 35.4568 39.9147 35.1029 39.9474 34.6203C39.9474 34.1377 40.34 33.8159 40.8962 33.8159C41.2234 33.8803 41.5833 33.8803 42.0086 33.8803Z" fill="url(#paint0_linear_201_590)"/>
<path d="M8.27737 27.1235C9.35703 27.1235 10.4367 27.1235 11.4836 27.1235C12.0071 27.1235 12.3343 27.4774 12.367 27.9279C12.367 28.4105 12.0398 28.7644 11.4836 28.7644C9.32431 28.7644 7.19771 28.7644 5.03839 28.7644C4.51491 28.7644 4.18774 28.4427 4.18774 27.96C4.18774 27.4774 4.51491 27.1235 5.0711 27.1235C6.11805 27.0913 7.19771 27.0913 8.27737 27.1235Z" fill="url(#paint1_linear_201_590)"/>
<path d="M4.05691 35.5533C3.00997 35.5533 1.93031 35.5533 0.883367 35.5533C0.261744 35.5533 -0.098143 35.1028 0.0327249 34.5237C0.130876 34.1376 0.425329 33.9124 0.883367 33.9124C3.04269 33.9124 5.20201 33.9124 7.36133 33.9124C7.8848 33.9124 8.21197 34.2663 8.21197 34.7489C8.21197 35.1994 7.85209 35.5533 7.36133 35.5533C6.24895 35.5533 5.13658 35.5533 4.05691 35.5533Z" fill="url(#paint2_linear_201_590)"/>
<path d="M8.24472 42.3422C7.19778 42.3422 6.11812 42.3422 5.07117 42.3422C4.71129 42.3422 4.41683 42.2135 4.25325 41.8596C4.08966 41.5379 4.1551 41.1518 4.41683 40.9909C4.71129 40.7978 5.10389 40.7013 5.46378 40.7013C7.32864 40.6691 9.1608 40.7013 11.0257 40.7013C11.1892 40.7013 11.3528 40.7013 11.4837 40.7013C12.0072 40.7335 12.3343 41.0552 12.3343 41.5379C12.3343 41.9883 12.0072 42.3422 11.4837 42.3422C10.5022 42.3744 9.48797 42.3422 8.50646 42.3422C8.44102 42.3422 8.34287 42.3422 8.24472 42.3422Z" fill="url(#paint3_linear_201_590)"/>
<path d="M38.1807 13.6421C34.5491 13.6421 30.9175 13.6421 27.3187 13.6421C27.2532 13.6421 27.1878 13.6421 27.1224 13.6421C26.5662 13.6421 26.1736 13.3204 26.1736 12.8056C26.1736 12.323 26.5335 12.0012 27.1224 12.0012C27.973 12.0012 28.8564 12.0012 29.707 12.0012C31.0811 12.0012 32.4552 12.0012 33.8294 12.0012C38.9332 12.0012 44.0043 12.0012 49.1082 12.0012C49.2391 12.0012 49.4026 12.0012 49.5335 12.0012C49.9588 12.0334 50.286 12.3873 50.286 12.8056C50.286 13.2239 49.9915 13.5778 49.5335 13.61C49.3699 13.6421 49.2063 13.61 49.01 13.61C45.4112 13.6421 41.7796 13.6421 38.1807 13.6421Z" fill="url(#paint4_linear_201_590)"/>
<path d="M38.2462 15.9909C41.9105 15.9909 45.5748 15.9909 49.2391 15.9909C49.7953 15.9909 50.0898 16.1517 50.2206 16.57C50.3515 16.9883 50.1225 17.4387 49.6645 17.5674C49.4682 17.6318 49.2719 17.6318 49.0756 17.6318C41.8124 17.6318 34.5492 17.6318 27.286 17.6318C27.0897 17.6318 26.9262 17.6318 26.7298 17.5674C26.37 17.4709 26.1082 17.117 26.1409 16.7631C26.1737 16.377 26.4354 16.0552 26.828 15.9909C26.9589 15.9587 27.0897 15.9909 27.2206 15.9909C30.9503 15.9909 34.5819 15.9909 38.2462 15.9909Z" fill="url(#paint5_linear_201_590)"/>
<path d="M44.4297 21.6536C42.7938 21.6536 41.1253 21.6536 39.4894 21.6536C38.7696 21.6536 38.3443 21.1066 38.6061 20.5275C38.7696 20.1736 39.0641 20.0127 39.4567 20.0127C39.9147 20.0127 40.3728 20.0127 40.8308 20.0127C43.579 20.0127 46.3273 20.0127 49.0755 20.0127C49.2391 20.0127 49.4027 20.0127 49.5335 20.0127C49.9589 20.077 50.286 20.3988 50.286 20.8171C50.286 21.2675 49.9589 21.5893 49.5008 21.6214C49.37 21.6214 49.2064 21.6214 49.0755 21.6214C47.5051 21.6536 45.9674 21.6536 44.4297 21.6536Z" fill="url(#paint6_linear_201_590)"/>
<path d="M37.9261 8C39.562 8 41.1978 8 42.8337 8C43.4553 8 43.8152 8.28958 43.8152 8.80438C43.8152 9.31918 43.4553 9.64093 42.801 9.64093C40.5108 9.64093 38.2206 9.64093 35.9304 9.64093C34.9162 9.64093 33.9347 9.64093 32.9204 9.64093C32.2661 9.64093 31.8735 9.09395 32.0371 8.57915C32.1679 8.22522 32.4624 8.03218 32.9204 8.03218C34.6217 8 36.2903 8 37.9261 8Z" fill="url(#paint7_linear_201_590)"/>
<path d="M47.047 28.7645C46.2945 28.7645 45.542 28.7645 44.7568 28.7645C44.2988 28.7645 43.9716 28.5071 43.9062 28.121C43.8407 27.767 44.0043 27.3809 44.2988 27.2522C44.4951 27.1557 44.6914 27.1235 44.9204 27.1235C46.3599 27.1235 47.7668 27.1235 49.2063 27.1235C49.9261 27.1235 50.3514 27.5418 50.2205 28.121C50.1224 28.5392 49.8279 28.7645 49.3045 28.7645C48.5847 28.7645 47.8322 28.7645 47.047 28.7645Z" fill="url(#paint8_linear_201_590)"/>
<path d="M28.9873 33.8802C29.1836 33.8802 29.3145 33.8802 29.4453 33.8802C31.1793 33.8802 32.9133 33.8802 34.6146 33.8802C34.8109 33.8802 35.0399 33.9124 35.2362 33.9767C35.5634 34.1054 35.727 34.4915 35.6616 34.8454C35.5961 35.2315 35.269 35.4889 34.8436 35.4889C32.6189 35.4889 30.3941 35.4889 28.1694 35.4889C27.6132 35.4889 27.3187 35.1672 27.3187 34.588C27.3187 32.1749 27.3187 29.7618 27.3187 27.3808C27.3187 26.8017 27.6459 26.4478 28.1367 26.4478C28.6274 26.4478 28.9873 26.8017 28.9873 27.3808C28.9873 29.3757 28.9873 31.3705 28.9873 33.3654C28.9873 33.5584 28.9873 33.6871 28.9873 33.8802Z" fill="url(#paint9_linear_201_590)"/>
</g>
<defs>
<linearGradient id="paint0_linear_201_590" x1="16.0827" y1="25.5345" x2="55.3571" y2="25.5345" gradientUnits="userSpaceOnUse">
<stop stop-color="#F14950"/>
<stop offset="0.632812" stop-color="#DA1C21"/>
</linearGradient>
<linearGradient id="paint1_linear_201_590" x1="4.85453" y1="27.9504" x2="12.367" y2="27.9504" gradientUnits="userSpaceOnUse">
<stop stop-color="#F14950"/>
<stop offset="0.632812" stop-color="#DA1C21"/>
</linearGradient>
<linearGradient id="paint2_linear_201_590" x1="0.674948" y1="34.751" x2="8.21197" y2="34.751" gradientUnits="userSpaceOnUse">
<stop stop-color="#F14950"/>
<stop offset="0.632812" stop-color="#DA1C21"/>
</linearGradient>
<linearGradient id="paint3_linear_201_590" x1="4.83012" y1="41.5403" x2="12.3343" y2="41.5403" gradientUnits="userSpaceOnUse">
<stop stop-color="#F14950"/>
<stop offset="0.632812" stop-color="#DA1C21"/>
</linearGradient>
<linearGradient id="paint4_linear_201_590" x1="28.1393" y1="12.8399" x2="50.286" y2="12.8399" gradientUnits="userSpaceOnUse">
<stop stop-color="#F14950"/>
<stop offset="0.632812" stop-color="#DA1C21"/>
</linearGradient>
<linearGradient id="paint5_linear_201_590" x1="28.1044" y1="16.8226" x2="50.2572" y2="16.8226" gradientUnits="userSpaceOnUse">
<stop stop-color="#F14950"/>
<stop offset="0.632812" stop-color="#DA1C21"/>
</linearGradient>
<linearGradient id="paint6_linear_201_590" x1="39.4868" y1="20.8514" x2="50.286" y2="20.8514" gradientUnits="userSpaceOnUse">
<stop stop-color="#F14950"/>
<stop offset="0.632812" stop-color="#DA1C21"/>
</linearGradient>
<linearGradient id="paint7_linear_201_590" x1="32.9632" y1="8.8387" x2="43.8152" y2="8.8387" gradientUnits="userSpaceOnUse">
<stop stop-color="#F14950"/>
<stop offset="0.632812" stop-color="#DA1C21"/>
</linearGradient>
<linearGradient id="paint8_linear_201_590" x1="44.4097" y1="27.9622" x2="50.2441" y2="27.9622" gradientUnits="userSpaceOnUse">
<stop stop-color="#F14950"/>
<stop offset="0.632812" stop-color="#DA1C21"/>
</linearGradient>
<linearGradient id="paint9_linear_201_590" x1="28" y1="31.0688" x2="35.6758" y2="31.0688" gradientUnits="userSpaceOnUse">
<stop stop-color="#F14950"/>
<stop offset="0.632812" stop-color="#DA1C21"/>
</linearGradient>
<clipPath id="clip0_201_590">
<rect width="55.3571" height="50" fill="white"/>
</clipPath>
</defs>
</svg>
