<svg width="20" height="20" viewBox="0 0 20 20" fill="none" xmlns="http://www.w3.org/2000/svg">
<path fill-rule="evenodd" clip-rule="evenodd" d="M3.33366 3.5C3.15685 3.5 2.98728 3.57024 2.86225 3.69526C2.73723 3.82029 2.66699 3.98986 2.66699 4.16667V15.8333C2.66699 16.0101 2.73723 16.1797 2.86225 16.3047C2.98728 16.4298 3.15685 16.5 3.33366 16.5H16.667C16.8438 16.5 17.0134 16.4298 17.1384 16.3047C17.2634 16.1797 17.3337 16.0101 17.3337 15.8333V6.66667C17.3337 6.48986 17.2634 6.32029 17.1384 6.19526C17.0134 6.07024 16.8438 6 16.667 6H9.16699C8.83264 6 8.52041 5.8329 8.33494 5.5547L6.96514 3.5H3.33366ZM1.44804 2.28105C1.94814 1.78095 2.62642 1.5 3.33366 1.5H7.50033C7.83468 1.5 8.14691 1.6671 8.33238 1.9453L9.70218 4H16.667C17.3742 4 18.0525 4.28095 18.5526 4.78105C19.0527 5.28115 19.3337 5.95942 19.3337 6.66667V15.8333C19.3337 16.5406 19.0527 17.2189 18.5526 17.719C18.0525 18.219 17.3742 18.5 16.667 18.5H3.33366C2.62641 18.5 1.94814 18.219 1.44804 17.719C0.947944 17.2189 0.666992 16.5406 0.666992 15.8333V4.16667C0.666992 3.45942 0.947944 2.78115 1.44804 2.28105Z" fill="#EE1D23"/>
</svg>
