<svg width="41" height="50" viewBox="0 0 41 50" fill="none" xmlns="http://www.w3.org/2000/svg">
<g clip-path="url(#clip0_201_603)">
<path d="M7.16081 14.4103C5.98687 13.3146 5.67382 12.0331 6.7695 10.4776C5.71295 9.44062 4.65641 8.3743 3.59008 7.33732C3.50204 7.24927 3.2966 7.23949 3.14986 7.26884C1.96613 7.51341 0.909589 7.08296 0.342185 6.10468C-0.225219 5.1264 -0.088259 3.95246 0.723715 3.09157C1.49656 2.2796 2.28897 1.48719 3.11072 0.714348C3.97161 -0.0976258 5.15533 -0.21502 6.13362 0.362167C7.08255 0.919788 7.52278 1.98611 7.28799 3.1307C7.25864 3.27745 7.26842 3.50245 7.35647 3.60028C8.38366 4.66661 9.43043 5.70359 10.4968 6.7797C11.0837 6.3199 11.7098 6.01664 12.4435 6.07533C13.1185 6.12425 13.686 6.42752 14.1653 6.89709C17.4328 10.145 20.7002 13.3929 23.9579 16.6506C24.134 16.8267 24.271 17.0712 24.359 17.306C24.5645 17.8734 24.7797 18.4408 24.8971 19.0278C25.171 20.3583 25.8753 21.3757 26.883 22.2757C27.9787 23.254 27.9395 24.154 26.8928 25.2007C26.2764 25.8269 25.6503 26.4432 25.0242 27.0595C24.2612 27.8225 23.1851 27.9008 22.5296 27.0595C21.3557 25.5529 19.722 24.9757 18.0002 24.516C17.3056 24.3301 16.7186 23.9975 16.2393 23.4496C15.6327 22.7746 14.9969 22.1289 14.4392 21.5518C13.7153 21.8257 13.1381 22.0311 12.5707 22.2659C12.4435 22.3148 12.3359 22.4713 12.287 22.6083C10.6728 27.0986 13.2751 32.4596 17.8045 33.9759C17.9708 34.0346 18.2252 33.9857 18.3621 33.8879C19.448 33.1151 20.622 32.8803 21.9231 33.1444C22.109 33.1835 22.3927 33.0661 22.5394 32.9194C26.3254 29.153 30.1015 25.3866 33.8777 21.6105C34.5429 20.9452 34.8951 20.9354 35.5506 21.5909C36.2256 22.2561 36.8908 22.9214 37.556 23.5964C38.1137 24.154 38.1234 24.5453 37.5658 25.1029C34.2201 28.4486 30.8646 31.7944 27.5091 35.1401C26.8047 35.8445 26.1004 36.539 25.4058 37.2532C25.2884 37.3706 25.1808 37.5467 25.171 37.7032C25.1514 38.613 25.1612 39.5228 25.1612 40.5206C25.4253 40.5206 25.6601 40.5206 25.8949 40.5206C26.8047 40.5402 27.7243 40.6185 28.6243 40.5696C29.0645 40.55 29.5635 40.3837 29.9157 40.1196C30.4928 39.6793 30.9624 39.1021 31.5494 38.5054C31.2755 38.251 30.982 38.0162 30.7276 37.7521C30.2874 37.2923 30.2776 36.8717 30.7178 36.4314C32.6157 34.5238 34.5136 32.6259 36.4212 30.7378C36.881 30.2878 37.3115 30.2878 37.781 30.7476C38.5148 31.4618 39.2387 32.1955 39.9626 32.9194C40.4811 33.4477 40.4713 33.8488 39.943 34.3868C38.1137 36.2162 36.2843 38.0456 34.4549 39.875C33.8288 40.5011 33.4962 40.5011 32.8505 39.875C32.8016 39.8261 32.7527 39.7869 32.6451 39.6989C32.2146 40.1391 31.7842 40.5793 31.3635 41.0294C30.5809 41.8511 29.6222 42.2424 28.4776 42.2131C27.3917 42.1837 26.3058 42.2033 25.1906 42.2033C25.1906 43.0837 25.1906 43.974 25.1906 44.9131C26.3058 44.9131 27.3917 44.9131 28.4776 44.9131C29.6124 44.9131 30.5711 45.2947 31.3048 46.1947C32.0581 47.1045 32.1461 48.1806 32.0385 49.2861C31.9896 49.7752 31.6374 49.9904 31.0309 49.9904C28.8982 49.9904 26.7656 49.9904 24.6329 49.9904C20.0937 49.9904 15.5447 49.9904 11.0055 49.9904C9.93913 49.9904 9.73369 49.785 9.72391 48.6991C9.70435 46.8697 10.6239 45.5099 12.2283 45.0697C12.6098 44.962 13.0305 44.9327 13.4316 44.9229C14.4686 44.9034 15.5153 44.9131 16.6404 44.9131C16.6404 44.649 16.6404 44.3946 16.6404 44.1501C16.6404 43.1718 16.6208 42.1935 16.6501 41.225C16.6599 40.8533 16.523 40.7261 16.2001 40.6283C12.7566 39.5619 9.97826 37.5467 7.90431 34.602C5.38034 31.0313 4.49988 27.0497 5.26294 22.7453C5.47817 21.5615 5.95752 20.4169 6.28036 19.2528C6.3684 18.9397 6.4271 18.5876 6.3684 18.2745C6.18253 17.0223 6.31949 16.2201 7.16081 14.4103ZM7.55212 20.6126C4.57815 28.3606 9.26412 36.9499 16.5817 38.9945C16.6893 37.8206 16.7969 36.6467 16.9045 35.4825C11.5044 32.7531 9.3326 28.3997 10.5848 22.3246C9.39129 22.1094 8.38366 21.5322 7.55212 20.6126ZM22.3046 17.3451C22.3046 17.3354 22.2948 17.306 22.2753 17.2864C19.1839 14.2049 16.1023 11.1233 13.0012 8.05146C12.512 7.56232 12.0131 7.59167 11.5044 8.09059C10.3696 9.21562 9.24455 10.3406 8.11953 11.4755C7.49343 12.1016 7.57169 12.6983 8.32497 13.1972C10.8 11.4852 13.4218 12.1113 14.9969 13.6081C16.8165 15.3397 16.9925 17.5604 15.574 20.3289C16.2099 20.9941 16.8165 21.63 17.3936 22.2268C19.0274 20.6028 20.6611 18.9789 22.3046 17.3451ZM23.5275 44.8936C23.547 44.8251 23.5764 44.7762 23.5764 44.737C23.5764 42.262 23.596 39.7967 23.5666 37.3217C23.5568 36.1575 22.9796 35.2966 21.8937 34.8564C20.1133 34.1422 18.323 35.4238 18.3034 37.4488C18.2839 39.8261 18.3034 42.1935 18.3034 44.5707C18.3034 44.6783 18.3328 44.786 18.3426 44.8936C20.0937 44.8936 21.8155 44.8936 23.5275 44.8936ZM7.94344 17.2278C7.90431 19.1452 9.45977 20.73 11.4066 20.7789C13.2555 20.8278 14.8697 19.2626 14.9186 17.3745C14.9675 15.4081 13.4512 13.8331 11.4653 13.7744C9.60652 13.7255 7.98257 15.3201 7.94344 17.2278ZM11.4163 48.3371C17.785 48.3371 24.1047 48.3371 30.4733 48.3371C30.4439 48.1415 30.4341 47.9752 30.3852 47.8186C30.1407 46.9969 29.5048 46.5566 28.5265 46.5566C25.2395 46.5469 21.9524 46.5469 18.6556 46.5469C16.7969 46.5469 14.9479 46.5371 13.0892 46.5664C12.1109 46.586 11.4261 47.3295 11.4163 48.3371ZM34.7875 23.1757C31.1287 26.8247 27.4797 30.4737 23.8307 34.1129C24.1634 34.5629 24.5058 35.0325 24.8286 35.4629C28.5363 31.7552 32.2538 28.0475 35.9223 24.379C35.5506 23.9779 35.1495 23.5572 34.7875 23.1757ZM33.6136 38.2902C35.2082 36.7053 36.7734 35.1499 38.2604 33.6629C37.9082 33.2716 37.5169 32.8313 37.1647 32.44C35.5799 34.0151 34.0244 35.5705 32.4396 37.1358C32.8407 37.5271 33.2516 37.938 33.6136 38.2902ZM18.998 23.1268C19.6143 23.3322 20.2404 23.5475 20.8763 23.7333C20.9937 23.7627 21.1894 23.704 21.2774 23.6159C22.0698 22.8529 22.8525 22.0702 23.6253 21.2778C23.7133 21.1898 23.8112 21.0137 23.7818 20.9061C23.596 20.2506 23.3709 19.5952 23.1753 18.9887C21.7666 20.3876 20.3872 21.7474 18.998 23.1268ZM9.26412 7.94385C8.2467 6.91666 7.19994 5.86011 6.2021 4.8427C5.7423 5.29271 5.26294 5.74272 4.79337 6.20251C5.84013 7.23949 6.88689 8.27647 7.91409 9.30366C8.3641 8.84387 8.83367 8.3743 9.26412 7.94385ZM2.44549 5.83076C2.74876 5.66446 3.00311 5.58619 3.1792 5.41989C3.94226 4.68617 4.68576 3.94268 5.41947 3.1894C5.83035 2.76874 5.83035 2.24047 5.4586 1.88829C5.09664 1.54589 4.57815 1.55567 4.15749 1.96655C3.5803 2.51439 3.02268 3.08179 2.46506 3.64919C2.23027 3.89376 1.93679 4.11877 1.79983 4.41225C1.68243 4.65682 1.66287 5.02857 1.77048 5.26336C1.87809 5.48836 2.20092 5.63511 2.44549 5.83076ZM23.7427 25.9345C24.4764 25.2007 25.2199 24.4475 25.9438 23.7235C25.5525 23.3322 25.1514 22.9116 24.7699 22.53C24.0166 23.2638 23.2633 23.9975 22.5296 24.7214C22.9405 25.1323 23.3514 25.5431 23.7427 25.9345Z" fill="url(#paint0_linear_201_603)"/>
</g>
<defs>
<linearGradient id="paint0_linear_201_603" x1="3.28668" y1="25.5519" x2="40.3454" y2="25.5519" gradientUnits="userSpaceOnUse">
<stop stop-color="#F14950"/>
<stop offset="0.632812" stop-color="#DA1C21"/>
</linearGradient>
<clipPath id="clip0_201_603">
<rect width="40.3737" height="50" fill="white"/>
</clipPath>
</defs>
</svg>
