<svg width="29" height="28" viewBox="0 0 29 28" fill="none" xmlns="http://www.w3.org/2000/svg">
<g clip-path="url(#clip0_823_2860)">
<path fill-rule="evenodd" clip-rule="evenodd" d="M16.6224 3.4215C17.646 3.27305 18.694 3.32168 19.7021 3.56764L19.7021 3.56764C21.035 3.89284 22.2975 4.56292 23.338 5.57538L22.7292 6.16776L23.338 5.57538C24.3786 6.58783 25.0674 7.81611 25.4016 9.11307C25.6544 10.0939 25.7044 11.1136 25.5518 12.1095C25.4773 12.5957 25.0118 12.9311 24.5121 12.8587C24.0123 12.7862 23.6676 12.3333 23.7421 11.847C23.8593 11.0819 23.8208 10.2987 23.6269 9.54607L23.6269 9.54604C23.371 8.55299 22.8443 7.61256 22.0443 6.83419C21.2443 6.05584 20.2777 5.54341 19.2571 5.2944L19.4796 4.43102L19.2571 5.2944C18.4836 5.10567 17.6785 5.06822 16.8922 5.18227C16.3925 5.25474 15.927 4.91934 15.8525 4.43312C15.778 3.94689 16.1227 3.49398 16.6224 3.4215Z" fill="url(#paint0_linear_823_2860)"/>
<path fill-rule="evenodd" clip-rule="evenodd" d="M16.8201 7.13788C18.064 6.95747 19.3806 7.33318 20.3406 8.26712L20.3406 8.26714C21.3005 9.20113 21.6866 10.4823 21.5012 11.6925C21.4267 12.1787 20.9612 12.5141 20.4615 12.4416C19.9617 12.3691 19.617 11.9162 19.6915 11.43C19.7951 10.7537 19.5794 10.0442 19.0469 9.52597C19.0468 9.52596 19.0468 9.52595 19.0468 9.52594M19.0468 9.52594C18.5141 9.00771 17.7849 8.79784 17.0899 8.89864C16.5902 8.97113 16.1247 8.63572 16.0502 8.1495C15.9757 7.66328 16.3204 7.21036 16.8201 7.13788" fill="url(#paint1_linear_823_2860)"/>
<path fill-rule="evenodd" clip-rule="evenodd" d="M5.39626 5.24702C4.16709 5.24702 3.37815 6.32587 3.73697 7.36055C4.91316 10.7522 7.11098 15.8748 10.4 19.0749C13.6889 22.275 18.9539 24.4134 22.4397 25.5578C23.5031 25.907 24.612 25.1394 24.612 23.9434V20.5022C24.612 20.3328 24.5177 20.1768 24.3656 20.0946L21.2848 18.4281C21.1465 18.3532 20.9791 18.3497 20.8375 18.4185L17.5521 20.0168C17.3723 20.1043 17.168 20.1317 16.9706 20.0949L17.1429 19.2207C16.9706 20.0949 16.9709 20.0949 16.9706 20.0949L16.9643 20.0937L16.9545 20.0918L16.9243 20.0857C16.8996 20.0805 16.8659 20.0733 16.8238 20.0636C16.7397 20.0443 16.6222 20.0153 16.4769 19.9745C16.1868 19.893 15.7839 19.7639 15.3154 19.5696C14.3819 19.1825 13.165 18.5275 12.0638 17.4561C10.9627 16.3848 10.2876 15.199 9.88787 14.2893C9.68724 13.8327 9.55349 13.4399 9.46899 13.1571C9.42669 13.0155 9.39655 12.901 9.37645 12.819C9.3664 12.7781 9.35884 12.7452 9.35351 12.7212L9.34714 12.6918L9.34515 12.6822L9.34444 12.6787L9.34416 12.6773C9.3441 12.677 9.34392 12.6761 10.2419 12.5062L9.34392 12.6761C9.30539 12.4834 9.33343 12.2837 9.42367 12.1081L11.0666 8.91105C11.1373 8.77344 11.1338 8.61063 11.057 8.47602L9.35163 5.48712C9.35162 5.4871 9.35164 5.48715 9.35163 5.48712C9.26702 5.33893 9.1065 5.24702 8.93248 5.24702H5.39626ZM11.2112 12.6103C11.2159 12.6263 11.2208 12.6429 11.2259 12.6601C11.293 12.8845 11.4028 13.2084 11.5703 13.5895C11.9068 14.3554 12.466 15.3298 13.3575 16.1973C13.3575 16.1973 13.3575 16.1973 13.3575 16.1973M13.3575 16.1973C14.249 17.0646 15.2482 17.6066 16.0327 17.9319C16.4231 18.0938 16.7547 18.1996 16.9843 18.2641C17.0018 18.269 17.0187 18.2736 17.0349 18.2781L20.0192 16.8263C20.0192 16.8263 20.0191 16.8263 20.0192 16.8263C20.7011 16.4945 21.5075 16.5117 22.1739 16.8721L25.2545 18.5386C25.2546 18.5386 25.2545 18.5386 25.2545 18.5386C25.9873 18.935 26.4417 19.6866 26.4417 20.5022V23.9434C26.4417 26.2523 24.2045 28.0161 21.8548 27.2446C18.3306 26.0877 12.7142 23.8442 9.10623 20.3337C5.4982 16.8233 3.19243 11.3586 2.00333 7.9297C1.21048 5.64345 3.02328 3.4668 5.39626 3.4668H8.93248C9.77133 3.4668 10.5441 3.90949 10.9513 4.62293L12.6567 7.61198C13.0265 8.26008 13.0439 9.04404 12.7031 9.70719C12.7031 9.7072 12.7031 9.70717 12.7031 9.70719L11.2112 12.6103M11.1396 12.3344C11.1395 12.3341 11.1394 12.3336 11.1396 12.3344V12.3344Z" fill="url(#paint2_linear_823_2860)"/>
</g>
<defs>
<linearGradient id="paint0_linear_823_2860" x1="16.6409" y1="8.20897" x2="25.638" y2="8.20897" gradientUnits="userSpaceOnUse">
<stop stop-color="#F14950"/>
<stop offset="0.632812" stop-color="#DA1C21"/>
</linearGradient>
<linearGradient id="paint1_linear_823_2860" x1="16.4889" y1="9.83226" x2="21.5463" y2="9.83226" gradientUnits="userSpaceOnUse">
<stop stop-color="#F14950"/>
<stop offset="0.632812" stop-color="#DA1C21"/>
</linearGradient>
<linearGradient id="paint2_linear_823_2860" x1="3.82211" y1="15.7138" x2="26.4417" y2="15.7138" gradientUnits="userSpaceOnUse">
<stop stop-color="#F14950"/>
<stop offset="0.632812" stop-color="#DA1C21"/>
</linearGradient>
<clipPath id="clip0_823_2860">
<rect width="27.75" height="27" fill="white" transform="translate(0.75 0.499756)"/>
</clipPath>
</defs>
</svg>
