<svg width="15" height="12" viewBox="0 0 15 12" fill="none" xmlns="http://www.w3.org/2000/svg">
<path d="M7.3821 0.454545V3.85511C7.3821 4.79971 7.19318 5.75426 6.81534 6.71875C6.44744 7.67329 5.9652 8.56818 5.36861 9.40341C4.77202 10.2386 4.14062 10.9446 3.47443 11.5213L0.372159 9.82102C0.829546 9.06534 1.23722 8.2152 1.59517 7.2706C1.95313 6.31605 2.1321 5.18253 2.1321 3.87003V0.454545H7.3821ZM14.8246 0.454545V3.85511C14.8246 4.79971 14.6357 5.75426 14.2578 6.71875C13.8899 7.67329 13.4077 8.56818 12.8111 9.40341C12.2145 10.2386 11.5831 10.9446 10.9169 11.5213L7.81463 9.82102C8.27202 9.06534 8.67969 8.2152 9.03764 7.2706C9.3956 6.31605 9.57457 5.18253 9.57457 3.87003V0.454545H14.8246Z" fill="url(#paint0_linear_22_275)"/>
<defs>
<linearGradient id="paint0_linear_22_275" x1="0.548913" y1="16.5333" x2="18" y2="16.5333" gradientUnits="userSpaceOnUse">
<stop stop-color="#F14950"/>
<stop offset="0.632812" stop-color="#DA1C21"/>
</linearGradient>
</defs>
</svg>
