<svg width="49" height="50" viewBox="0 0 49 50" fill="none" xmlns="http://www.w3.org/2000/svg">
<g clip-path="url(#clip0_201_606)">
<path d="M4.33255 46.4871H0.819672C0.351288 46.4871 0 46.1358 0 45.6674V0.819672C0 0.351288 0.351288 0 0.819672 0H34.6604C35.1288 0 35.4801 0.351288 35.4801 0.819672V4.21546C35.4801 4.68384 35.1288 5.03513 34.6604 5.03513H5.26932V45.6674C5.26932 46.1358 4.80094 46.4871 4.33255 46.4871ZM1.63934 44.8478H3.51288V4.33255C3.51288 3.86417 3.86417 3.51288 4.33255 3.51288H33.7237V1.63934H1.63934V44.8478Z" fill="url(#paint0_linear_201_606)"/>
<path d="M47.1897 50.0001H4.33261C3.86423 50.0001 3.51294 49.6488 3.51294 49.1804V4.33261C3.51294 3.86423 3.86423 3.51294 4.33261 3.51294H38.1734C38.6417 3.51294 38.993 3.86423 38.993 4.33261V18.267C38.993 18.7354 38.6417 19.0867 38.1734 19.0867C37.705 19.0867 37.3537 18.7354 37.3537 18.267V5.15228H5.26938V48.3607H47.3068C47.7752 48.3607 48.1265 48.712 48.1265 49.1804C48.0094 49.5317 47.6581 50.0001 47.1897 50.0001Z" fill="url(#paint1_linear_201_606)"/>
<path d="M27.5175 11.3583H12.6463C12.1779 11.3583 11.8267 11.0071 11.8267 10.5387C11.8267 10.0703 12.1779 9.71899 12.6463 9.71899H27.5175C27.9859 9.71899 28.3372 10.0703 28.3372 10.5387C28.3372 10.89 27.9859 11.3583 27.5175 11.3583Z" fill="url(#paint2_linear_201_606)"/>
<path d="M33.0211 16.5104H9.71896C9.25058 16.5104 8.89929 16.1591 8.89929 15.6908C8.89929 15.2224 9.25058 14.8711 9.71896 14.8711H33.0211C33.4895 14.8711 33.8407 15.2224 33.8407 15.6908C33.8407 16.1591 33.4895 16.5104 33.0211 16.5104Z" fill="url(#paint3_linear_201_606)"/>
<path d="M26.3466 21.6628H9.71896C9.25058 21.6628 8.89929 21.3115 8.89929 20.8431C8.89929 20.3747 9.25058 20.0234 9.71896 20.0234H26.2295C26.6979 20.0234 27.0492 20.3747 27.0492 20.8431C27.0492 21.3115 26.815 21.6628 26.3466 21.6628Z" fill="url(#paint4_linear_201_606)"/>
<path d="M18.267 26.8149H9.71896C9.25058 26.8149 8.89929 26.4636 8.89929 25.9952C8.89929 25.5268 9.25058 25.1755 9.71896 25.1755H18.267C18.7354 25.1755 19.0866 25.5268 19.0866 25.9952C19.0866 26.4636 18.7354 26.8149 18.267 26.8149Z" fill="url(#paint5_linear_201_606)"/>
<path d="M34.4262 49.8828C34.3091 49.8828 34.192 49.8828 34.192 49.8828C34.0749 49.8828 21.3115 44.9648 21.0773 27.7517C21.0773 27.4004 21.1944 27.1662 21.5457 27.0491L33.9578 19.6721C34.192 19.555 34.5433 19.555 34.7775 19.6721L47.4239 26.932C47.6581 27.0491 47.8923 27.4004 47.8923 27.6346C47.6581 44.8477 34.8946 49.7657 34.7775 49.7657C34.6604 49.8828 34.5433 49.8828 34.4262 49.8828ZM22.7166 28.103C23.0679 42.3887 32.6698 47.3067 34.4262 48.1264C36.2998 47.3067 45.7845 42.6229 46.1358 28.103L34.4262 21.3114L22.7166 28.103Z" fill="url(#paint6_linear_201_606)"/>
<path d="M34.4262 49.8828C33.9579 49.8828 33.6066 49.5315 33.6066 49.0631V20.3746C33.6066 19.9062 33.9579 19.5549 34.4262 19.5549C34.8946 19.5549 35.2459 19.9062 35.2459 20.3746V49.0631C35.2459 49.5315 34.8946 49.8828 34.4262 49.8828Z" fill="url(#paint7_linear_201_606)"/>
<path d="M11.007 40.5151C10.6558 40.5151 10.3045 40.398 10.1874 40.2809C9.13351 39.5783 9.4848 37.939 9.4848 37.3535C9.60189 36.8851 10.0703 34.5432 11.5925 34.5432C12.178 34.5432 12.8806 34.7774 13.349 35.2458C13.7003 35.5971 13.8173 35.9484 13.8173 36.4167C13.8173 36.8851 13.349 37.2364 12.9977 37.2364C12.5293 37.2364 12.178 36.8851 12.178 36.4167C12.0609 36.2997 11.8267 36.1826 11.5925 36.1826C11.4754 36.2997 11.1241 36.8851 11.007 37.5877C10.8899 38.2903 10.8899 38.6416 11.007 38.7587C11.2412 38.7587 11.5925 38.6416 12.4122 38.4074C13.7003 38.0561 14.2857 37.8219 14.637 37.4706C15.2225 37.0022 15.5738 36.2997 15.6909 35.8313C15.9251 35.3629 16.1593 34.6603 16.9789 34.6603C18.0328 34.6603 18.3841 35.9484 18.8525 38.0561C18.9696 38.5245 18.6183 38.9929 18.1499 38.9929C17.6815 39.11 17.2131 38.7587 17.2131 38.2903C17.096 37.8219 17.096 37.4706 16.9789 37.1193C16.7447 37.5877 16.3935 38.1732 15.6909 38.7587C15.1054 39.2271 14.2857 39.5783 12.8806 39.9296C12.178 40.398 11.4754 40.5151 11.007 40.5151Z" fill="url(#paint8_linear_201_606)"/>
<path d="M18.267 44.1452H10.3044C9.83606 44.1452 9.36768 43.7939 9.36768 43.3255C9.36768 42.8571 9.71896 42.5059 10.1873 42.5059H18.1499C18.6183 42.5059 18.9696 42.8571 18.9696 43.3255C19.0866 43.7939 18.7354 44.1452 18.267 44.1452Z" fill="url(#paint9_linear_201_606)"/>
</g>
<defs>
<linearGradient id="paint0_linear_201_606" x1="2.8924" y1="23.7601" x2="35.4801" y2="23.7601" gradientUnits="userSpaceOnUse">
<stop stop-color="#F14950"/>
<stop offset="0.632812" stop-color="#DA1C21"/>
</linearGradient>
<linearGradient id="paint1_linear_201_606" x1="7.14992" y1="27.273" x2="48.1265" y2="27.273" gradientUnits="userSpaceOnUse">
<stop stop-color="#F14950"/>
<stop offset="0.632812" stop-color="#DA1C21"/>
</linearGradient>
<linearGradient id="paint2_linear_201_606" x1="13.1726" y1="10.5569" x2="28.3372" y2="10.5569" gradientUnits="userSpaceOnUse">
<stop stop-color="#F14950"/>
<stop offset="0.632812" stop-color="#DA1C21"/>
</linearGradient>
<linearGradient id="paint3_linear_201_606" x1="10.9326" y1="15.709" x2="33.8407" y2="15.709" gradientUnits="userSpaceOnUse">
<stop stop-color="#F14950"/>
<stop offset="0.632812" stop-color="#DA1C21"/>
</linearGradient>
<linearGradient id="paint4_linear_201_606" x1="10.3789" y1="20.8613" x2="27.0492" y2="20.8613" gradientUnits="userSpaceOnUse">
<stop stop-color="#F14950"/>
<stop offset="0.632812" stop-color="#DA1C21"/>
</linearGradient>
<linearGradient id="paint5_linear_201_606" x1="9.72978" y1="26.0134" x2="19.0866" y2="26.0134" gradientUnits="userSpaceOnUse">
<stop stop-color="#F14950"/>
<stop offset="0.632812" stop-color="#DA1C21"/>
</linearGradient>
<linearGradient id="paint6_linear_201_606" x1="23.2633" y1="35.0702" x2="47.8923" y2="35.0702" gradientUnits="userSpaceOnUse">
<stop stop-color="#F14950"/>
<stop offset="0.632812" stop-color="#DA1C21"/>
</linearGradient>
<linearGradient id="paint7_linear_201_606" x1="33.7402" y1="35.0558" x2="35.2459" y2="35.0558" gradientUnits="userSpaceOnUse">
<stop stop-color="#F14950"/>
<stop offset="0.632812" stop-color="#DA1C21"/>
</linearGradient>
<linearGradient id="paint8_linear_201_606" x1="10.1987" y1="37.5955" x2="18.8752" y2="37.5955" gradientUnits="userSpaceOnUse">
<stop stop-color="#F14950"/>
<stop offset="0.632812" stop-color="#DA1C21"/>
</linearGradient>
<linearGradient id="paint9_linear_201_606" x1="10.1523" y1="43.3437" x2="18.9922" y2="43.3437" gradientUnits="userSpaceOnUse">
<stop stop-color="#F14950"/>
<stop offset="0.632812" stop-color="#DA1C21"/>
</linearGradient>
<clipPath id="clip0_201_606">
<rect width="48.0094" height="50" fill="white"/>
</clipPath>
</defs>
</svg>
