<svg width="62" height="50" viewBox="0 0 62 50" fill="none" xmlns="http://www.w3.org/2000/svg">
<g clip-path="url(#clip0_201_619)">
<path d="M10.6646 49.9964C9.99077 49.9964 9.50285 49.9964 9.01493 49.9964C8.94523 49.9035 8.85229 49.8338 8.85229 49.7873C8.89876 46.0001 8.78259 42.213 9.08464 38.4723C9.31698 35.4286 11.1525 33.1981 13.9638 31.9202C16.0781 30.9676 18.2157 30.1079 20.3765 29.2483C21.7705 28.6907 22.9555 27.9239 23.699 26.5531C24.0242 25.949 24.8839 25.5076 25.0233 24.9035C25.2092 24.0438 25.2556 22.8356 24.791 22.2083C22.4675 19.1646 21.3755 15.7957 21.3523 12.0782C21.3291 10.4518 21.3058 8.82541 21.5382 7.22225C22.1655 2.9704 24.3263 0.693444 28.5781 0.135823C30.5298 -0.119753 32.5976 -0.00358215 34.5493 0.391399C37.8021 1.01872 39.777 3.27244 40.2882 6.47876C40.9155 10.4286 41.0084 14.4249 39.4053 18.212C38.8476 19.5364 38.0345 20.791 37.2213 21.9992C36.5242 23.0215 36.5242 24.2762 37.3839 25.2288C37.5698 25.4146 37.7324 25.647 37.8486 25.9026C38.7779 27.8542 40.4043 28.8765 42.356 29.5968C44.2148 30.2706 46.027 31.0141 47.8161 31.8273C51.1153 33.3375 52.8579 36.0327 53.0437 39.5643C53.2296 42.9797 53.0902 46.4184 53.0902 49.95C52.5094 49.95 51.975 49.95 51.2779 49.95C51.2779 47.6498 51.3012 45.3496 51.2779 43.0262C51.2547 41.6321 51.2082 40.2381 51.0688 38.8672C50.8133 36.6135 49.6283 34.8477 47.6069 33.8254C45.8644 32.9425 44.0056 32.2687 42.1934 31.502C41.1014 31.0373 40.0094 30.5726 38.7315 30.015C37.7324 31.0605 36.6636 32.1293 35.6646 33.2446C35.2231 33.7325 34.8049 33.8951 34.2937 33.4769C32.1097 31.7576 29.9257 31.804 27.7185 33.4537C27.1144 33.9184 26.6962 33.686 26.2547 33.1981C25.395 32.2687 24.4889 31.3626 23.5363 30.5029C23.3272 30.3171 22.8393 30.1776 22.5837 30.2938C20.33 31.1767 18.0995 32.1526 15.8458 33.0355C12.2677 34.4295 10.6646 37.1014 10.6878 40.8654C10.6646 43.8626 10.6646 46.883 10.6646 49.9964ZM38.7082 11.0791C38.0809 11.3812 37.6395 11.5206 37.2677 11.7762C36.3151 12.4499 35.409 12.4035 34.3867 11.9388C32.4118 11.0559 30.3207 10.4518 28.4155 9.45274C26.7194 8.56984 25.2556 8.75571 23.8384 9.82448C23.5595 10.0336 23.2575 10.4518 23.2343 10.7771C23.0252 13.7278 23.6989 16.5159 25.0233 19.1414C25.8365 20.7446 27.0214 21.8366 28.8569 21.883C30.6227 21.9295 32.3885 21.8598 34.1311 21.6507C34.7817 21.581 35.5484 21.0931 35.9434 20.5587C38.0345 17.8635 38.8244 14.7037 38.7082 11.0791ZM23.4666 7.87281C23.9081 7.6637 24.3495 7.5243 24.7213 7.26872C25.6274 6.66463 26.4871 6.66463 27.5326 7.10608C29.949 8.17486 32.4582 9.10422 34.9211 10.0801C35.6413 10.3821 38.2668 9.56891 38.6618 8.91835C38.7315 8.80218 38.7315 8.61631 38.7547 8.4769C38.8941 5.96761 37.291 3.31891 35.014 2.45924C32.435 1.48341 29.7863 1.50664 27.1841 2.36631C24.8142 3.15627 23.3737 5.38675 23.4666 7.87281ZM25.7668 27.0178C25.488 27.3895 25.0233 27.8542 24.7213 28.4118C24.6283 28.5977 24.8607 29.1089 25.093 29.3412C27.2073 31.6182 27.2305 31.6182 29.9489 30.2241C30.6692 29.8524 31.2268 29.8059 31.9703 30.1776C34.6887 31.5949 34.712 31.5717 36.8263 29.3412C37.0586 29.0856 37.3142 28.5048 37.198 28.3421C36.8263 27.831 36.1757 27.041 35.804 27.1107C32.5744 27.7845 29.3913 27.8775 26.2082 27.041C26.1618 27.0643 26.1153 27.0643 25.7668 27.0178ZM34.7817 23.7882C32.2027 23.7882 29.6934 23.7882 27.1608 23.7882C26.9517 25.2752 26.975 25.2055 28.4387 25.554C30.1348 25.949 31.7845 25.949 33.4573 25.554C34.9443 25.2055 34.9443 25.2752 34.7817 23.7882Z" fill="url(#paint0_linear_201_619)"/>
<path d="M44.0057 27.7148C43.6572 27.1572 43.3784 26.7157 43.0298 26.1581C44.3542 25.3449 45.6088 24.555 46.9332 23.7418C45.5159 21.4648 45.1674 19.0484 45.6553 16.4927C46.0503 14.4248 47.1888 13.0308 49.3263 12.7055C50.488 12.5196 51.7194 12.4732 52.8812 12.6358C55.2278 12.9843 56.4127 14.3319 56.831 16.6786C57.2724 19.1646 56.8774 21.5113 55.5298 23.7418C57.3886 24.8105 59.1776 25.8561 61.0131 26.8551C61.6404 27.2037 61.9193 27.5986 61.8263 28.3189C61.7799 28.8068 61.8263 29.318 61.8031 29.8291C61.7101 32.4313 60.502 33.5931 57.9462 33.5931C56.4127 33.5931 54.8561 33.5931 53.2297 33.5931C53.2297 33.0122 53.2297 32.501 53.2297 31.804C54.8328 31.804 56.436 31.7576 58.0391 31.8273C58.9917 31.8505 59.6655 31.5484 59.8049 30.5958C59.9676 29.62 60.3858 28.528 59.0382 27.9239C58.1553 27.5289 57.3421 27.0178 56.5289 26.5066C55.1813 25.6702 53.9499 24.9499 52.2074 25.7631C51.3942 26.1349 50.1395 25.5773 49.0707 25.4843C48.5828 25.4379 48.002 25.3914 47.607 25.6005C46.422 26.2046 45.2603 26.9481 44.0057 27.7148ZM50.9992 14.3087C49.8375 14.3551 48.3505 14.4248 47.7696 16.028C46.9564 18.2353 47.0958 20.4657 48.4434 22.4406C49.9769 24.6944 52.8579 24.555 54.2287 22.1851C55.0187 20.8142 55.2975 19.304 55.1116 17.7241C54.8328 15.1451 53.8802 14.3319 50.9992 14.3087Z" fill="url(#paint1_linear_201_619)"/>
<path d="M17.9369 27.6916C16.6358 26.9249 15.5205 26.1814 14.3124 25.5773C13.9174 25.3682 13.29 25.2985 12.8718 25.4611C11.3848 26.042 9.96756 26.0187 8.48057 25.4379C8.08558 25.2753 7.50473 25.2985 7.13298 25.5076C5.62276 26.2976 4.18224 27.2037 2.69525 27.9937C1.48707 28.6442 1.99822 29.6433 2.1144 30.5494C2.23057 31.4323 2.78819 31.8273 3.74079 31.8041C5.34395 31.7576 6.97034 31.7808 8.68967 31.7808C8.68967 32.3849 8.68967 32.8961 8.68967 33.5466C6.5986 33.5466 4.48428 33.6628 2.39321 33.4769C1.78912 33.4305 1.11532 32.6405 0.743577 32.0364C0.37183 31.4556 0.278893 30.6656 0.139488 29.9686C-0.209025 28.1331 0.302128 26.8552 2.20733 26.1117C3.64785 25.5308 4.94897 24.5782 6.41272 23.7418C4.99544 21.4648 4.64692 19.0485 5.15808 16.4927C5.50659 14.4016 6.64506 13.0076 8.78261 12.6823C9.94432 12.4964 11.1757 12.45 12.3374 12.6126C14.6841 12.9611 15.869 14.3087 16.2873 16.6554C16.7287 19.1414 16.3337 21.4881 14.9861 23.7186C16.2873 24.5085 17.5187 25.2753 18.8895 26.1117C18.5874 26.6228 18.2854 27.1108 17.9369 27.6916ZM10.6413 14.3087C8.85231 14.3087 7.80677 14.7966 7.24915 15.8422C6.29655 17.7009 6.71477 21.1628 8.10882 22.766C9.73521 24.6479 12.3374 24.4156 13.6386 22.2316C14.4518 20.8608 14.7306 19.3505 14.5447 17.7706C14.2659 15.1451 13.3133 14.3087 10.6413 14.3087Z" fill="url(#paint2_linear_201_619)"/>
<path d="M16.5893 42.4221C17.1469 42.4221 17.6581 42.4221 18.2622 42.4221C18.2622 44.9314 18.2622 47.4175 18.2622 49.95C17.7278 49.95 17.1934 49.95 16.5893 49.95C16.5893 47.4639 16.5893 44.9779 16.5893 42.4221Z" fill="url(#paint3_linear_201_619)"/>
<path d="M45.3532 49.9732C44.7956 49.9732 44.2844 49.9732 43.6804 49.9732C43.6804 47.4639 43.6804 44.9778 43.6804 42.4453C44.2147 42.4453 44.7491 42.4453 45.3532 42.4453C45.3532 44.9081 45.3532 47.4174 45.3532 49.9732Z" fill="url(#paint4_linear_201_619)"/>
<path d="M31.9006 34.7781C31.9006 35.3357 31.9006 35.8236 31.9006 36.4045C31.2965 36.4045 30.7157 36.4045 30.0651 36.4045C30.0651 35.8701 30.0651 35.3589 30.0651 34.7781C30.6692 34.7781 31.2036 34.7781 31.9006 34.7781Z" fill="url(#paint5_linear_201_619)"/>
<path d="M31.8542 40.2845C31.2501 40.2845 30.6924 40.2845 30.0651 40.2845C30.0651 39.7036 30.0651 39.1925 30.0651 38.5884C30.646 38.5884 31.2036 38.5884 31.8542 38.5884C31.8542 39.0995 31.8542 39.6107 31.8542 40.2845Z" fill="url(#paint6_linear_201_619)"/>
</g>
<defs>
<linearGradient id="paint0_linear_201_619" x1="12.4627" y1="25.5537" x2="53.1404" y2="25.5537" gradientUnits="userSpaceOnUse">
<stop stop-color="#F14950"/>
<stop offset="0.632812" stop-color="#DA1C21"/>
</linearGradient>
<linearGradient id="paint1_linear_201_619" x1="44.5636" y1="23.2987" x2="61.8438" y2="23.2987" gradientUnits="userSpaceOnUse">
<stop stop-color="#F14950"/>
<stop offset="0.632812" stop-color="#DA1C21"/>
</linearGradient>
<linearGradient id="paint2_linear_201_619" x1="1.57444" y1="23.2819" x2="18.8895" y2="23.2819" gradientUnits="userSpaceOnUse">
<stop stop-color="#F14950"/>
<stop offset="0.632812" stop-color="#DA1C21"/>
</linearGradient>
<linearGradient id="paint3_linear_201_619" x1="16.7257" y1="46.2697" x2="18.2622" y2="46.2697" gradientUnits="userSpaceOnUse">
<stop stop-color="#F14950"/>
<stop offset="0.632812" stop-color="#DA1C21"/>
</linearGradient>
<linearGradient id="paint4_linear_201_619" x1="43.8167" y1="46.2929" x2="45.3532" y2="46.2929" gradientUnits="userSpaceOnUse">
<stop stop-color="#F14950"/>
<stop offset="0.632812" stop-color="#DA1C21"/>
</linearGradient>
<linearGradient id="paint5_linear_201_619" x1="30.2148" y1="35.6093" x2="31.9006" y2="35.6093" gradientUnits="userSpaceOnUse">
<stop stop-color="#F14950"/>
<stop offset="0.632812" stop-color="#DA1C21"/>
</linearGradient>
<linearGradient id="paint6_linear_201_619" x1="30.211" y1="39.4553" x2="31.8542" y2="39.4553" gradientUnits="userSpaceOnUse">
<stop stop-color="#F14950"/>
<stop offset="0.632812" stop-color="#DA1C21"/>
</linearGradient>
<clipPath id="clip0_201_619">
<rect width="61.8727" height="50" fill="white"/>
</clipPath>
</defs>
</svg>
