<svg width="318" height="46" viewBox="0 0 318 46" fill="none" xmlns="http://www.w3.org/2000/svg">
<circle cx="304.5" cy="23.5" r="12.5" fill="#F4F7F8" stroke="url(#paint0_linear_877_4014)" stroke-width="2"/>
<circle cx="304.5" cy="23.4998" r="6.23077" fill="url(#paint1_linear_877_4014)"/>
<line x1="292" y1="24" x2="222" y2="24" stroke="url(#paint2_linear_877_4014)" stroke-width="2"/>
<path d="M219.866 6.95689L224.297 20.8261C225.07 23.2455 224.893 25.8683 223.803 28.1622L218.037 40.2929C216.38 43.7788 212.865 46 209.005 46H19.0287C15.597 46 12.405 44.2403 10.573 41.3385L3.14839 29.5786C1.20579 26.5017 1.08791 22.6124 2.84058 19.4235L10.6671 5.18342C12.4242 1.98648 15.7827 0 19.4307 0H210.341C214.691 0 218.542 2.81273 219.866 6.95689Z" fill="url(#paint3_linear_877_4014)"/>
<path d="M20.3815 5H35.1331C36.9749 5 38.6676 6.01256 39.5386 7.6354L46.7021 20.9819C47.5105 22.488 47.4935 24.3027 46.657 25.7933L39.5568 38.4468C38.6719 40.0237 37.0046 41 35.1964 41H20.3172C18.5545 41 16.9221 40.0718 16.0206 38.5571L8.48857 25.9012C7.56846 24.3552 7.5499 22.434 8.43995 20.8705L16.0363 7.5264C16.9254 5.96454 18.5843 5 20.3815 5Z" fill="white"/>
<path d="M34.5391 29.9375H33.875V14.7969C33.875 14.3568 33.5182 14 33.0781 14H21.9219C21.4818 14 21.125 14.3568 21.125 14.7969V29.9375H20.4609C20.2409 29.9375 20.0625 30.1159 20.0625 30.3359V31H34.9375V30.3359C34.9375 30.1159 34.7591 29.9375 34.5391 29.9375ZM24.3125 16.5234C24.3125 16.3034 24.4909 16.125 24.7109 16.125H26.0391C26.2591 16.125 26.4375 16.3034 26.4375 16.5234V17.8516C26.4375 18.0716 26.2591 18.25 26.0391 18.25H24.7109C24.4909 18.25 24.3125 18.0716 24.3125 17.8516V16.5234ZM24.3125 19.7109C24.3125 19.4909 24.4909 19.3125 24.7109 19.3125H26.0391C26.2591 19.3125 26.4375 19.4909 26.4375 19.7109V21.0391C26.4375 21.2591 26.2591 21.4375 26.0391 21.4375H24.7109C24.4909 21.4375 24.3125 21.2591 24.3125 21.0391V19.7109ZM26.0391 24.625H24.7109C24.4909 24.625 24.3125 24.4466 24.3125 24.2266V22.8984C24.3125 22.6784 24.4909 22.5 24.7109 22.5H26.0391C26.2591 22.5 26.4375 22.6784 26.4375 22.8984V24.2266C26.4375 24.4466 26.2591 24.625 26.0391 24.625ZM28.5625 29.9375H26.4375V27.1484C26.4375 26.9284 26.6159 26.75 26.8359 26.75H28.1641C28.3841 26.75 28.5625 26.9284 28.5625 27.1484V29.9375ZM30.6875 24.2266C30.6875 24.4466 30.5091 24.625 30.2891 24.625H28.9609C28.7409 24.625 28.5625 24.4466 28.5625 24.2266V22.8984C28.5625 22.6784 28.7409 22.5 28.9609 22.5H30.2891C30.5091 22.5 30.6875 22.6784 30.6875 22.8984V24.2266ZM30.6875 21.0391C30.6875 21.2591 30.5091 21.4375 30.2891 21.4375H28.9609C28.7409 21.4375 28.5625 21.2591 28.5625 21.0391V19.7109C28.5625 19.4909 28.7409 19.3125 28.9609 19.3125H30.2891C30.5091 19.3125 30.6875 19.4909 30.6875 19.7109V21.0391ZM30.6875 17.8516C30.6875 18.0716 30.5091 18.25 30.2891 18.25H28.9609C28.7409 18.25 28.5625 18.0716 28.5625 17.8516V16.5234C28.5625 16.3034 28.7409 16.125 28.9609 16.125H30.2891C30.5091 16.125 30.6875 16.3034 30.6875 16.5234V17.8516Z" fill="#35AC55"/>
<defs>
<linearGradient id="paint0_linear_877_4014" x1="293.201" y1="23.8" x2="318" y2="23.8" gradientUnits="userSpaceOnUse">
<stop stop-color="#60CA77"/>
<stop offset="0.632812" stop-color="#35AC55"/>
</linearGradient>
<linearGradient id="paint1_linear_877_4014" x1="299.285" y1="23.6383" x2="310.731" y2="23.6383" gradientUnits="userSpaceOnUse">
<stop stop-color="#60CA77"/>
<stop offset="0.632812" stop-color="#35AC55"/>
</linearGradient>
<linearGradient id="paint2_linear_877_4014" x1="286.293" y1="22.4889" x2="222" y2="22.4889" gradientUnits="userSpaceOnUse">
<stop stop-color="#60CA77"/>
<stop offset="0.632812" stop-color="#35AC55"/>
</linearGradient>
<linearGradient id="paint3_linear_877_4014" x1="18.3831" y1="23.5111" x2="225.5" y2="23.5111" gradientUnits="userSpaceOnUse">
<stop stop-color="#60CA77"/>
<stop offset="0.632812" stop-color="#35AC55"/>
</linearGradient>
</defs>
</svg>
