<svg width="319" height="46" viewBox="0 0 319 46" fill="none" xmlns="http://www.w3.org/2000/svg">
<circle r="12.5" transform="matrix(-1 0 0 1 13.5 23.5)" fill="#F4F7F8" stroke="url(#paint0_linear_878_4035)" stroke-width="2"/>
<circle r="6.23077" transform="matrix(-1 0 0 1 13.5 23.4999)" fill="url(#paint1_linear_878_4035)"/>
<line y1="-1" x2="70" y2="-1" transform="matrix(1 -8.74228e-08 -8.74228e-08 -1 26 23)" stroke="url(#paint2_linear_878_4035)" stroke-width="2"/>
<path d="M99.1337 6.95689L94.703 20.8261C93.9301 23.2455 94.1068 25.8683 95.1971 28.1622L100.963 40.2929C102.62 43.7788 106.135 46 109.995 46H299.971C303.403 46 306.595 44.2403 308.427 41.3385L315.852 29.5786C317.794 26.5017 317.912 22.6124 316.159 19.4235L308.333 5.18342C306.576 1.98648 303.217 0 299.569 0H108.659C104.309 0 100.458 2.81273 99.1337 6.95689Z" fill="url(#paint3_linear_878_4035)"/>
<path d="M298.618 5H283.867C282.025 5 280.332 6.01256 279.461 7.6354L272.298 20.9819C271.489 22.488 271.507 24.3027 272.343 25.7933L279.443 38.4468C280.328 40.0237 281.995 41 283.804 41H298.683C300.445 41 302.078 40.0718 302.979 38.5571L310.511 25.9012C311.432 24.3552 311.45 22.434 310.56 20.8705L302.964 7.5264C302.075 5.96454 300.416 5 298.618 5Z" fill="white"/>
<path d="M298.188 12H285.812C284.674 12 283.75 12.9238 283.75 14.0625V31.9375C283.75 33.0762 284.674 34 285.812 34H298.188C299.326 34 300.25 33.0762 300.25 31.9375V14.0625C300.25 12.9238 299.326 12 298.188 12ZM289.938 13.375H294.062C294.441 13.375 294.75 13.6844 294.75 14.0625C294.75 14.4406 294.441 14.75 294.062 14.75H289.938C289.559 14.75 289.25 14.4406 289.25 14.0625C289.25 13.6844 289.559 13.375 289.938 13.375ZM292 18.875C293.517 18.875 294.75 20.1082 294.75 21.625C294.75 23.1418 293.517 24.375 292 24.375C290.483 24.375 289.25 23.1418 289.25 21.625C289.25 20.1082 290.483 18.875 292 18.875ZM296.812 29.05C296.812 29.5055 296.383 29.875 295.85 29.875H288.15C287.617 29.875 287.188 29.5055 287.188 29.05V28.225C287.188 26.8586 288.481 25.75 290.075 25.75H290.29C290.818 25.9691 291.394 26.0938 292 26.0938C292.606 26.0938 293.186 25.9691 293.71 25.75H293.925C295.519 25.75 296.812 26.8586 296.812 28.225V29.05Z" fill="#844189"/>
<defs>
<linearGradient id="paint0_linear_878_4035" x1="2.20109" y1="13.8" x2="27" y2="13.8" gradientUnits="userSpaceOnUse">
<stop stop-color="#803D85"/>
<stop offset="0.632812" stop-color="#B875B8"/>
</linearGradient>
<linearGradient id="paint1_linear_878_4035" x1="1.01589" y1="6.36923" x2="12.4615" y2="6.36923" gradientUnits="userSpaceOnUse">
<stop stop-color="#803D85"/>
<stop offset="0.632812" stop-color="#B875B8"/>
</linearGradient>
<linearGradient id="paint2_linear_878_4035" x1="5.70652" y1="0.511111" x2="70" y2="0.511076" gradientUnits="userSpaceOnUse">
<stop stop-color="#803D85"/>
<stop offset="0.632812" stop-color="#B875B8"/>
</linearGradient>
<linearGradient id="paint3_linear_878_4035" x1="300.617" y1="23.5111" x2="93.5" y2="23.5111" gradientUnits="userSpaceOnUse">
<stop stop-color="#803D85"/>
<stop offset="0.632812" stop-color="#B875B8"/>
</linearGradient>
</defs>
</svg>
