<svg width="318" height="46" viewBox="0 0 318 46" fill="none" xmlns="http://www.w3.org/2000/svg">
<circle cx="304.5" cy="23.5" r="12.5" fill="#F4F7F8" stroke="url(#paint0_linear_878_4037)" stroke-width="2"/>
<circle cx="304.5" cy="23.4999" r="6.23077" fill="url(#paint1_linear_878_4037)"/>
<line x1="292" y1="24" x2="222" y2="24" stroke="url(#paint2_linear_878_4037)" stroke-width="2"/>
<path d="M219.866 6.95689L224.297 20.8261C225.07 23.2455 224.893 25.8683 223.803 28.1622L218.037 40.2929C216.38 43.7788 212.865 46 209.005 46H19.0287C15.597 46 12.405 44.2403 10.573 41.3385L3.14839 29.5786C1.20579 26.5017 1.08791 22.6124 2.84058 19.4235L10.6671 5.18342C12.4242 1.98648 15.7827 0 19.4307 0H210.341C214.691 0 218.542 2.81273 219.866 6.95689Z" fill="url(#paint3_linear_878_4037)"/>
<path d="M20.3815 5H35.1331C36.9749 5 38.6676 6.01256 39.5386 7.6354L46.7021 20.9819C47.5105 22.488 47.4935 24.3027 46.657 25.7933L39.5568 38.4468C38.6719 40.0237 37.0046 41 35.1964 41H20.3172C18.5545 41 16.9221 40.0718 16.0206 38.5571L8.48857 25.9012C7.56846 24.3552 7.5499 22.434 8.43995 20.8705L16.0363 7.5264C16.9254 5.96454 18.5843 5 20.3815 5Z" fill="white"/>
<g clip-path="url(#clip0_878_4037)">
<path d="M24.3329 29.422C24.2202 29.1958 24.0239 29.1729 23.9444 29.1729C23.865 29.1729 23.6687 29.1955 23.5617 29.4094L23.2688 29.9953C23.0255 30.4834 22.3128 30.4295 22.1428 29.9154L21.5 27.9878L21.0948 29.2054C20.8698 29.8799 20.24 30.3333 19.5288 30.3333H19.0556C18.7179 30.3333 18.4444 30.0598 18.4444 29.7222C18.4444 29.3845 18.7179 29.1111 19.0556 29.1111H19.5288C19.7133 29.1111 19.8767 28.9934 19.9352 28.8185L20.6299 26.7315C20.756 26.3569 21.1051 26.1048 21.5 26.1048C21.8949 26.1048 22.244 26.3565 22.3697 26.7315L22.8998 28.322C23.6542 27.7036 24.9646 27.9515 25.4207 28.8628C25.4928 29.0072 25.6303 29.09 25.7782 29.1019V25.9654L30.667 21.1112V19.3333H25.4722C24.9681 19.3333 24.5556 18.9208 24.5556 18.4166V13.2222H16.9167C16.4087 13.2222 16 13.6308 16 14.1388V31.8611C16 32.369 16.4087 32.7777 16.9167 32.7777H29.75C30.258 32.7777 30.6667 32.369 30.6667 31.8611V30.3333L25.7778 30.3291C25.1621 30.3172 24.6098 29.9746 24.3329 29.422ZM30.6667 17.8781C30.6667 17.6374 30.5712 17.4045 30.3993 17.2326L26.6601 13.4895C26.4882 13.3177 26.2552 13.2222 26.0108 13.2222H25.7778V18.1111H30.6667V17.8781ZM27 26.4741V29.1111H29.635L35.8103 22.8938L33.2177 20.3011L27 26.4741ZM37.7151 19.6132L36.4978 18.396C36.1182 18.0163 35.5021 18.0163 35.1224 18.396L34.0816 19.4368L36.6743 22.0294L37.7151 20.9886C38.0951 20.609 38.0951 19.9929 37.7151 19.6132Z" fill="#6771DC"/>
</g>
<defs>
<linearGradient id="paint0_linear_878_4037" x1="293.201" y1="23.8" x2="318" y2="23.8" gradientUnits="userSpaceOnUse">
<stop stop-color="#6C78E2"/>
<stop offset="0.632812" stop-color="#4138A4"/>
</linearGradient>
<linearGradient id="paint1_linear_878_4037" x1="299.285" y1="23.6384" x2="310.731" y2="23.6384" gradientUnits="userSpaceOnUse">
<stop stop-color="#6C78E2"/>
<stop offset="0.632812" stop-color="#4138A4"/>
</linearGradient>
<linearGradient id="paint2_linear_878_4037" x1="286.293" y1="22.4889" x2="222" y2="22.4889" gradientUnits="userSpaceOnUse">
<stop stop-color="#6C78E2"/>
<stop offset="0.632812" stop-color="#4138A4"/>
</linearGradient>
<linearGradient id="paint3_linear_878_4037" x1="18.3831" y1="23.5111" x2="225.5" y2="23.5111" gradientUnits="userSpaceOnUse">
<stop stop-color="#6C78E2"/>
<stop offset="0.632812" stop-color="#4138A4"/>
</linearGradient>
<clipPath id="clip0_878_4037">
<rect width="22" height="22" fill="white" transform="translate(16 12)"/>
</clipPath>
</defs>
</svg>
