<svg width="319" height="46" viewBox="0 0 319 46" fill="none" xmlns="http://www.w3.org/2000/svg">
<circle r="12.5" transform="matrix(-1 0 0 1 13.5 23.5)" fill="#F4F7F8" stroke="url(#paint0_linear_882_4010)" stroke-width="2"/>
<circle r="6.23077" transform="matrix(-1 0 0 1 13.5 23.4999)" fill="url(#paint1_linear_882_4010)"/>
<line y1="-1" x2="70" y2="-1" transform="matrix(1 -8.74228e-08 -8.74228e-08 -1 26 23)" stroke="url(#paint2_linear_882_4010)" stroke-width="2"/>
<path d="M99.1337 6.95689L94.703 20.8261C93.9301 23.2455 94.1068 25.8683 95.1971 28.1622L100.963 40.2929C102.62 43.7788 106.135 46 109.995 46H299.971C303.403 46 306.595 44.2403 308.427 41.3385L315.852 29.5786C317.794 26.5017 317.912 22.6124 316.159 19.4235L308.333 5.18342C306.576 1.98648 303.217 0 299.569 0H108.659C104.309 0 100.458 2.81273 99.1337 6.95689Z" fill="url(#paint3_linear_882_4010)"/>
<path d="M298.618 5H283.867C282.025 5 280.332 6.01256 279.461 7.6354L272.298 20.9819C271.489 22.488 271.507 24.3027 272.343 25.7933L279.443 38.4468C280.328 40.0237 281.995 41 283.804 41H298.683C300.445 41 302.078 40.0718 302.979 38.5571L310.511 25.9012C311.432 24.3552 311.45 22.434 310.56 20.8705L302.964 7.5264C302.075 5.96454 300.416 5 298.618 5Z" fill="white"/>
<path d="M302.175 20.8H297.5V15.025C297.5 14.5692 297.131 14.2 296.675 14.2H291.725C291.269 14.2 290.9 14.5692 290.9 15.025V17.5H288.7V14.75C288.7 14.4461 288.454 14.2 288.15 14.2H287.6C287.296 14.2 287.05 14.4461 287.05 14.75V17.5H284.85V14.75C284.85 14.4461 284.604 14.2 284.3 14.2H283.75C283.446 14.2 283.2 14.4461 283.2 14.75V17.5H281.825C281.369 17.5 281 17.8692 281 18.325V30.7C281 31.3074 281.493 31.8 282.1 31.8H301.9C302.507 31.8 303 31.3074 303 30.7V21.625C303 21.1692 302.63 20.8 302.175 20.8ZM285.4 28.0875C285.4 28.3154 285.215 28.5 284.988 28.5H283.612C283.385 28.5 283.2 28.3154 283.2 28.0875V26.7125C283.2 26.4846 283.385 26.3 283.612 26.3H284.988C285.215 26.3 285.4 26.4846 285.4 26.7125V28.0875ZM285.4 24.7875C285.4 25.0154 285.215 25.2 284.988 25.2H283.612C283.385 25.2 283.2 25.0154 283.2 24.7875V23.4125C283.2 23.1846 283.385 23 283.612 23H284.988C285.215 23 285.4 23.1846 285.4 23.4125V24.7875ZM285.4 21.4875C285.4 21.7154 285.215 21.9 284.988 21.9H283.612C283.385 21.9 283.2 21.7154 283.2 21.4875V20.1125C283.2 19.8846 283.385 19.7 283.612 19.7H284.988C285.215 19.7 285.4 19.8846 285.4 20.1125V21.4875ZM289.8 28.0875C289.8 28.3154 289.615 28.5 289.387 28.5H288.013C287.785 28.5 287.6 28.3154 287.6 28.0875V26.7125C287.6 26.4846 287.785 26.3 288.013 26.3H289.387C289.615 26.3 289.8 26.4846 289.8 26.7125V28.0875ZM289.8 24.7875C289.8 25.0154 289.615 25.2 289.387 25.2H288.013C287.785 25.2 287.6 25.0154 287.6 24.7875V23.4125C287.6 23.1846 287.785 23 288.013 23H289.387C289.615 23 289.8 23.1846 289.8 23.4125V24.7875ZM289.8 21.4875C289.8 21.7154 289.615 21.9 289.387 21.9H288.013C287.785 21.9 287.6 21.7154 287.6 21.4875V20.1125C287.6 19.8846 287.785 19.7 288.013 19.7H289.387C289.615 19.7 289.8 19.8846 289.8 20.1125V21.4875ZM295.3 24.7875C295.3 25.0154 295.115 25.2 294.888 25.2H293.512C293.285 25.2 293.1 25.0154 293.1 24.7875V23.4125C293.1 23.1846 293.285 23 293.512 23H294.888C295.115 23 295.3 23.1846 295.3 23.4125V24.7875ZM295.3 21.4875C295.3 21.7154 295.115 21.9 294.888 21.9H293.512C293.285 21.9 293.1 21.7154 293.1 21.4875V20.1125C293.1 19.8846 293.285 19.7 293.512 19.7H294.888C295.115 19.7 295.3 19.8846 295.3 20.1125V21.4875ZM295.3 18.1875C295.3 18.4154 295.115 18.6 294.888 18.6H293.512C293.285 18.6 293.1 18.4154 293.1 18.1875V16.8125C293.1 16.5846 293.285 16.4 293.512 16.4H294.888C295.115 16.4 295.3 16.5846 295.3 16.8125V18.1875ZM300.8 28.0875C300.8 28.3154 300.615 28.5 300.388 28.5H299.013C298.785 28.5 298.6 28.3154 298.6 28.0875V26.7125C298.6 26.4846 298.785 26.3 299.013 26.3H300.388C300.615 26.3 300.8 26.4846 300.8 26.7125V28.0875ZM300.8 24.7875C300.8 25.0154 300.615 25.2 300.388 25.2H299.013C298.785 25.2 298.6 25.0154 298.6 24.7875V23.4125C298.6 23.1846 298.785 23 299.013 23H300.388C300.615 23 300.8 23.1846 300.8 23.4125V24.7875Z" fill="#EB4448"/>
<defs>
<linearGradient id="paint0_linear_882_4010" x1="2.20109" y1="13.8" x2="27" y2="13.8" gradientUnits="userSpaceOnUse">
<stop stop-color="#F14950"/>
<stop offset="0.632812" stop-color="#DA1C21"/>
</linearGradient>
<linearGradient id="paint1_linear_882_4010" x1="1.01589" y1="6.36923" x2="12.4615" y2="6.36923" gradientUnits="userSpaceOnUse">
<stop stop-color="#F14950"/>
<stop offset="0.632812" stop-color="#DA1C21"/>
</linearGradient>
<linearGradient id="paint2_linear_882_4010" x1="5.70652" y1="0.511111" x2="70" y2="0.511076" gradientUnits="userSpaceOnUse">
<stop stop-color="#F14950"/>
<stop offset="0.632812" stop-color="#DA1C21"/>
</linearGradient>
<linearGradient id="paint3_linear_882_4010" x1="300.617" y1="23.5111" x2="93.5" y2="23.5111" gradientUnits="userSpaceOnUse">
<stop stop-color="#F14950"/>
<stop offset="0.632812" stop-color="#DA1C21"/>
</linearGradient>
</defs>
</svg>
