<svg width="319" height="46" viewBox="0 0 319 46" fill="none" xmlns="http://www.w3.org/2000/svg">
<circle r="12.5" transform="matrix(-1 0 0 1 13.5 23.5)" fill="#F4F7F8" stroke="url(#paint0_linear_878_4017)" stroke-width="2"/>
<circle r="6.23077" transform="matrix(-1 0 0 1 13.5 23.4998)" fill="url(#paint1_linear_878_4017)"/>
<line y1="-1" x2="70" y2="-1" transform="matrix(1 -8.74228e-08 -8.74228e-08 -1 26 23)" stroke="url(#paint2_linear_878_4017)" stroke-width="2"/>
<path d="M99.1337 6.95689L94.703 20.8261C93.9301 23.2455 94.1068 25.8683 95.1971 28.1622L100.963 40.2929C102.62 43.7788 106.135 46 109.995 46H299.971C303.403 46 306.595 44.2403 308.427 41.3385L315.852 29.5786C317.794 26.5017 317.912 22.6124 316.159 19.4235L308.333 5.18342C306.576 1.98648 303.217 0 299.569 0H108.659C104.309 0 100.458 2.81273 99.1337 6.95689Z" fill="url(#paint3_linear_878_4017)"/>
<path d="M298.618 5H283.867C282.025 5 280.332 6.01256 279.461 7.6354L272.298 20.9819C271.489 22.488 271.507 24.3027 272.343 25.7933L279.443 38.4468C280.328 40.0237 281.995 41 283.804 41H298.683C300.445 41 302.078 40.0718 302.979 38.5571L310.511 25.9012C311.432 24.3552 311.45 22.434 310.56 20.8705L302.964 7.5264C302.075 5.96454 300.416 5 298.618 5Z" fill="white"/>
<path d="M295.98 15H292.625C292.312 15 292.012 15.1172 291.781 15.3281L287.941 18.8437C287.938 18.8477 287.934 18.8555 287.93 18.8594C287.281 19.4688 287.293 20.4414 287.848 21.0469C288.344 21.5898 289.387 21.7344 290.039 21.1523C290.043 21.1484 290.051 21.1484 290.055 21.1445L293.176 18.2852C293.43 18.0547 293.828 18.0703 294.059 18.3242C294.293 18.5781 294.273 18.9727 294.02 19.207L293 20.1406L298.688 24.7578C298.801 24.8516 298.902 24.9531 298.996 25.0586V17.5L296.863 15.3672C296.633 15.1328 296.312 15 295.98 15ZM300.25 17.5078V26.2539C300.25 26.9453 300.809 27.5039 301.5 27.5039H304V17.5078H300.25ZM302.125 26.2539C301.781 26.2539 301.5 25.9727 301.5 25.6289C301.5 25.2852 301.781 25.0039 302.125 25.0039C302.469 25.0039 302.75 25.2852 302.75 25.6289C302.75 25.9727 302.469 26.2539 302.125 26.2539ZM279 27.5H281.5C282.191 27.5 282.75 26.9414 282.75 26.25V17.5078H279V27.5ZM280.875 25.0039C281.219 25.0039 281.5 25.2852 281.5 25.6289C281.5 25.9727 281.219 26.2539 280.875 26.2539C280.531 26.2539 280.25 25.9727 280.25 25.6289C280.25 25.2812 280.531 25.0039 280.875 25.0039ZM297.902 25.7305L292.07 20.9961L290.898 22.0703C289.738 23.1289 287.961 23.0273 286.926 21.8984C285.875 20.75 285.957 18.9727 287.098 17.9258L290.293 15H287.02C286.688 15 286.371 15.1328 286.137 15.3672L284 17.5V26.2461H284.715L288.25 29.4453C289.32 30.3164 290.895 30.1523 291.766 29.082L291.773 29.0742L292.473 29.6797C293.094 30.1875 294.012 30.0898 294.516 29.4688L295.742 27.9609L295.953 28.1328C296.488 28.5664 297.277 28.4883 297.711 27.9492L298.082 27.4922C298.52 26.9531 298.438 26.168 297.902 25.7305Z" fill="#55ABA2"/>
<defs>
<linearGradient id="paint0_linear_878_4017" x1="2.20109" y1="13.8" x2="27" y2="13.8" gradientUnits="userSpaceOnUse">
<stop stop-color="#5FD3C7"/>
<stop offset="0.632812" stop-color="#55ABA2"/>
</linearGradient>
<linearGradient id="paint1_linear_878_4017" x1="1.01589" y1="6.36923" x2="12.4615" y2="6.36923" gradientUnits="userSpaceOnUse">
<stop stop-color="#5FD3C7"/>
<stop offset="0.632812" stop-color="#55ABA2"/>
</linearGradient>
<linearGradient id="paint2_linear_878_4017" x1="5.70652" y1="0.511111" x2="70" y2="0.511076" gradientUnits="userSpaceOnUse">
<stop stop-color="#5FD3C7"/>
<stop offset="0.632812" stop-color="#55ABA2"/>
</linearGradient>
<linearGradient id="paint3_linear_878_4017" x1="300.617" y1="23.5111" x2="93.5" y2="23.5111" gradientUnits="userSpaceOnUse">
<stop stop-color="#5FD3C7"/>
<stop offset="0.632812" stop-color="#55ABA2"/>
</linearGradient>
</defs>
</svg>
