<svg width="318" height="46" viewBox="0 0 318 46" fill="none" xmlns="http://www.w3.org/2000/svg">
<circle cx="304.5" cy="23.5" r="12.5" fill="#F4F7F8" stroke="url(#paint0_linear_878_4020)" stroke-width="2"/>
<circle cx="304.5" cy="23.4999" r="6.23077" fill="url(#paint1_linear_878_4020)"/>
<line x1="292" y1="24" x2="222" y2="24" stroke="url(#paint2_linear_878_4020)" stroke-width="2"/>
<path d="M219.866 6.95689L224.297 20.8261C225.07 23.2455 224.893 25.8683 223.803 28.1622L218.037 40.2929C216.38 43.7788 212.865 46 209.005 46H19.0287C15.597 46 12.405 44.2403 10.573 41.3385L3.14839 29.5786C1.20579 26.5017 1.08791 22.6124 2.84058 19.4235L10.6671 5.18342C12.4242 1.98648 15.7827 0 19.4307 0H210.341C214.691 0 218.542 2.81273 219.866 6.95689Z" fill="url(#paint3_linear_878_4020)"/>
<path d="M20.3815 5H35.1331C36.9749 5 38.6676 6.01256 39.5386 7.6354L46.7021 20.9819C47.5105 22.488 47.4935 24.3027 46.657 25.7933L39.5568 38.4468C38.6719 40.0237 37.0046 41 35.1964 41H20.3172C18.5545 41 16.9221 40.0718 16.0206 38.5571L8.48857 25.9012C7.56846 24.3552 7.5499 22.434 8.43995 20.8705L16.0363 7.5264C16.9254 5.96454 18.5843 5 20.3815 5Z" fill="white"/>
<path d="M37.175 20.8H32.5V15.025C32.5 14.5691 32.1308 14.2 31.675 14.2H26.725C26.2692 14.2 25.9 14.5691 25.9 15.025V17.5H23.7V14.75C23.7 14.4461 23.4539 14.2 23.15 14.2H22.6C22.2961 14.2 22.05 14.4461 22.05 14.75V17.5H19.85V14.75C19.85 14.4461 19.6039 14.2 19.3 14.2H18.75C18.4461 14.2 18.2 14.4461 18.2 14.75V17.5H16.825C16.3692 17.5 16 17.8691 16 18.325V30.7C16 31.3074 16.4926 31.8 17.1 31.8H36.9C37.5074 31.8 38 31.3074 38 30.7V21.625C38 21.1691 37.6305 20.8 37.175 20.8ZM20.4 28.0875C20.4 28.3154 20.2154 28.5 19.9875 28.5H18.6125C18.3846 28.5 18.2 28.3154 18.2 28.0875V26.7125C18.2 26.4845 18.3846 26.3 18.6125 26.3H19.9875C20.2154 26.3 20.4 26.4845 20.4 26.7125V28.0875ZM20.4 24.7875C20.4 25.0154 20.2154 25.2 19.9875 25.2H18.6125C18.3846 25.2 18.2 25.0154 18.2 24.7875V23.4125C18.2 23.1845 18.3846 23 18.6125 23H19.9875C20.2154 23 20.4 23.1845 20.4 23.4125V24.7875ZM20.4 21.4875C20.4 21.7154 20.2154 21.9 19.9875 21.9H18.6125C18.3846 21.9 18.2 21.7154 18.2 21.4875V20.1125C18.2 19.8845 18.3846 19.7 18.6125 19.7H19.9875C20.2154 19.7 20.4 19.8845 20.4 20.1125V21.4875ZM24.8 28.0875C24.8 28.3154 24.6154 28.5 24.3875 28.5H23.0125C22.7846 28.5 22.6 28.3154 22.6 28.0875V26.7125C22.6 26.4845 22.7846 26.3 23.0125 26.3H24.3875C24.6154 26.3 24.8 26.4845 24.8 26.7125V28.0875ZM24.8 24.7875C24.8 25.0154 24.6154 25.2 24.3875 25.2H23.0125C22.7846 25.2 22.6 25.0154 22.6 24.7875V23.4125C22.6 23.1845 22.7846 23 23.0125 23H24.3875C24.6154 23 24.8 23.1845 24.8 23.4125V24.7875ZM24.8 21.4875C24.8 21.7154 24.6154 21.9 24.3875 21.9H23.0125C22.7846 21.9 22.6 21.7154 22.6 21.4875V20.1125C22.6 19.8845 22.7846 19.7 23.0125 19.7H24.3875C24.6154 19.7 24.8 19.8845 24.8 20.1125V21.4875ZM30.3 24.7875C30.3 25.0154 30.1154 25.2 29.8875 25.2H28.5125C28.2846 25.2 28.1 25.0154 28.1 24.7875V23.4125C28.1 23.1845 28.2846 23 28.5125 23H29.8875C30.1154 23 30.3 23.1845 30.3 23.4125V24.7875ZM30.3 21.4875C30.3 21.7154 30.1154 21.9 29.8875 21.9H28.5125C28.2846 21.9 28.1 21.7154 28.1 21.4875V20.1125C28.1 19.8845 28.2846 19.7 28.5125 19.7H29.8875C30.1154 19.7 30.3 19.8845 30.3 20.1125V21.4875ZM30.3 18.1875C30.3 18.4154 30.1154 18.6 29.8875 18.6H28.5125C28.2846 18.6 28.1 18.4154 28.1 18.1875V16.8125C28.1 16.5845 28.2846 16.4 28.5125 16.4H29.8875C30.1154 16.4 30.3 16.5845 30.3 16.8125V18.1875ZM35.8 28.0875C35.8 28.3154 35.6154 28.5 35.3875 28.5H34.0125C33.7846 28.5 33.6 28.3154 33.6 28.0875V26.7125C33.6 26.4845 33.7846 26.3 34.0125 26.3H35.3875C35.6154 26.3 35.8 26.4845 35.8 26.7125V28.0875ZM35.8 24.7875C35.8 25.0154 35.6154 25.2 35.3875 25.2H34.0125C33.7846 25.2 33.6 25.0154 33.6 24.7875V23.4125C33.6 23.1845 33.7846 23 34.0125 23H35.3875C35.6154 23 35.8 23.1845 35.8 23.4125V24.7875Z" fill="#6ABBD2"/>
<defs>
<linearGradient id="paint0_linear_878_4020" x1="293.201" y1="23.8" x2="318" y2="23.8" gradientUnits="userSpaceOnUse">
<stop stop-color="#6DBCD2"/>
<stop offset="0.632812" stop-color="#4AB7D8"/>
</linearGradient>
<linearGradient id="paint1_linear_878_4020" x1="299.285" y1="23.6384" x2="310.731" y2="23.6384" gradientUnits="userSpaceOnUse">
<stop stop-color="#6DBCD2"/>
<stop offset="0.632812" stop-color="#4AB7D8"/>
</linearGradient>
<linearGradient id="paint2_linear_878_4020" x1="286.293" y1="22.4889" x2="222" y2="22.4889" gradientUnits="userSpaceOnUse">
<stop stop-color="#6DBCD2"/>
<stop offset="0.632812" stop-color="#4AB7D8"/>
</linearGradient>
<linearGradient id="paint3_linear_878_4020" x1="18.3831" y1="23.5111" x2="225.5" y2="23.5111" gradientUnits="userSpaceOnUse">
<stop stop-color="#6DBCD2"/>
<stop offset="0.632812" stop-color="#4AB7D8"/>
</linearGradient>
</defs>
</svg>
