<svg width="319" height="46" viewBox="0 0 319 46" fill="none" xmlns="http://www.w3.org/2000/svg">
<circle r="12.5" transform="matrix(-1 0 0 1 13.5 23.5)" fill="#F4F7F8" stroke="url(#paint0_linear_878_4022)" stroke-width="2"/>
<circle r="6.23077" transform="matrix(-1 0 0 1 13.5 23.4999)" fill="url(#paint1_linear_878_4022)"/>
<line y1="-1" x2="70" y2="-1" transform="matrix(1 -8.74228e-08 -8.74228e-08 -1 26 23)" stroke="url(#paint2_linear_878_4022)" stroke-width="2"/>
<path d="M99.1337 6.95689L94.703 20.8261C93.9301 23.2455 94.1068 25.8683 95.1971 28.1622L100.963 40.2929C102.62 43.7788 106.135 46 109.995 46H299.971C303.403 46 306.595 44.2403 308.427 41.3385L315.852 29.5786C317.794 26.5017 317.912 22.6124 316.159 19.4235L308.333 5.18342C306.576 1.98648 303.217 0 299.569 0H108.659C104.309 0 100.458 2.81273 99.1337 6.95689Z" fill="url(#paint3_linear_878_4022)"/>
<path d="M298.618 5H283.867C282.025 5 280.332 6.01256 279.461 7.6354L272.298 20.9819C271.489 22.488 271.507 24.3027 272.343 25.7933L279.443 38.4468C280.328 40.0237 281.995 41 283.804 41H298.683C300.445 41 302.078 40.0718 302.979 38.5571L310.511 25.9012C311.432 24.3552 311.45 22.434 310.56 20.8705L302.964 7.5264C302.075 5.96454 300.416 5 298.618 5Z" fill="white"/>
<g clip-path="url(#clip0_878_4022)">
<path d="M296.125 16.125C296.125 13.8468 294.278 12 292 12C289.722 12 287.875 13.8468 287.875 16.125C287.875 18.4032 289.722 20.25 292 20.25C294.278 20.25 296.125 18.4032 296.125 16.125ZM291.037 22.3598C288.488 20.7991 284.358 20.3703 282.28 20.2521C281.582 20.2126 281 20.7446 281 21.4162V30.9896C281 31.6054 281.498 32.1188 282.138 32.1519C284.014 32.2503 287.81 32.6108 290.433 33.9321C290.836 34.1349 291.313 33.8586 291.313 33.4221V22.8522C291.312 22.6515 291.213 22.4676 291.037 22.3598ZM301.72 20.2521C299.642 20.3699 295.512 20.7991 292.963 22.3598C292.787 22.4676 292.688 22.6588 292.688 22.8595V33.4208C292.688 33.8586 293.167 34.1354 293.571 33.9321C296.193 32.6121 299.987 32.2516 301.862 32.1532C302.502 32.1197 303 31.6062 303 30.9905V21.4162C303 20.7446 302.418 20.2126 301.72 20.2521Z" fill="#8CA6EA"/>
</g>
<defs>
<linearGradient id="paint0_linear_878_4022" x1="2.20109" y1="13.8" x2="27" y2="13.8" gradientUnits="userSpaceOnUse">
<stop stop-color="#94ABEB"/>
<stop offset="0.632812" stop-color="#6C92EA"/>
</linearGradient>
<linearGradient id="paint1_linear_878_4022" x1="1.01589" y1="6.36923" x2="12.4615" y2="6.36923" gradientUnits="userSpaceOnUse">
<stop stop-color="#94ABEB"/>
<stop offset="0.632812" stop-color="#6C92EA"/>
</linearGradient>
<linearGradient id="paint2_linear_878_4022" x1="5.70652" y1="0.511111" x2="70" y2="0.511076" gradientUnits="userSpaceOnUse">
<stop stop-color="#94ABEB"/>
<stop offset="0.632812" stop-color="#6C92EA"/>
</linearGradient>
<linearGradient id="paint3_linear_878_4022" x1="300.617" y1="23.5111" x2="93.5" y2="23.5111" gradientUnits="userSpaceOnUse">
<stop stop-color="#94ABEB"/>
<stop offset="0.632812" stop-color="#6C92EA"/>
</linearGradient>
<clipPath id="clip0_878_4022">
<rect width="22" height="22" fill="white" transform="translate(281 12)"/>
</clipPath>
</defs>
</svg>
