<svg width="318" height="46" viewBox="0 0 318 46" fill="none" xmlns="http://www.w3.org/2000/svg">
<circle cx="304.5" cy="23.5" r="12.5" fill="#F4F7F8" stroke="url(#paint0_linear_878_4024)" stroke-width="2"/>
<circle cx="304.5" cy="23.4999" r="6.23077" fill="url(#paint1_linear_878_4024)"/>
<line x1="292" y1="24" x2="222" y2="24" stroke="url(#paint2_linear_878_4024)" stroke-width="2"/>
<path d="M219.866 6.95689L224.297 20.8261C225.07 23.2455 224.893 25.8683 223.803 28.1622L218.037 40.2929C216.38 43.7788 212.865 46 209.005 46H19.0287C15.597 46 12.405 44.2403 10.573 41.3385L3.14839 29.5786C1.20579 26.5017 1.08791 22.6124 2.84058 19.4235L10.6671 5.18342C12.4242 1.98648 15.7827 0 19.4307 0H210.341C214.691 0 218.542 2.81273 219.866 6.95689Z" fill="url(#paint3_linear_878_4024)"/>
<path d="M20.3815 5H35.1331C36.9749 5 38.6676 6.01256 39.5386 7.6354L46.7021 20.9819C47.5105 22.488 47.4935 24.3027 46.657 25.7933L39.5568 38.4468C38.6719 40.0237 37.0046 41 35.1964 41H20.3172C18.5545 41 16.9221 40.0718 16.0206 38.5571L8.48857 25.9012C7.56846 24.3552 7.5499 22.434 8.43995 20.8705L16.0363 7.5264C16.9254 5.96454 18.5843 5 20.3815 5Z" fill="white"/>
<path d="M18.75 21.25C20.1289 21.25 21.25 20.1289 21.25 18.75C21.25 17.3711 20.1289 16.25 18.75 16.25C17.3711 16.25 16.25 17.3711 16.25 18.75C16.25 20.1289 17.3711 21.25 18.75 21.25ZM36.25 21.25C37.6289 21.25 38.75 20.1289 38.75 18.75C38.75 17.3711 37.6289 16.25 36.25 16.25C34.8711 16.25 33.75 17.3711 33.75 18.75C33.75 20.1289 34.8711 21.25 36.25 21.25ZM37.5 22.5H35C34.3125 22.5 33.6914 22.7773 33.2383 23.2266C34.8125 24.0898 35.9297 25.6484 36.1719 27.5H38.75C39.4414 27.5 40 26.9414 40 26.25V25C40 23.6211 38.8789 22.5 37.5 22.5ZM27.5 22.5C29.918 22.5 31.875 20.543 31.875 18.125C31.875 15.707 29.918 13.75 27.5 13.75C25.082 13.75 23.125 15.707 23.125 18.125C23.125 20.543 25.082 22.5 27.5 22.5ZM30.5 23.75H30.1758C29.3633 24.1406 28.4609 24.375 27.5 24.375C26.5391 24.375 25.6406 24.1406 24.8242 23.75H24.5C22.0156 23.75 20 25.7656 20 28.25V29.375C20 30.4102 20.8398 31.25 21.875 31.25H33.125C34.1602 31.25 35 30.4102 35 29.375V28.25C35 25.7656 32.9844 23.75 30.5 23.75ZM21.7617 23.2266C21.3086 22.7773 20.6875 22.5 20 22.5H17.5C16.1211 22.5 15 23.6211 15 25V26.25C15 26.9414 15.5586 27.5 16.25 27.5H18.8242C19.0703 25.6484 20.1875 24.0898 21.7617 23.2266Z" fill="#E363A2"/>
<defs>
<linearGradient id="paint0_linear_878_4024" x1="293.201" y1="23.8" x2="318" y2="23.8" gradientUnits="userSpaceOnUse">
<stop stop-color="#EC82BB"/>
<stop offset="0.632812" stop-color="#E25D9D"/>
</linearGradient>
<linearGradient id="paint1_linear_878_4024" x1="299.285" y1="23.6384" x2="310.731" y2="23.6384" gradientUnits="userSpaceOnUse">
<stop stop-color="#EC82BB"/>
<stop offset="0.632812" stop-color="#E25D9D"/>
</linearGradient>
<linearGradient id="paint2_linear_878_4024" x1="286.293" y1="22.4889" x2="222" y2="22.4889" gradientUnits="userSpaceOnUse">
<stop stop-color="#EC82BB"/>
<stop offset="0.632812" stop-color="#E25D9D"/>
</linearGradient>
<linearGradient id="paint3_linear_878_4024" x1="18.3831" y1="23.5111" x2="225.5" y2="23.5111" gradientUnits="userSpaceOnUse">
<stop stop-color="#EC82BB"/>
<stop offset="0.632812" stop-color="#E25D9D"/>
</linearGradient>
</defs>
</svg>
