<svg width="319" height="46" viewBox="0 0 319 46" fill="none" xmlns="http://www.w3.org/2000/svg">
<circle r="12.5" transform="matrix(-1 0 0 1 13.5 23.5)" fill="#F4F7F8" stroke="url(#paint0_linear_878_4026)" stroke-width="2"/>
<circle r="6.23077" transform="matrix(-1 0 0 1 13.5 23.4999)" fill="url(#paint1_linear_878_4026)"/>
<line y1="-1" x2="70" y2="-1" transform="matrix(1 -8.74228e-08 -8.74228e-08 -1 26 23)" stroke="url(#paint2_linear_878_4026)" stroke-width="2"/>
<path d="M99.1337 6.95689L94.703 20.8261C93.9301 23.2455 94.1068 25.8683 95.1971 28.1622L100.963 40.2929C102.62 43.7788 106.135 46 109.995 46H299.971C303.403 46 306.595 44.2403 308.427 41.3385L315.852 29.5786C317.794 26.5017 317.912 22.6124 316.159 19.4235L308.333 5.18342C306.576 1.98648 303.217 0 299.569 0H108.659C104.309 0 100.458 2.81273 99.1337 6.95689Z" fill="url(#paint3_linear_878_4026)"/>
<path d="M298.618 5H283.867C282.025 5 280.332 6.01256 279.461 7.6354L272.298 20.9819C271.489 22.488 271.507 24.3027 272.343 25.7933L279.443 38.4468C280.328 40.0237 281.995 41 283.804 41H298.683C300.445 41 302.078 40.0718 302.979 38.5571L310.511 25.9012C311.432 24.3552 311.45 22.434 310.56 20.8705L302.964 7.5264C302.075 5.96454 300.416 5 298.618 5Z" fill="white"/>
<path d="M298.688 19.625H297.969C297.572 19.625 297.25 19.9466 297.25 20.3438V22.5C297.25 25.8602 294.353 28.5564 290.925 28.2221C287.938 27.9306 285.75 25.2452 285.75 22.2439V20.3438C285.75 19.9466 285.428 19.625 285.031 19.625H284.312C283.915 19.625 283.594 19.9466 283.594 20.3438V22.1478C283.594 26.1746 286.467 29.7643 290.422 30.3097V31.8438H287.906C287.509 31.8438 287.188 32.1654 287.188 32.5625V33.2812C287.188 33.6784 287.509 34 287.906 34H295.094C295.491 34 295.812 33.6784 295.812 33.2812V32.5625C295.812 32.1654 295.491 31.8438 295.094 31.8438H292.578V30.3267C296.428 29.7985 299.406 26.4936 299.406 22.5V20.3438C299.406 19.9466 299.085 19.625 298.688 19.625ZM291.5 26.8125C293.882 26.8125 295.812 24.8818 295.812 22.5H291.979C291.715 22.5 291.5 22.3392 291.5 22.1406V21.4219C291.5 21.2233 291.715 21.0625 291.979 21.0625H295.812V19.625H291.979C291.715 19.625 291.5 19.4642 291.5 19.2656V18.5469C291.5 18.3483 291.715 18.1875 291.979 18.1875H295.812V16.75H291.979C291.715 16.75 291.5 16.5892 291.5 16.3906V15.6719C291.5 15.4733 291.715 15.3125 291.979 15.3125H295.812C295.812 12.9307 293.882 11 291.5 11C289.118 11 287.188 12.9307 287.188 15.3125V22.5C287.188 24.8818 289.118 26.8125 291.5 26.8125Z" fill="#EE977F"/>
<defs>
<linearGradient id="paint0_linear_878_4026" x1="2.20109" y1="13.8" x2="27" y2="13.8" gradientUnits="userSpaceOnUse">
<stop stop-color="#EFAB97"/>
<stop offset="0.632812" stop-color="#EC724F"/>
</linearGradient>
<linearGradient id="paint1_linear_878_4026" x1="1.01589" y1="6.36923" x2="12.4615" y2="6.36923" gradientUnits="userSpaceOnUse">
<stop stop-color="#EFAB97"/>
<stop offset="0.632812" stop-color="#EC724F"/>
</linearGradient>
<linearGradient id="paint2_linear_878_4026" x1="5.70652" y1="0.511111" x2="70" y2="0.511076" gradientUnits="userSpaceOnUse">
<stop stop-color="#EFAB97"/>
<stop offset="0.632812" stop-color="#EC724F"/>
</linearGradient>
<linearGradient id="paint3_linear_878_4026" x1="300.617" y1="23.5111" x2="93.5" y2="23.5111" gradientUnits="userSpaceOnUse">
<stop stop-color="#EFAB97"/>
<stop offset="0.632812" stop-color="#EC724F"/>
</linearGradient>
</defs>
</svg>
