<svg width="318" height="46" viewBox="0 0 318 46" fill="none" xmlns="http://www.w3.org/2000/svg">
<circle cx="304.5" cy="23.5" r="12.5" fill="#F4F7F8" stroke="url(#paint0_linear_878_4028)" stroke-width="2"/>
<circle cx="304.5" cy="23.4999" r="6.23077" fill="url(#paint1_linear_878_4028)"/>
<line x1="292" y1="24" x2="222" y2="24" stroke="url(#paint2_linear_878_4028)" stroke-width="2"/>
<path d="M219.866 6.95689L224.297 20.8261C225.07 23.2455 224.893 25.8683 223.803 28.1622L218.037 40.2929C216.38 43.7788 212.865 46 209.005 46H19.0287C15.597 46 12.405 44.2403 10.573 41.3385L3.14839 29.5786C1.20579 26.5017 1.08791 22.6124 2.84058 19.4235L10.6671 5.18342C12.4242 1.98648 15.7827 0 19.4307 0H210.341C214.691 0 218.542 2.81273 219.866 6.95689Z" fill="url(#paint3_linear_878_4028)"/>
<path d="M20.3815 5H35.1331C36.9749 5 38.6676 6.01256 39.5386 7.6354L46.7021 20.9819C47.5105 22.488 47.4935 24.3027 46.657 25.7933L39.5568 38.4468C38.6719 40.0237 37.0046 41 35.1964 41H20.3172C18.5545 41 16.9221 40.0718 16.0206 38.5571L8.48857 25.9012C7.56846 24.3552 7.5499 22.434 8.43995 20.8705L16.0363 7.5264C16.9254 5.96454 18.5843 5 20.3815 5Z" fill="white"/>
<g clip-path="url(#clip0_878_4028)">
<path d="M22.875 25.75H23.3906V26.4375C23.3906 26.8173 23.6983 27.125 24.0781 27.125H25.7969C26.1767 27.125 26.4844 26.8173 26.4844 26.4375V25.75H27C27.7593 25.75 28.375 25.1343 28.375 24.375V14.75C28.375 13.9907 27.7593 13.375 27 13.375V12.6875C27 12.3077 26.6923 12 26.3125 12H23.5625C23.1827 12 22.875 12.3077 22.875 12.6875V13.375C22.1157 13.375 21.5 13.9907 21.5 14.75V24.375C21.5 25.1343 22.1157 25.75 22.875 25.75ZM35.9375 31.25H35.8821C37.1939 29.7886 38 27.8641 38 25.75C38 21.2005 34.2995 17.5 29.75 17.5V20.25C32.7827 20.25 35.25 22.7173 35.25 25.75C35.25 28.7827 32.7827 31.25 29.75 31.25H18.0625C16.9234 31.25 16 32.1734 16 33.3125C16 33.6923 16.3077 34 16.6875 34H37.3125C37.6923 34 38 33.6923 38 33.3125C38 32.1734 37.0766 31.25 35.9375 31.25ZM20.4688 29.875H29.4062C29.5962 29.875 29.75 29.7212 29.75 29.5312V28.8438C29.75 28.6538 29.5962 28.5 29.4062 28.5H20.4688C20.2788 28.5 20.125 28.6538 20.125 28.8438V29.5312C20.125 29.7212 20.2788 29.875 20.4688 29.875Z" fill="#ECB55F"/>
</g>
<defs>
<linearGradient id="paint0_linear_878_4028" x1="293.201" y1="23.8" x2="318" y2="23.8" gradientUnits="userSpaceOnUse">
<stop stop-color="#EDBA6B"/>
<stop offset="0.632812" stop-color="#ECA131"/>
</linearGradient>
<linearGradient id="paint1_linear_878_4028" x1="299.285" y1="23.6384" x2="310.731" y2="23.6384" gradientUnits="userSpaceOnUse">
<stop stop-color="#EDBA6B"/>
<stop offset="0.632812" stop-color="#ECA131"/>
</linearGradient>
<linearGradient id="paint2_linear_878_4028" x1="286.293" y1="22.4889" x2="222" y2="22.4889" gradientUnits="userSpaceOnUse">
<stop stop-color="#EDBA6B"/>
<stop offset="0.632812" stop-color="#ECA131"/>
</linearGradient>
<linearGradient id="paint3_linear_878_4028" x1="18.3831" y1="23.5111" x2="225.5" y2="23.5111" gradientUnits="userSpaceOnUse">
<stop stop-color="#EDBA6B"/>
<stop offset="0.632812" stop-color="#ECA131"/>
</linearGradient>
<clipPath id="clip0_878_4028">
<rect width="22" height="22" fill="white" transform="translate(16 12)"/>
</clipPath>
</defs>
</svg>
