<svg width="326" height="54" viewBox="0 0 326 54" fill="none" xmlns="http://www.w3.org/2000/svg">
<g filter="url(#filter0_d_878_4031)">
<circle r="12.5" transform="matrix(-1 0 0 1 17.5 23.5)" fill="#F4F7F8" stroke="url(#paint0_linear_878_4031)" stroke-width="2"/>
<circle r="6.23077" transform="matrix(-1 0 0 1 17.5 23.4999)" fill="url(#paint1_linear_878_4031)"/>
<line y1="-1" x2="70" y2="-1" transform="matrix(1 -8.74228e-08 -8.74228e-08 -1 30 23)" stroke="url(#paint2_linear_878_4031)" stroke-width="2"/>
<path d="M103.134 6.95689L98.703 20.8261C97.9301 23.2455 98.1068 25.8683 99.1971 28.1622L104.963 40.2929C106.62 43.7788 110.135 46 113.995 46H303.971C307.403 46 310.595 44.2403 312.427 41.3385L319.852 29.5786C321.794 26.5017 321.912 22.6124 320.159 19.4235L312.333 5.18342C310.576 1.98648 307.217 0 303.569 0H112.659C108.309 0 104.458 2.81273 103.134 6.95689Z" fill="url(#paint3_linear_878_4031)"/>
<path d="M302.618 5H287.867C286.025 5 284.332 6.01256 283.461 7.6354L276.298 20.9819C275.489 22.488 275.507 24.3027 276.343 25.7933L283.443 38.4468C284.328 40.0237 285.995 41 287.804 41H302.683C304.445 41 306.078 40.0718 306.979 38.5571L314.511 25.9012C315.432 24.3552 315.45 22.434 314.56 20.8705L306.964 7.5264C306.075 5.96454 304.416 5 302.618 5Z" fill="white"/>
<g clip-path="url(#clip0_878_4031)">
<path d="M293.333 29.422C293.22 29.1958 293.024 29.1729 292.944 29.1729C292.865 29.1729 292.669 29.1955 292.562 29.4094L292.269 29.9953C292.025 30.4834 291.313 30.4295 291.143 29.9154L290.5 27.9878L290.095 29.2054C289.87 29.8799 289.24 30.3333 288.529 30.3333H288.056C287.718 30.3333 287.444 30.0598 287.444 29.7222C287.444 29.3845 287.718 29.1111 288.056 29.1111H288.529C288.713 29.1111 288.877 28.9934 288.935 28.8185L289.63 26.7315C289.756 26.3569 290.105 26.1048 290.5 26.1048C290.895 26.1048 291.244 26.3565 291.37 26.7315L291.9 28.322C292.654 27.7036 293.965 27.9515 294.421 28.8628C294.493 29.0072 294.63 29.09 294.778 29.1019V25.9654L299.667 21.1112V19.3333H294.472C293.968 19.3333 293.556 18.9208 293.556 18.4166V13.2222H285.917C285.409 13.2222 285 13.6308 285 14.1388V31.8611C285 32.369 285.409 32.7777 285.917 32.7777H298.75C299.258 32.7777 299.667 32.369 299.667 31.8611V30.3333L294.778 30.3291C294.162 30.3172 293.61 29.9746 293.333 29.422ZM299.667 17.8781C299.667 17.6374 299.571 17.4045 299.399 17.2326L295.66 13.4895C295.488 13.3177 295.255 13.2222 295.011 13.2222H294.778V18.1111H299.667V17.8781ZM296 26.4741V29.1111H298.635L304.81 22.8938L302.218 20.3011L296 26.4741ZM306.715 19.6132L305.498 18.396C305.118 18.0163 304.502 18.0163 304.122 18.396L303.082 19.4368L305.674 22.0294L306.715 20.9886C307.095 20.609 307.095 19.9929 306.715 19.6132Z" fill="#A9AE3C"/>
</g>
</g>
<defs>
<filter id="filter0_d_878_4031" x="0" y="0" width="325.396" height="54" filterUnits="userSpaceOnUse" color-interpolation-filters="sRGB">
<feFlood flood-opacity="0" result="BackgroundImageFix"/>
<feColorMatrix in="SourceAlpha" type="matrix" values="0 0 0 0 0 0 0 0 0 0 0 0 0 0 0 0 0 0 127 0" result="hardAlpha"/>
<feOffset dy="4"/>
<feGaussianBlur stdDeviation="2"/>
<feComposite in2="hardAlpha" operator="out"/>
<feColorMatrix type="matrix" values="0 0 0 0 0 0 0 0 0 0 0 0 0 0 0 0 0 0 0.25 0"/>
<feBlend mode="normal" in2="BackgroundImageFix" result="effect1_dropShadow_878_4031"/>
<feBlend mode="normal" in="SourceGraphic" in2="effect1_dropShadow_878_4031" result="shape"/>
</filter>
<linearGradient id="paint0_linear_878_4031" x1="2.20109" y1="13.8" x2="27" y2="13.8" gradientUnits="userSpaceOnUse">
<stop stop-color="#A8AD39"/>
<stop offset="0.632812" stop-color="#BCC06A"/>
</linearGradient>
<linearGradient id="paint1_linear_878_4031" x1="1.01589" y1="6.36923" x2="12.4615" y2="6.36923" gradientUnits="userSpaceOnUse">
<stop stop-color="#A8AD39"/>
<stop offset="0.632812" stop-color="#BCC06A"/>
</linearGradient>
<linearGradient id="paint2_linear_878_4031" x1="5.70652" y1="0.511111" x2="70" y2="0.511076" gradientUnits="userSpaceOnUse">
<stop stop-color="#A8AD39"/>
<stop offset="0.632812" stop-color="#BCC06A"/>
</linearGradient>
<linearGradient id="paint3_linear_878_4031" x1="304.617" y1="23.5111" x2="97.5" y2="23.5111" gradientUnits="userSpaceOnUse">
<stop stop-color="#A8AD39"/>
<stop offset="0.632812" stop-color="#BCC06A"/>
</linearGradient>
<clipPath id="clip0_878_4031">
<rect width="22" height="22" fill="white" transform="translate(285 12)"/>
</clipPath>
</defs>
</svg>
