<svg width="318" height="46" viewBox="0 0 318 46" fill="none" xmlns="http://www.w3.org/2000/svg">
<circle cx="304.5" cy="23.5" r="12.5" fill="#F4F7F8" stroke="url(#paint0_linear_878_4033)" stroke-width="2"/>
<circle cx="304.5" cy="23.4999" r="6.23077" fill="url(#paint1_linear_878_4033)"/>
<line x1="292" y1="24" x2="222" y2="24" stroke="url(#paint2_linear_878_4033)" stroke-width="2"/>
<path d="M219.866 6.95689L224.297 20.8261C225.07 23.2455 224.893 25.8683 223.803 28.1622L218.037 40.2929C216.38 43.7788 212.865 46 209.005 46H19.0287C15.597 46 12.405 44.2403 10.573 41.3385L3.14839 29.5786C1.20579 26.5017 1.08791 22.6124 2.84058 19.4235L10.6671 5.18342C12.4242 1.98648 15.7827 0 19.4307 0H210.341C214.691 0 218.542 2.81273 219.866 6.95689Z" fill="url(#paint3_linear_878_4033)"/>
<path d="M20.3815 5H35.1331C36.9749 5 38.6676 6.01256 39.5386 7.6354L46.7021 20.9819C47.5105 22.488 47.4935 24.3027 46.657 25.7933L39.5568 38.4468C38.6719 40.0237 37.0046 41 35.1964 41H20.3172C18.5545 41 16.9221 40.0718 16.0206 38.5571L8.48857 25.9012C7.56846 24.3552 7.5499 22.434 8.43995 20.8705L16.0363 7.5264C16.9254 5.96454 18.5843 5 20.3815 5Z" fill="white"/>
<g clip-path="url(#clip0_878_4033)">
<path d="M26.7086 18.885L19.6667 24.6848V30.9445C19.6667 31.1066 19.731 31.262 19.8456 31.3766C19.9603 31.4912 20.1157 31.5556 20.2778 31.5556L24.5578 31.5445C24.7194 31.5437 24.874 31.479 24.988 31.3645C25.1019 31.25 25.1659 31.095 25.1659 30.9334V27.2778C25.1659 27.1158 25.2303 26.9603 25.3449 26.8457C25.4595 26.7311 25.6149 26.6667 25.777 26.6667H28.2215C28.3835 26.6667 28.539 26.7311 28.6536 26.8457C28.7682 26.9603 28.8326 27.1158 28.8326 27.2778V30.9308C28.8323 31.0112 28.8479 31.0908 28.8785 31.1652C28.9091 31.2396 28.9541 31.3072 29.0109 31.3641C29.0676 31.4211 29.1351 31.4662 29.2094 31.4971C29.2836 31.5279 29.3633 31.5438 29.4437 31.5438L33.7222 31.5556C33.8843 31.5556 34.0397 31.4912 34.1543 31.3766C34.2689 31.262 34.3333 31.1066 34.3333 30.9445V24.6806L27.2929 18.885C27.2102 18.8183 27.1071 18.7819 27.0008 18.7819C26.8944 18.7819 26.7913 18.8183 26.7086 18.885ZM37.8319 22.827L34.6389 20.1951V14.9047C34.6389 14.7832 34.5906 14.6666 34.5046 14.5807C34.4187 14.4947 34.3021 14.4464 34.1805 14.4464H32.0417C31.9201 14.4464 31.8035 14.4947 31.7176 14.5807C31.6316 14.6666 31.5833 14.7832 31.5833 14.9047V17.678L28.1638 14.8646C27.8356 14.5946 27.4238 14.447 26.9988 14.447C26.5739 14.447 26.1621 14.5946 25.8339 14.8646L16.1658 22.827C16.1193 22.8654 16.0809 22.9125 16.0528 22.9657C16.0246 23.0189 16.0071 23.0772 16.0015 23.1371C15.9958 23.1971 16.002 23.2575 16.0197 23.3151C16.0374 23.3726 16.0663 23.4261 16.1046 23.4725L17.0786 24.6566C17.1169 24.7031 17.164 24.7416 17.2172 24.77C17.2704 24.7983 17.3286 24.8159 17.3886 24.8216C17.4486 24.8274 17.5092 24.8213 17.5668 24.8037C17.6244 24.786 17.678 24.7572 17.7245 24.7188L26.7086 17.319C26.7913 17.2523 26.8944 17.2159 27.0008 17.2159C27.1071 17.2159 27.2102 17.2523 27.2929 17.319L36.2774 24.7188C36.3238 24.7572 36.3773 24.7861 36.4349 24.8038C36.4924 24.8215 36.5529 24.8277 36.6128 24.822C36.6728 24.8163 36.731 24.7989 36.7842 24.7707C36.8374 24.7425 36.8846 24.7041 36.9229 24.6577L37.8969 23.4737C37.9352 23.427 37.964 23.3732 37.9815 23.3154C37.999 23.2576 38.0049 23.1969 37.9988 23.1369C37.9928 23.0768 37.9749 23.0185 37.9463 22.9653C37.9177 22.9121 37.8788 22.8651 37.8319 22.827Z" fill="#B19EDA"/>
</g>
<defs>
<linearGradient id="paint0_linear_878_4033" x1="293.201" y1="23.8" x2="318" y2="23.8" gradientUnits="userSpaceOnUse">
<stop stop-color="#B3A1DB"/>
<stop offset="0.632812" stop-color="#9B7CD8"/>
</linearGradient>
<linearGradient id="paint1_linear_878_4033" x1="299.285" y1="23.6384" x2="310.731" y2="23.6384" gradientUnits="userSpaceOnUse">
<stop stop-color="#B3A1DB"/>
<stop offset="0.632812" stop-color="#9B7CD8"/>
</linearGradient>
<linearGradient id="paint2_linear_878_4033" x1="286.293" y1="22.4889" x2="222" y2="22.4889" gradientUnits="userSpaceOnUse">
<stop stop-color="#B3A1DB"/>
<stop offset="0.632812" stop-color="#9B7CD8"/>
</linearGradient>
<linearGradient id="paint3_linear_878_4033" x1="18.3831" y1="23.5111" x2="225.5" y2="23.5111" gradientUnits="userSpaceOnUse">
<stop stop-color="#B3A1DB"/>
<stop offset="0.632812" stop-color="#9B7CD8"/>
</linearGradient>
<clipPath id="clip0_878_4033">
<rect width="22" height="22" fill="white" transform="translate(16 12)"/>
</clipPath>
</defs>
</svg>
