<svg width="18" height="1337" viewBox="0 0 18 1337" fill="none" xmlns="http://www.w3.org/2000/svg">
<path d="M9 0C4.58172 1.93129e-07 1 3.58172 1 8C1 12.4183 4.58172 16 9 16C13.4183 16 17 12.4183 17 8C17 3.58172 13.4183 -1.93129e-07 9 0ZM7.50006 1322L0.339804 1337L17.6603 1337L10.5001 1322L7.50006 1322ZM7.5 8L7.5 13.0341L10.5 13.0341L10.5 8L7.5 8ZM7.5 23.1023L7.5 33.1705L10.5 33.1705L10.5 23.1023L7.5 23.1023ZM7.5 43.2386L7.5 53.3068L10.5 53.3068L10.5 43.2386L7.5 43.2386ZM7.5 63.375L7.5 73.4432L10.5 73.4432L10.5 63.375L7.5 63.375ZM7.5 83.5114L7.5 93.5796L10.5 93.5796L10.5 83.5114L7.5 83.5114ZM7.5 103.648L7.5 113.716L10.5 113.716L10.5 103.648L7.5 103.648ZM7.50001 123.784L7.50001 133.852L10.5 133.852L10.5 123.784L7.50001 123.784ZM7.50001 143.92L7.50001 153.989L10.5 153.989L10.5 143.92L7.50001 143.92ZM7.50001 164.057L7.50001 174.125L10.5 174.125L10.5 164.057L7.50001 164.057ZM7.50001 184.193L7.50001 194.261L10.5 194.261L10.5 184.193L7.50001 184.193ZM7.50001 204.33L7.50001 214.398L10.5 214.398L10.5 204.33L7.50001 204.33ZM7.50001 224.466L7.50001 234.534L10.5 234.534L10.5 224.466L7.50001 224.466ZM7.50001 244.602L7.50001 254.67L10.5 254.67L10.5 244.602L7.50001 244.602ZM7.50001 264.739L7.50001 274.807L10.5 274.807L10.5 264.739L7.50001 264.739ZM7.50001 284.875L7.50001 294.943L10.5 294.943L10.5 284.875L7.50001 284.875ZM7.50001 305.011L7.50001 315.079L10.5 315.079L10.5 305.011L7.50001 305.011ZM7.50001 325.148L7.50001 335.216L10.5 335.216L10.5 325.148L7.50001 325.148ZM7.50001 345.284L7.50002 355.352L10.5 355.352L10.5 345.284L7.50001 345.284ZM7.50002 365.42L7.50002 375.489L10.5 375.489L10.5 365.42L7.50002 365.42ZM7.50002 385.557L7.50002 395.625L10.5 395.625L10.5 385.557L7.50002 385.557ZM7.50002 405.693L7.50002 415.761L10.5 415.761L10.5 405.693L7.50002 405.693ZM7.50002 425.829L7.50002 435.898L10.5 435.898L10.5 425.829L7.50002 425.829ZM7.50002 445.966L7.50002 456.034L10.5 456.034L10.5 445.966L7.50002 445.966ZM7.50002 466.102L7.50002 476.17L10.5 476.17L10.5 466.102L7.50002 466.102ZM7.50002 486.238L7.50002 496.307L10.5 496.307L10.5 486.238L7.50002 486.238ZM7.50002 506.375L7.50002 516.443L10.5 516.443L10.5 506.375L7.50002 506.375ZM7.50002 526.511L7.50002 536.579L10.5 536.579L10.5 526.511L7.50002 526.511ZM7.50002 546.648L7.50002 556.716L10.5 556.716L10.5 546.648L7.50002 546.648ZM7.50002 566.784L7.50002 576.852L10.5 576.852L10.5 566.784L7.50002 566.784ZM7.50003 586.92L7.50003 596.988L10.5 596.988L10.5 586.92L7.50003 586.92ZM7.50003 607.057L7.50003 617.125L10.5 617.125L10.5 607.057L7.50003 607.057ZM7.50003 627.193L7.50003 637.261L10.5 637.261L10.5 627.193L7.50003 627.193ZM7.50003 647.329L7.50003 657.397L10.5 657.397L10.5 647.329L7.50003 647.329ZM7.50003 667.466L7.50003 677.534L10.5 677.534L10.5 667.466L7.50003 667.466ZM7.50003 687.602L7.50003 697.67L10.5 697.67L10.5 687.602L7.50003 687.602ZM7.50003 707.738L7.50003 717.807L10.5 717.807L10.5 707.738L7.50003 707.738ZM7.50003 727.875L7.50003 737.943L10.5 737.943L10.5 727.875L7.50003 727.875ZM7.50003 748.011L7.50003 758.079L10.5 758.079L10.5 748.011L7.50003 748.011ZM7.50003 768.147L7.50003 778.216L10.5 778.216L10.5 768.147L7.50003 768.147ZM7.50003 788.284L7.50003 798.352L10.5 798.352L10.5 788.284L7.50003 788.284ZM7.50003 808.42L7.50004 818.488L10.5 818.488L10.5 808.42L7.50003 808.42ZM7.50004 828.556L7.50004 838.625L10.5 838.625L10.5 828.556L7.50004 828.556ZM7.50004 848.693L7.50004 858.761L10.5 858.761L10.5 848.693L7.50004 848.693ZM7.50004 868.829L7.50004 878.897L10.5 878.897L10.5 868.829L7.50004 868.829ZM7.50004 888.966L7.50004 899.034L10.5 899.034L10.5 888.966L7.50004 888.966ZM7.50004 909.102L7.50004 919.17L10.5 919.17L10.5 909.102L7.50004 909.102ZM7.50004 929.238L7.50004 939.306L10.5 939.306L10.5 929.238L7.50004 929.238ZM7.50004 949.375L7.50004 959.443L10.5 959.443L10.5 949.375L7.50004 949.375ZM7.50004 969.511L7.50004 979.579L10.5 979.579L10.5 969.511L7.50004 969.511ZM7.50004 989.647L7.50004 999.715L10.5 999.715L10.5 989.647L7.50004 989.647ZM7.50004 1009.78L7.50004 1019.85L10.5 1019.85L10.5 1009.78L7.50004 1009.78ZM7.50004 1029.92L7.50005 1039.99L10.5 1039.99L10.5 1029.92L7.50004 1029.92ZM7.50005 1050.06L7.50005 1060.12L10.5 1060.12L10.5 1050.06L7.50005 1050.06ZM7.50005 1070.19L7.50005 1080.26L10.5 1080.26L10.5 1070.19L7.50005 1070.19ZM7.50005 1090.33L7.50005 1100.4L10.5 1100.4L10.5 1090.33L7.50005 1090.33ZM7.50005 1110.47L7.50005 1120.53L10.5 1120.53L10.5 1110.47L7.50005 1110.47ZM7.50005 1130.6L7.50005 1140.67L10.5 1140.67L10.5 1130.6L7.50005 1130.6ZM7.50005 1150.74L7.50005 1160.81L10.5001 1160.81L10.5 1150.74L7.50005 1150.74ZM7.50005 1170.88L7.50005 1180.94L10.5001 1180.94L10.5001 1170.88L7.50005 1170.88ZM7.50005 1191.01L7.50005 1201.08L10.5001 1201.08L10.5001 1191.01L7.50005 1191.01ZM7.50005 1211.15L7.50005 1221.22L10.5001 1221.22L10.5001 1211.15L7.50005 1211.15ZM7.50005 1231.28L7.50005 1241.35L10.5001 1241.35L10.5001 1231.28L7.50005 1231.28ZM7.50005 1251.42L7.50005 1261.49L10.5001 1261.49L10.5001 1251.42L7.50005 1251.42ZM7.50006 1271.56L7.50006 1281.63L10.5001 1281.63L10.5001 1271.56L7.50006 1271.56ZM7.50006 1291.69L7.50006 1301.76L10.5001 1301.76L10.5001 1291.69L7.50006 1291.69ZM7.50006 1311.83L7.50006 1321.9L10.5001 1321.9L10.5001 1311.83L7.50006 1311.83Z" fill="#666666"/>
</svg>
