<svg width="18" height="2001" viewBox="0 0 18 2001" fill="none" xmlns="http://www.w3.org/2000/svg">
<path d="M9 0C4.58172 -1.93129e-07 1 3.58172 1 8C1 12.4183 4.58172 16 9 16C13.4183 16 17 12.4183 17 8C17 3.58172 13.4183 1.93129e-07 9 0ZM7.49991 1986L0.339658 2001L17.6602 2001L10.4999 1986L7.49991 1986ZM7.5 8L7.5 12.9825L10.5 12.9825L10.5 8L7.5 8ZM7.5 22.9475L7.5 32.9125L10.5 32.9125L10.5 22.9475L7.5 22.9475ZM7.5 42.8775L7.5 52.8425L10.5 52.8425L10.5 42.8775L7.5 42.8775ZM7.5 62.8075L7.5 72.7725L10.5 72.7725L10.5 62.8075L7.5 62.8075ZM7.5 82.7375L7.5 92.7025L10.5 92.7025L10.5 82.7375L7.5 82.7375ZM7.5 102.668L7.5 112.632L10.5 112.632L10.5 102.668L7.5 102.668ZM7.49999 122.597L7.49999 132.562L10.5 132.562L10.5 122.597L7.49999 122.597ZM7.49999 142.527L7.49999 152.492L10.5 152.492L10.5 142.527L7.49999 142.527ZM7.49999 162.457L7.49999 172.422L10.5 172.422L10.5 162.457L7.49999 162.457ZM7.49999 182.387L7.49999 192.352L10.5 192.352L10.5 182.387L7.49999 182.387ZM7.49999 202.317L7.49999 212.282L10.5 212.282L10.5 202.317L7.49999 202.317ZM7.49999 222.247L7.49999 232.212L10.5 232.212L10.5 222.247L7.49999 222.247ZM7.49999 242.177L7.49999 252.142L10.5 252.142L10.5 242.177L7.49999 242.177ZM7.49999 262.107L7.49999 272.072L10.5 272.072L10.5 262.107L7.49999 262.107ZM7.49999 282.037L7.49999 292.002L10.5 292.002L10.5 282.037L7.49999 282.037ZM7.49999 301.967L7.49999 311.932L10.5 311.932L10.5 301.967L7.49999 301.967ZM7.49999 321.897L7.49999 331.862L10.5 331.862L10.5 321.897L7.49999 321.897ZM7.49999 341.827L7.49998 351.792L10.5 351.792L10.5 341.827L7.49999 341.827ZM7.49998 361.757L7.49998 371.722L10.5 371.722L10.5 361.757L7.49998 361.757ZM7.49998 381.687L7.49998 391.652L10.5 391.652L10.5 381.687L7.49998 381.687ZM7.49998 401.617L7.49998 411.582L10.5 411.582L10.5 401.617L7.49998 401.617ZM7.49998 421.547L7.49998 431.512L10.5 431.512L10.5 421.547L7.49998 421.547ZM7.49998 441.477L7.49998 451.442L10.5 451.442L10.5 441.477L7.49998 441.477ZM7.49998 461.407L7.49998 471.372L10.5 471.372L10.5 461.407L7.49998 461.407ZM7.49998 481.337L7.49998 491.302L10.5 491.302L10.5 481.337L7.49998 481.337ZM7.49998 501.267L7.49998 511.232L10.5 511.232L10.5 501.267L7.49998 501.267ZM7.49998 521.197L7.49998 531.162L10.5 531.162L10.5 521.197L7.49998 521.197ZM7.49998 541.128L7.49998 551.092L10.5 551.092L10.5 541.128L7.49998 541.128ZM7.49998 561.057L7.49998 571.023L10.5 571.023L10.5 561.057L7.49998 561.057ZM7.49997 580.988L7.49997 590.953L10.5 590.953L10.5 580.988L7.49997 580.988ZM7.49997 600.918L7.49997 610.883L10.5 610.883L10.5 600.918L7.49997 600.918ZM7.49997 620.848L7.49997 630.813L10.5 630.813L10.5 620.848L7.49997 620.848ZM7.49997 640.778L7.49997 650.743L10.5 650.743L10.5 640.778L7.49997 640.778ZM7.49997 660.708L7.49997 670.673L10.5 670.673L10.5 660.708L7.49997 660.708ZM7.49997 680.638L7.49997 690.603L10.5 690.603L10.5 680.638L7.49997 680.638ZM7.49997 700.568L7.49997 710.533L10.5 710.533L10.5 700.568L7.49997 700.568ZM7.49997 720.498L7.49997 730.463L10.5 730.463L10.5 720.498L7.49997 720.498ZM7.49997 740.428L7.49997 750.393L10.5 750.393L10.5 740.428L7.49997 740.428ZM7.49997 760.358L7.49997 770.323L10.5 770.323L10.5 760.358L7.49997 760.358ZM7.49997 780.288L7.49997 790.253L10.5 790.253L10.5 780.288L7.49997 780.288ZM7.49997 800.218L7.49996 810.183L10.5 810.183L10.5 800.218L7.49997 800.218ZM7.49996 820.148L7.49996 830.113L10.5 830.113L10.5 820.148L7.49996 820.148ZM7.49996 840.078L7.49996 850.043L10.5 850.043L10.5 840.078L7.49996 840.078ZM7.49996 860.008L7.49996 869.973L10.5 869.973L10.5 860.008L7.49996 860.008ZM7.49996 879.938L7.49996 889.903L10.5 889.903L10.5 879.938L7.49996 879.938ZM7.49996 899.868L7.49996 909.833L10.5 909.833L10.5 899.868L7.49996 899.868ZM7.49996 919.798L7.49996 929.763L10.5 929.763L10.5 919.798L7.49996 919.798ZM7.49996 939.729L7.49996 949.694L10.5 949.694L10.5 939.729L7.49996 939.729ZM7.49996 959.659L7.49996 969.624L10.5 969.624L10.5 959.659L7.49996 959.659ZM7.49996 979.589L7.49996 989.554L10.5 989.554L10.5 979.589L7.49996 979.589ZM7.49996 999.519L7.49996 1009.48L10.5 1009.48L10.5 999.519L7.49996 999.519ZM7.49996 1019.45L7.49996 1029.41L10.5 1029.41L10.5 1019.45L7.49996 1019.45ZM7.49995 1039.38L7.49995 1049.34L10.5 1049.34L10.5 1039.38L7.49995 1039.38ZM7.49995 1059.31L7.49995 1069.27L10.5 1069.27L10.5 1059.31L7.49995 1059.31ZM7.49995 1079.24L7.49995 1089.2L10.5 1089.2L10.5 1079.24L7.49995 1079.24ZM7.49995 1099.17L7.49995 1109.13L10.5 1109.13L10.5 1099.17L7.49995 1099.17ZM7.49995 1119.1L7.49995 1129.06L10.5 1129.06L10.5 1119.1L7.49995 1119.1ZM7.49995 1139.03L7.49995 1148.99L10.5 1148.99L10.5 1139.03L7.49995 1139.03ZM7.49995 1158.96L7.49995 1168.92L10.4999 1168.92L10.4999 1158.96L7.49995 1158.96ZM7.49995 1178.89L7.49995 1188.85L10.4999 1188.85L10.4999 1178.89L7.49995 1178.89ZM7.49995 1198.82L7.49995 1208.78L10.4999 1208.78L10.4999 1198.82L7.49995 1198.82ZM7.49995 1218.75L7.49995 1228.71L10.4999 1228.71L10.4999 1218.75L7.49995 1218.75ZM7.49995 1238.68L7.49995 1248.64L10.4999 1248.64L10.4999 1238.68L7.49995 1238.68ZM7.49995 1258.61L7.49994 1268.57L10.4999 1268.57L10.4999 1258.61L7.49995 1258.61ZM7.49994 1278.54L7.49994 1288.5L10.4999 1288.5L10.4999 1278.54L7.49994 1278.54ZM7.49994 1298.47L7.49994 1308.43L10.4999 1308.43L10.4999 1298.47L7.49994 1298.47ZM7.49994 1318.4L7.49994 1328.36L10.4999 1328.36L10.4999 1318.4L7.49994 1318.4ZM7.49994 1338.33L7.49994 1348.29L10.4999 1348.29L10.4999 1338.33L7.49994 1338.33ZM7.49994 1358.26L7.49994 1368.22L10.4999 1368.22L10.4999 1358.26L7.49994 1358.26ZM7.49994 1378.19L7.49994 1388.15L10.4999 1388.15L10.4999 1378.19L7.49994 1378.19ZM7.49994 1398.12L7.49994 1408.08L10.4999 1408.08L10.4999 1398.12L7.49994 1398.12ZM7.49994 1418.05L7.49994 1428.01L10.4999 1428.01L10.4999 1418.05L7.49994 1418.05ZM7.49994 1437.98L7.49994 1447.94L10.4999 1447.94L10.4999 1437.98L7.49994 1437.98ZM7.49994 1457.91L7.49994 1467.87L10.4999 1467.87L10.4999 1457.91L7.49994 1457.91ZM7.49994 1477.84L7.49994 1487.8L10.4999 1487.8L10.4999 1477.84L7.49994 1477.84ZM7.49993 1497.77L7.49993 1507.73L10.4999 1507.73L10.4999 1497.77L7.49993 1497.77ZM7.49993 1517.7L7.49993 1527.66L10.4999 1527.66L10.4999 1517.7L7.49993 1517.7ZM7.49993 1537.63L7.49993 1547.59L10.4999 1547.59L10.4999 1537.63L7.49993 1537.63ZM7.49993 1557.56L7.49993 1567.52L10.4999 1567.52L10.4999 1557.56L7.49993 1557.56ZM7.49993 1577.49L7.49993 1587.45L10.4999 1587.45L10.4999 1577.49L7.49993 1577.49ZM7.49993 1597.42L7.49993 1607.38L10.4999 1607.38L10.4999 1597.42L7.49993 1597.42ZM7.49993 1617.35L7.49993 1627.31L10.4999 1627.31L10.4999 1617.35L7.49993 1617.35ZM7.49993 1637.28L7.49993 1647.24L10.4999 1647.24L10.4999 1637.28L7.49993 1637.28ZM7.49993 1657.21L7.49993 1667.17L10.4999 1667.17L10.4999 1657.21L7.49993 1657.21ZM7.49993 1677.14L7.49993 1687.1L10.4999 1687.1L10.4999 1677.14L7.49993 1677.14ZM7.49993 1697.07L7.49993 1707.03L10.4999 1707.03L10.4999 1697.07L7.49993 1697.07ZM7.49993 1717L7.49992 1726.96L10.4999 1726.96L10.4999 1717L7.49993 1717ZM7.49992 1736.93L7.49992 1746.89L10.4999 1746.89L10.4999 1736.93L7.49992 1736.93ZM7.49992 1756.86L7.49992 1766.82L10.4999 1766.82L10.4999 1756.86L7.49992 1756.86ZM7.49992 1776.79L7.49992 1786.75L10.4999 1786.75L10.4999 1776.79L7.49992 1776.79ZM7.49992 1796.72L7.49992 1806.68L10.4999 1806.68L10.4999 1796.72L7.49992 1796.72ZM7.49992 1816.65L7.49992 1826.61L10.4999 1826.61L10.4999 1816.65L7.49992 1816.65ZM7.49992 1836.58L7.49992 1846.54L10.4999 1846.54L10.4999 1836.58L7.49992 1836.58ZM7.49992 1856.51L7.49992 1866.47L10.4999 1866.47L10.4999 1856.51L7.49992 1856.51ZM7.49992 1876.44L7.49992 1886.4L10.4999 1886.4L10.4999 1876.44L7.49992 1876.44ZM7.49992 1896.37L7.49992 1906.33L10.4999 1906.33L10.4999 1896.37L7.49992 1896.37ZM7.49992 1916.3L7.49992 1926.26L10.4999 1926.26L10.4999 1916.3L7.49992 1916.3ZM7.49992 1936.23L7.49992 1946.19L10.4999 1946.19L10.4999 1936.23L7.49992 1936.23ZM7.49991 1956.16L7.49991 1966.12L10.4999 1966.12L10.4999 1956.16L7.49991 1956.16ZM7.49991 1976.09L7.49991 1986.05L10.4999 1986.05L10.4999 1976.09L7.49991 1976.09Z" fill="#666666"/>
</svg>
