<svg width="149" height="67" viewBox="0 0 149 67" fill="none" xmlns="http://www.w3.org/2000/svg">
<path fill-rule="evenodd" clip-rule="evenodd" d="M141.929 0L0 21.7932L7.12756 67L149.057 45.2068L141.929 0ZM1.30106 22.8549L140.967 1.397L147.699 44.1451L8.03265 65.603L1.30106 22.8549Z" fill="#F4F7F8"/>
<path fill-rule="evenodd" clip-rule="evenodd" d="M4 24.6197L138.292 4L144.175 41.5513L9.93963 62.171L4 24.6197ZM7.33751 27.1343L12.3155 58.7623L140.894 39.0367L135.916 7.40867L7.33751 27.1343Z" fill="#F4F7F8"/>
<path fill-rule="evenodd" clip-rule="evenodd" d="M19.2897 38.7247C19.2331 38.2776 19.12 38.0541 18.9503 37.9424C18.7806 37.8306 18.4977 37.8306 18.1018 37.8865L17.5361 37.9982L17.3098 36.5454L22.6838 35.7072L28.2274 42.8039L27.3789 37.4953C27.3223 37.0483 27.2092 36.8247 27.0395 36.713C26.8698 36.6012 26.587 36.6012 26.1344 36.6571L25.5122 36.7689L25.2859 35.316L30.4336 34.5337L30.6599 35.9866L30.1507 36.0424C29.6982 36.0983 29.4154 36.2101 29.3022 36.3218C29.1891 36.4336 29.1891 36.713 29.2457 37.16L30.6033 45.8214L27.1526 46.3802L21.213 38.8364L22.1747 44.7038C22.2312 45.1509 22.3444 45.3744 22.5141 45.4861C22.6838 45.5979 22.9666 45.5979 23.4192 45.542L24.0414 45.4303L24.2677 46.8831L19.0634 47.6655L18.8371 46.2126L19.4028 46.1008C19.8554 46.0449 20.1382 45.9332 20.2513 45.8214C20.3645 45.7097 20.3645 45.4303 20.3079 44.9832L19.2897 38.7247ZM122.187 23.4136C122.13 23.4136 122.074 23.4695 122.074 23.4695C122.017 23.4695 121.961 23.4695 121.847 23.5253C121.508 23.5812 121.225 23.5253 120.999 23.3577C120.773 23.1901 120.603 22.9107 120.546 22.5754C120.49 22.2401 120.546 21.9048 120.773 21.6254C120.999 21.346 121.282 21.1784 121.621 21.1225C122.074 21.0666 122.47 21.1225 122.752 21.4019C123.092 21.6254 123.262 22.0166 123.318 22.5195C123.431 23.1901 123.262 23.8047 122.866 24.3635C122.526 24.8106 122.074 25.1459 121.508 25.4253L122.187 29.728C122.243 30.0633 122.3 30.2309 122.47 30.3427C122.583 30.3986 122.809 30.4544 123.148 30.3986L123.601 30.3427L123.827 31.6838L119.924 32.2985L119.754 31.0691C119.472 31.572 119.132 32.0191 118.68 32.3544C118.227 32.6896 117.718 32.8573 117.152 32.969C116.191 33.1367 115.455 33.0249 115.003 32.6338C114.55 32.2426 114.211 31.572 114.041 30.5103L113.588 27.4928C113.532 27.1575 113.475 26.9899 113.362 26.8781C113.249 26.8222 113.023 26.7664 112.683 26.8222L112.287 26.8781L112.061 25.537L116.021 24.9223L116.813 30.0633C116.869 30.5103 117.039 30.8456 117.265 31.0691C117.492 31.2926 117.775 31.3485 118.17 31.2926C118.623 31.2368 118.962 31.0132 119.132 30.678C119.302 30.3427 119.358 29.8398 119.245 29.2251L118.849 26.7105C118.793 26.3752 118.736 26.2076 118.623 26.0958C118.51 25.9841 118.284 25.9841 117.944 26.0399H117.775L117.548 24.6988L121.282 24.14L121.395 24.6988C121.565 24.5871 121.678 24.5312 121.791 24.3635C122.017 23.9724 122.187 23.693 122.187 23.4136ZM36.5429 41.9657C36.8823 41.9098 37.1086 41.7422 37.2217 41.351C37.3349 41.0157 37.3349 40.4569 37.1652 39.6746C37.052 38.9482 36.8823 38.4453 36.7126 38.1659C36.5429 37.8865 36.2601 37.7747 35.9207 37.8306C35.5813 37.8865 35.355 38.11 35.2419 38.4453C35.1287 38.7806 35.1287 39.3393 35.2984 40.1217C35.4116 40.7922 35.5813 41.2951 35.751 41.5745C35.9772 41.8539 36.2601 42.0216 36.5429 41.9657ZM35.2984 46.9949C35.355 47.2184 35.5813 47.3302 35.9772 47.3861C36.4298 47.4419 37.052 47.3861 37.844 47.2743C38.7491 47.1067 39.4279 46.9949 39.8239 46.8273C40.2198 46.6596 40.3895 46.4361 40.333 46.2126C40.2764 45.9891 40.1067 45.8214 39.7673 45.8214C39.4279 45.7655 38.7491 45.8214 37.844 45.9891C36.8258 46.1567 36.0904 46.3243 35.751 46.4361C35.4116 46.492 35.2419 46.7155 35.2984 46.9949ZM33.9974 42.6921C33.6014 42.4127 33.262 42.0775 33.0357 41.6863C32.8094 41.351 32.6397 40.9599 32.5832 40.5128C32.4135 39.507 32.6397 38.6688 33.2054 37.9982C33.7711 37.3277 34.6762 36.9365 35.8641 36.713C36.3732 36.6571 36.8258 36.6571 37.2217 36.713C37.6743 36.7689 38.0703 36.8806 38.4662 37.1042C38.7491 36.8248 38.9753 36.5454 39.2582 36.3777C39.541 36.2101 39.8239 36.0983 40.1633 36.0424C40.729 35.9307 41.1815 36.0424 41.5775 36.3218C41.9734 36.6012 42.1997 36.9365 42.3129 37.4394C42.3694 37.7747 42.3129 38.11 42.1432 38.3335C41.9734 38.557 41.6906 38.7247 41.3512 38.7805C41.0684 38.8364 40.7855 38.7805 40.5592 38.6129C40.333 38.4453 40.1633 38.2776 40.1633 37.9982C40.1633 37.8306 40.1633 37.6629 40.2198 37.5512C40.2764 37.3835 40.333 37.2159 40.5027 37.1042C40.4461 37.0483 40.3895 36.9924 40.2764 36.9924C40.2198 36.9924 40.1067 36.9924 40.0501 36.9924C39.937 36.9924 39.7673 37.1042 39.6542 37.2159C39.4845 37.3277 39.3713 37.4953 39.2016 37.7188C39.4279 37.9423 39.5976 38.1659 39.7673 38.4453C39.8804 38.7247 39.9936 39.0599 40.0501 39.3952C40.2198 40.3452 39.9936 41.1834 39.3713 41.8539C38.7491 42.5245 37.9006 42.9715 36.7126 43.1392C36.4298 43.1951 36.1469 43.1951 35.8641 43.1951C35.5813 43.1951 35.2984 43.1392 34.959 43.0833C34.8459 43.1392 34.7893 43.2509 34.7327 43.3068C34.6762 43.3627 34.6762 43.4745 34.6762 43.5862C34.7327 43.8097 34.9025 43.9215 35.1853 43.9774C35.4681 44.0333 36.1469 43.9774 37.2217 43.8097C37.448 43.7539 37.7309 43.698 38.1268 43.6421C38.5228 43.5862 38.8056 43.5303 38.9188 43.5303C39.937 43.3627 40.6724 43.4186 41.2381 43.7539C41.8037 44.0333 42.1431 44.5362 42.2563 45.2626C42.426 46.1567 42.1431 46.8831 41.4078 47.3861C40.7289 47.889 39.4845 48.2801 37.7308 48.5595C36.3166 48.7831 35.2419 48.783 34.5065 48.6154C33.7711 48.4478 33.3751 48.1125 33.262 47.5537C33.2054 47.2184 33.262 46.939 33.4883 46.7155C33.658 46.4361 33.9974 46.2685 34.3933 46.0449C33.9408 45.8214 33.6014 45.5979 33.3751 45.3744C33.1488 45.1509 32.9791 44.8156 32.9226 44.4244C32.866 44.0891 32.9226 43.8097 33.0923 43.5303C33.262 43.1951 33.6014 42.9157 33.9974 42.6921ZM51.59 34.6454L47.8565 35.2042L48.0828 36.5454L48.2525 36.4895C48.5919 36.4336 48.8182 36.4336 48.9313 36.5454C49.0444 36.6012 49.1576 36.8248 49.1576 37.16L49.5536 39.6746C49.6667 40.2893 49.6101 40.7922 49.4404 41.1275C49.2707 41.4628 48.9313 41.6863 48.4788 41.7422C48.0828 41.7981 47.7999 41.7422 47.5737 41.5187C47.3474 41.2951 47.1777 40.9599 47.1211 40.5128L46.3292 35.3719L42.3694 35.9866L42.5957 37.3277L42.9917 37.2718C43.3311 37.2159 43.5573 37.2159 43.6705 37.3277C43.7836 37.3836 43.8968 37.6071 43.8968 37.9424L44.3493 40.9599C44.519 42.0216 44.8584 42.748 45.311 43.0833C45.7635 43.4745 46.4989 43.5862 47.4605 43.4186C48.0262 43.3068 48.5353 43.1392 48.9879 42.8039C49.4404 42.4686 49.7798 42.0775 50.0627 41.5187L50.2324 42.748L54.1356 42.1333L53.9093 40.7922L53.4567 40.8481C53.1173 40.904 52.8911 40.904 52.7779 40.7922C52.6648 40.7363 52.5517 40.5128 52.4951 40.1775L51.59 34.6454ZM58.7741 42.1333L55.2104 36.4895C54.9841 36.1542 54.8144 35.8748 54.6447 35.8189C54.475 35.7072 54.3053 35.7072 54.1356 35.7072L53.683 35.763L53.4567 34.366L58.5479 33.5837L58.7741 34.9807L58.3782 35.0366C58.1519 35.0925 57.9822 35.0925 57.869 35.2042C57.7559 35.2601 57.6993 35.316 57.7559 35.4278C57.7559 35.5395 57.869 35.7072 58.0387 35.9866V36.0424L59.6792 38.6129L60.358 35.763L60.4146 35.6513C60.4712 35.316 60.5277 35.0925 60.5277 34.9807C60.5277 34.869 60.4712 34.8131 60.358 34.8131C60.2449 34.8131 60.0752 34.8131 59.9055 34.8131L59.5095 34.869L59.2832 33.472L63.0167 32.9132L63.243 34.3102C62.847 34.366 62.5642 34.4778 62.451 34.6454C62.2813 34.7572 62.1682 35.0925 62.0551 35.5395L60.4712 42.0216C60.1883 43.1951 59.8489 44.0333 59.3964 44.5362C59.0004 45.0391 58.3782 45.3744 57.6428 45.4861C56.964 45.5979 56.3417 45.4861 55.8326 45.1509C55.3235 44.8156 55.0406 44.3127 54.9275 43.698C54.8709 43.2509 54.9275 42.8039 55.1538 42.5245C55.3801 42.1892 55.7195 42.0216 56.172 41.9098C56.568 41.8539 56.9074 41.9098 57.1902 42.0775C57.4731 42.2451 57.6428 42.5245 57.6993 42.8598C57.7559 43.1951 57.6993 43.4745 57.5296 43.7539C57.3599 43.9774 57.0771 44.145 56.7377 44.2009C56.6811 44.2009 56.6245 44.2009 56.568 44.2009C56.5114 44.2009 56.5114 44.2009 56.4548 44.2009C56.6245 44.3127 56.7377 44.4244 56.8508 44.4244C56.964 44.4803 57.1337 44.4803 57.2468 44.4803C57.6428 44.4244 57.9822 44.2009 58.265 43.8097C58.4913 43.3068 58.661 42.8039 58.7741 42.1333ZM67.0896 35.2601L69.6917 34.869V34.8131C69.5786 34.2543 69.4089 33.8631 69.1826 33.6396C68.8998 33.4161 68.5604 33.3043 68.1644 33.3602C67.7684 33.4161 67.4856 33.6396 67.3159 33.919C67.0331 34.2543 66.9765 34.7013 67.0896 35.2601ZM70.71 36.9924L72.6898 36.6571C72.5767 37.6629 72.2373 38.4453 71.6716 39.0599C71.0494 39.6746 70.2574 40.0099 69.1826 40.1775C67.8816 40.3452 66.8068 40.1775 65.9017 39.507C64.9966 38.8923 64.4875 37.9423 64.2612 36.713C64.035 35.4278 64.2612 34.3102 64.8835 33.472C65.5057 32.5779 66.4674 32.075 67.7684 31.8514C69.1261 31.6279 70.2009 31.8514 71.0494 32.4661C71.8979 33.0808 72.4636 34.0866 72.6333 35.3719L72.6898 35.6513L67.2028 36.4895V36.6012C67.3159 37.3277 67.5422 37.8306 67.8816 38.1659C68.221 38.5012 68.617 38.6129 69.1826 38.5011C69.6917 38.4453 70.0312 38.2218 70.314 37.9424C70.6534 37.8306 70.7665 37.4394 70.71 36.9924ZM64.8835 31.5162L66.3542 28.0516L67.9381 27.8281L70.4271 30.678L69.5786 30.7897L67.429 29.6162L65.732 31.4044L64.8835 31.5162ZM74.0475 39.1717L73.8212 37.8306L74.2738 37.7747C74.6132 37.7188 74.7829 37.6629 74.896 37.5512C75.0091 37.4394 75.0091 37.2159 74.9526 36.8806L74.3869 33.3043C74.3303 32.969 74.2738 32.8014 74.1606 32.6896C74.0475 32.6338 73.8212 32.5779 73.4818 32.6338L73.0293 32.6896L72.803 31.3485L76.7062 30.7338L76.8759 31.9632C77.1587 31.4603 77.4981 31.0132 77.9507 30.7338C78.4032 30.3986 78.9123 30.2309 79.478 30.1192C80.4397 29.9515 81.175 30.0633 81.6276 30.4544C82.0801 30.8456 82.4195 31.5162 82.5892 32.6338L83.0418 35.6513C83.0984 35.9866 83.1549 36.1542 83.2681 36.266C83.3812 36.3218 83.6075 36.3777 83.9469 36.3218L84.3428 36.266L84.5691 37.6071L79.6477 38.3894L79.4214 37.0483H79.5911C79.9305 36.9924 80.1003 36.9365 80.2134 36.8248C80.3265 36.713 80.3265 36.4895 80.27 36.1542L79.8174 33.1367C79.7608 32.6896 79.5911 32.3544 79.3649 32.1308C79.1386 31.9073 78.7992 31.8514 78.4598 31.9073C78.0072 31.9632 77.7244 32.1867 77.5547 32.522C77.385 32.8573 77.3284 33.3043 77.385 33.8631L77.781 36.4895C77.8375 36.8248 77.8941 36.9924 78.0072 37.1042C78.1204 37.16 78.3466 37.2159 78.6861 37.16H78.8558L79.082 38.5011L74.0475 39.1717ZM99.7859 23.8606L100.465 28.1634L98.9374 28.3869C98.7677 27.4369 98.4848 26.7664 98.0323 26.3752C97.5798 25.9841 97.0141 25.8164 96.2221 25.9282H96.0524L97.1838 32.969C97.2403 33.3602 97.2969 33.5837 97.3535 33.6955C97.41 33.8072 97.5232 33.8631 97.5798 33.919C97.6929 33.9749 97.8626 33.9749 98.0889 33.9749C98.3151 33.9749 98.6545 33.919 99.1637 33.8631L99.3899 35.2601L92.7149 36.3218L92.4886 34.9248C92.828 34.869 93.1674 34.8131 93.3937 34.7572C93.62 34.7013 93.8463 34.6454 94.016 34.5337C94.1291 34.4778 94.1857 34.4219 94.1857 34.2543C94.1857 34.1425 94.1857 33.8631 94.1291 33.5278L94.0725 33.3043L92.9977 26.487H92.828C92.0361 26.5987 91.527 26.934 91.2441 27.4369C90.9613 27.9398 90.8482 28.6663 91.0179 29.6162L89.4905 29.8398L88.8117 25.537L99.7859 23.8606ZM102.218 34.869L107.196 34.0866L106.97 32.7455H106.8C106.461 32.8014 106.235 32.8014 106.122 32.6896C106.008 32.6338 105.895 32.4102 105.839 32.075L105.443 29.6721C105.33 28.9457 105.386 28.4428 105.499 28.0516C105.669 27.7163 106.008 27.4928 106.461 27.381C106.857 27.3252 107.14 27.381 107.366 27.6046C107.592 27.8281 107.762 28.1634 107.819 28.6104L108.271 31.6279C108.328 31.9632 108.328 32.1867 108.215 32.2985C108.101 32.4102 107.932 32.522 107.592 32.522L107.423 32.5779L107.649 33.919L112.627 33.1367L112.401 31.7956L112.005 31.8514C111.665 31.9073 111.439 31.9073 111.326 31.7956C111.213 31.7397 111.099 31.5162 111.099 31.1809L110.647 28.1634C110.477 27.1017 110.138 26.3752 109.685 25.9841C109.233 25.5929 108.497 25.4811 107.536 25.6488C107.027 25.7047 106.517 25.9282 106.065 26.2076C105.612 26.487 105.273 26.8781 104.934 27.4369L104.255 23.0224L100.352 23.6371L100.578 24.9782L100.974 24.9223C101.313 24.8665 101.54 24.8665 101.653 24.9782C101.766 25.09 101.879 25.2576 101.879 25.5929L102.954 32.4661C103.01 32.8014 103.01 33.0249 102.897 33.1367C102.784 33.2484 102.614 33.3602 102.275 33.3602L101.879 33.4161L102.218 34.869ZM129.937 27.7722C129.993 28.2751 129.937 28.6663 129.71 28.9457C129.541 29.2251 129.201 29.3927 128.805 29.4486C128.296 29.5045 127.844 29.3368 127.561 28.9457C127.221 28.5545 126.995 27.884 126.825 26.934C126.656 26.0399 126.712 25.3135 126.939 24.8106C127.165 24.3077 127.561 24.0283 128.183 23.9165C128.409 23.8606 128.636 23.8606 128.805 23.9165C128.975 23.9724 129.201 24.0283 129.371 24.1959H129.314C128.918 24.2518 128.636 24.4194 128.466 24.6429C128.296 24.8665 128.183 25.2017 128.296 25.5929C128.353 25.9841 128.522 26.3193 128.805 26.487C129.088 26.7105 129.428 26.7664 129.88 26.7105C130.389 26.6546 130.785 26.4311 131.068 26.0399C131.351 25.7047 131.407 25.2576 131.351 24.7547C131.238 23.9724 130.785 23.3577 130.106 22.9665C129.371 22.5754 128.522 22.4636 127.448 22.6313C126.147 22.8548 125.185 23.3577 124.563 24.2518C123.94 25.1459 123.714 26.2076 123.94 27.4928C124.167 28.8339 124.676 29.7839 125.524 30.3986C126.373 31.0132 127.448 31.2368 128.749 31.0132C129.823 30.8456 130.615 30.4544 131.125 29.8398C131.634 29.2251 131.86 28.4428 131.747 27.4369L129.937 27.7722ZM118.001 33.0249C117.379 33.1367 116.926 33.6955 117.039 34.366C117.152 34.9807 117.718 35.4278 118.397 35.316C119.019 35.2042 119.472 34.6454 119.358 33.9749C119.245 33.3602 118.623 32.9132 118.001 33.0249Z" fill="#F4F7F8"/>
</svg>
