<svg width="176" height="79" viewBox="0 0 176 79" fill="none" xmlns="http://www.w3.org/2000/svg">
<g clip-path="url(#clip0_99_74)">
<path fill-rule="evenodd" clip-rule="evenodd" d="M167.648 0L0 25.6964L8.41914 79L176.067 53.3036L167.648 0ZM1.53683 26.9483L166.512 1.64721L174.463 52.0517L9.48823 77.3528L1.53683 26.9483Z" fill="#EE1D23"/>
<path fill-rule="evenodd" clip-rule="evenodd" d="M5.21179 29.518L163.839 5.2052L170.788 49.4821L12.2277 73.7949L5.21179 29.518ZM9.15408 32.4829L15.0341 69.7757L166.913 46.5171L161.033 9.22438L9.15408 32.4829Z" fill="#EE1D23"/>
<path fill-rule="evenodd" clip-rule="evenodd" d="M22.7851 45.6606C22.7182 45.1335 22.5846 44.8699 22.3841 44.7381C22.1837 44.6064 21.8496 44.6064 21.3819 44.6722L20.7137 44.804L20.4464 43.0909L26.7942 42.1026L33.3424 50.4704L32.3401 44.211C32.2733 43.6839 32.1397 43.4204 31.9392 43.2886C31.7387 43.1568 31.4047 43.1568 30.8701 43.2227L30.1351 43.3545L29.8678 41.6414L35.9483 40.719L36.2156 42.432L35.6142 42.4979C35.0797 42.5638 34.7456 42.6956 34.6119 42.8274C34.4783 42.9592 34.4783 43.2886 34.5451 43.8157L36.1488 54.0284L32.0728 54.6873L25.0569 45.7923L26.1928 52.7106C26.2596 53.2377 26.3933 53.5013 26.5937 53.633C26.7942 53.7648 27.1283 53.7648 27.6628 53.6989L28.3978 53.5672L28.6651 55.2803L22.5178 56.2027L22.2505 54.4896L22.9187 54.3578C23.4532 54.2919 23.7873 54.1602 23.921 54.0284C24.0546 53.8966 24.0546 53.5672 23.9878 53.0401L22.7851 45.6606ZM144.328 27.6072C144.261 27.6072 144.194 27.6731 144.194 27.6731C144.128 27.6731 144.061 27.6731 143.927 27.739C143.526 27.8049 143.192 27.739 142.925 27.5413C142.658 27.3436 142.457 27.0142 142.39 26.6189C142.323 26.2235 142.39 25.8282 142.658 25.4988C142.925 25.1693 143.259 24.9717 143.66 24.9058C144.194 24.8399 144.662 24.9058 144.996 25.2352C145.397 25.4988 145.598 25.96 145.664 26.553C145.798 27.3436 145.598 28.0684 145.13 28.7273C144.729 29.2544 144.194 29.6497 143.526 29.9792L144.328 35.0526C144.395 35.4479 144.462 35.6456 144.662 35.7773C144.796 35.8432 145.063 35.9091 145.464 35.8432L145.998 35.7773L146.266 37.3587L141.655 38.0834L141.455 36.6339C141.121 37.2269 140.72 37.754 140.185 38.1493C139.651 38.5446 139.049 38.7423 138.381 38.8741C137.245 39.0717 136.377 38.94 135.842 38.4788C135.307 38.0175 134.907 37.2269 134.706 35.975L134.172 32.417C134.105 32.0217 134.038 31.824 133.904 31.6923C133.771 31.6264 133.503 31.5605 133.102 31.6264L132.635 31.6923L132.367 30.1109L137.045 29.3862L137.98 35.4479C138.047 35.975 138.247 36.3703 138.515 36.6339C138.782 36.8974 139.116 36.9633 139.584 36.8974C140.118 36.8315 140.519 36.568 140.72 36.1727C140.92 35.7773 140.987 35.1843 140.853 34.4596L140.386 31.4946C140.319 31.0993 140.252 30.9016 140.118 30.7698C139.985 30.6381 139.717 30.638 139.317 30.7039H139.116L138.849 29.1226L143.259 28.4637L143.393 29.1226C143.593 28.9908 143.727 28.925 143.86 28.7273C144.128 28.2661 144.328 27.9366 144.328 27.6072ZM43.1647 49.4821C43.5656 49.4162 43.8329 49.2185 43.9665 48.7573C44.1002 48.362 44.1002 47.7031 43.8997 46.7807C43.7661 45.9241 43.5656 45.3311 43.3652 45.0017C43.1647 44.6722 42.8306 44.5405 42.4297 44.6064C42.0288 44.6722 41.7615 44.9358 41.6279 45.3311C41.4942 45.7265 41.4943 46.3853 41.6947 47.3078C41.8283 48.0984 42.0288 48.6914 42.2293 49.0209C42.4965 49.3503 42.8306 49.548 43.1647 49.4821ZM41.6947 55.412C41.7615 55.6756 42.0288 55.8074 42.4965 55.8732C43.0311 55.9391 43.7661 55.8732 44.7015 55.7415C45.7706 55.5438 46.5725 55.412 47.0402 55.2144C47.5079 55.0167 47.7084 54.7531 47.6416 54.4896C47.5747 54.226 47.3743 54.0284 46.9734 54.0284C46.5725 53.9625 45.7706 54.0284 44.7015 54.226C43.4988 54.4237 42.6302 54.6214 42.2293 54.7531C41.8283 54.819 41.6279 55.0826 41.6947 55.412ZM40.1579 50.3386C39.6901 50.0092 39.2892 49.6139 39.022 49.1526C38.7547 48.7573 38.5542 48.2961 38.4874 47.769C38.287 46.583 38.5542 45.5947 39.2224 44.804C39.8906 44.0134 40.9597 43.5521 42.3629 43.2886C42.9643 43.2227 43.4988 43.2227 43.9665 43.2886C44.5011 43.3545 44.9688 43.4863 45.4365 43.7498C45.7706 43.4204 46.0379 43.0909 46.372 42.8933C46.7061 42.6956 47.0402 42.5638 47.4411 42.4979C48.1093 42.3662 48.6438 42.4979 49.1116 42.8274C49.5793 43.1568 49.8466 43.5521 49.9802 44.1451C50.047 44.5405 49.9802 44.9358 49.7797 45.1994C49.5793 45.4629 49.2452 45.6606 48.8443 45.7265C48.5102 45.7923 48.1761 45.7265 47.9088 45.5288C47.6416 45.3311 47.4411 45.1335 47.4411 44.804C47.4411 44.6064 47.4411 44.4087 47.5079 44.2769C47.5747 44.0792 47.6416 43.8816 47.842 43.7498C47.7752 43.6839 47.7084 43.618 47.5747 43.618C47.5079 43.618 47.3743 43.618 47.3075 43.618C47.1738 43.618 46.9734 43.7498 46.8397 43.8816C46.6393 44.0134 46.5056 44.211 46.3052 44.4746C46.5725 44.7381 46.7729 45.0017 46.9734 45.3311C47.107 45.6606 47.2406 46.0559 47.3075 46.4512C47.5079 47.5713 47.2406 48.5597 46.5056 49.3503C45.7706 50.141 44.7684 50.6681 43.3652 50.8657C43.0311 50.9316 42.697 50.9316 42.3629 50.9316C42.0288 50.9316 41.6947 50.8657 41.2938 50.7999C41.1602 50.8657 41.0933 50.9975 41.0265 51.0634C40.9597 51.1293 40.9597 51.2611 40.9597 51.3928C41.0265 51.6564 41.227 51.7882 41.5611 51.8541C41.8952 51.9199 42.697 51.8541 43.9665 51.6564C44.2338 51.5905 44.5679 51.5246 45.0356 51.4587C45.5034 51.3928 45.8375 51.327 45.9711 51.327C47.1738 51.1293 48.0425 51.1952 48.7107 51.5905C49.3788 51.92 49.7797 52.5129 49.9134 53.3695C50.1138 54.4237 49.7797 55.2803 48.9111 55.8732C48.1093 56.4662 46.6393 56.9275 44.5679 57.2569C42.8974 57.5205 41.6279 57.5205 40.7592 57.3228C39.8906 57.1251 39.4229 56.7298 39.2892 56.0709C39.2224 55.6756 39.2892 55.3461 39.5565 55.0826C39.757 54.7531 40.1579 54.5555 40.6256 54.2919C40.0911 54.0284 39.6901 53.7648 39.4229 53.5013C39.1556 53.2377 38.9551 52.8424 38.8883 52.3812C38.8215 51.9858 38.8883 51.6564 39.0888 51.327C39.2892 50.9316 39.6901 50.6022 40.1579 50.3386ZM60.9384 40.8507L56.5284 41.5096L56.7957 43.0909L56.9962 43.025C57.3971 42.9592 57.6643 42.9592 57.798 43.0909C57.9316 43.1568 58.0653 43.4204 58.0653 43.8157L58.533 46.7807C58.6666 47.5054 58.5998 48.0984 58.3993 48.4938C58.1989 48.8891 57.798 49.1526 57.2634 49.2185C56.7957 49.2844 56.4616 49.2185 56.1943 48.955C55.9271 48.6914 55.7266 48.2961 55.6598 47.769L54.7243 41.7073L50.047 42.432L50.3143 44.0134L50.782 43.9475C51.1829 43.8816 51.4502 43.8816 51.5838 44.0134C51.7175 44.0793 51.8511 44.3428 51.8511 44.7381L52.3857 48.2961C52.5861 49.548 52.987 50.4045 53.5216 50.7999C54.0561 51.2611 54.9248 51.3928 56.0607 51.1952C56.7289 51.0634 57.3302 50.8657 57.8648 50.4704C58.3993 50.0751 58.8003 49.6139 59.1343 48.955L59.3348 50.4045L63.9453 49.6798L63.678 48.0984L63.1435 48.1643C62.7425 48.2302 62.4753 48.2302 62.3416 48.0984C62.208 48.0325 62.0744 47.769 62.0075 47.3737L60.9384 40.8507ZM69.4244 49.6798L65.2148 43.025C64.9476 42.6297 64.7471 42.3003 64.5466 42.2344C64.3462 42.1026 64.1457 42.1026 63.9453 42.1026L63.4107 42.1685L63.1435 40.5213L69.1571 39.5988L69.4244 41.2461L68.9567 41.3119C68.6894 41.3778 68.4889 41.3778 68.3553 41.5096C68.2217 41.5755 68.1548 41.6414 68.2217 41.7732C68.2217 41.9049 68.3553 42.1026 68.5558 42.432V42.4979L70.4935 45.5288L71.2953 42.1685L71.3621 42.0367C71.429 41.6414 71.4958 41.3778 71.4958 41.2461C71.4958 41.1143 71.429 41.0484 71.2953 41.0484C71.1617 41.0484 70.9612 41.0484 70.7608 41.0484L70.293 41.1143L70.0258 39.4671L74.4358 38.8082L74.7031 40.4554C74.2353 40.5213 73.9012 40.6531 73.7676 40.8507C73.5672 40.9825 73.4335 41.3778 73.2999 41.9049L71.429 49.548C71.0949 50.9316 70.694 51.9199 70.1594 52.5129C69.6917 53.1059 68.9567 53.5013 68.088 53.633C67.2862 53.7648 66.5512 53.633 65.9498 53.2377C65.3485 52.8424 65.0144 52.2494 64.8807 51.5246C64.8139 50.9975 64.8807 50.4704 65.148 50.141C65.4153 49.7456 65.8162 49.548 66.3507 49.4162C66.8185 49.3503 67.2194 49.4162 67.5535 49.6139C67.8876 49.8115 68.088 50.141 68.1548 50.5363C68.2217 50.9316 68.1548 51.2611 67.9544 51.5905C67.7539 51.8541 67.4198 52.0517 67.0189 52.1176C66.9521 52.1176 66.8853 52.1176 66.8185 52.1176C66.7517 52.1176 66.7517 52.1176 66.6848 52.1176C66.8853 52.2494 67.0189 52.3812 67.1526 52.3812C67.2862 52.4471 67.4867 52.4471 67.6203 52.4471C68.088 52.3812 68.4889 52.1176 68.823 51.6564C69.0903 51.0634 69.2908 50.4704 69.4244 49.6798ZM79.2467 41.5755L82.3204 41.1143V41.0484C82.1867 40.3895 81.9863 39.9283 81.719 39.6647C81.3849 39.4012 80.984 39.2694 80.5163 39.3353C80.0485 39.4012 79.7145 39.6647 79.514 39.9942C79.1799 40.3895 79.1131 40.9166 79.2467 41.5755ZM83.5231 43.618L85.8618 43.2227C85.7281 44.4087 85.3272 45.3311 84.659 46.0559C83.924 46.7807 82.9886 47.176 81.719 47.3737C80.1822 47.5713 78.9126 47.3737 77.8435 46.583C76.7744 45.8582 76.1731 44.7381 75.9058 43.2886C75.6385 41.7732 75.9058 40.4554 76.6408 39.4671C77.3758 38.4129 78.5117 37.8199 80.0485 37.5563C81.6522 37.2928 82.9217 37.5563 83.924 38.2811C84.9263 39.0059 85.5945 40.1918 85.7949 41.7073L85.8618 42.0367L79.3804 43.025V43.1568C79.514 44.0134 79.7813 44.6064 80.1822 45.0017C80.5831 45.397 81.0508 45.5288 81.719 45.397C82.3204 45.3311 82.7213 45.0676 83.0554 44.7381C83.4563 44.6064 83.5899 44.1451 83.5231 43.618ZM76.6408 37.161L78.3781 33.0759L80.249 32.8124L83.189 36.1727L82.1867 36.3044L79.6476 34.9208L77.6431 37.0292L76.6408 37.161ZM87.4654 46.1877L87.1981 44.6064L87.7327 44.5405C88.1336 44.4746 88.334 44.4087 88.4677 44.2769C88.6013 44.1451 88.6013 43.8816 88.5345 43.4863L87.8663 39.2694C87.7995 38.8741 87.7327 38.6764 87.599 38.5446C87.4654 38.4788 87.1981 38.4129 86.7972 38.4788L86.2627 38.5446L85.9954 36.9633L90.6059 36.2386L90.8063 37.6881C91.1404 37.0951 91.5413 36.568 92.0759 36.2386C92.6104 35.8432 93.2118 35.6456 93.88 35.5138C95.0159 35.3161 95.8845 35.4479 96.4191 35.9091C96.9536 36.3703 97.3545 37.161 97.555 38.4788L98.0896 42.0367C98.1564 42.432 98.2232 42.6297 98.3568 42.7615C98.4905 42.8274 98.7577 42.8933 99.1586 42.8274L99.6264 42.7615L99.8937 44.3428L94.0804 45.2652L93.8132 43.6839H94.0136C94.4145 43.618 94.615 43.5521 94.7486 43.4204C94.8823 43.2886 94.8823 43.025 94.8154 42.6297L94.2809 39.0717C94.2141 38.5446 94.0136 38.1493 93.7463 37.8858C93.4791 37.6222 93.0782 37.5563 92.6772 37.6222C92.1427 37.6881 91.8086 37.9516 91.6082 38.347C91.4077 38.7423 91.3409 39.2694 91.4077 39.9283L91.8754 43.025C91.9422 43.4204 92.0091 43.618 92.1427 43.7498C92.2763 43.8157 92.5436 43.8816 92.9445 43.8157H93.145L93.4123 45.397L87.4654 46.1877ZM117.868 28.1343L118.67 33.2077L116.866 33.4712C116.665 32.3511 116.331 31.5605 115.796 31.0993C115.262 30.6381 114.594 30.4404 113.658 30.5722H113.458L114.794 38.8741C114.861 39.3353 114.928 39.5989 114.995 39.7306C115.061 39.8624 115.195 39.9283 115.262 39.9942C115.396 40.0601 115.596 40.0601 115.863 40.0601C116.131 40.0601 116.531 39.9942 117.133 39.9283L117.4 41.5755L109.516 42.8274L109.248 41.1802C109.649 41.1143 110.05 41.0484 110.317 40.9825C110.585 40.9166 110.852 40.8507 111.052 40.719C111.186 40.6531 111.253 40.5872 111.253 40.3895C111.253 40.2577 111.253 39.9283 111.186 39.533L111.119 39.2694L109.85 31.231H109.649C108.714 31.3628 108.112 31.7581 107.778 32.3511C107.444 32.9441 107.311 33.8007 107.511 34.9208L105.707 35.1843L104.905 30.1109L117.868 28.1343ZM120.741 41.1143L126.621 40.1918L126.354 38.6105H126.153C125.752 38.6764 125.485 38.6764 125.352 38.5446C125.218 38.4788 125.084 38.2152 125.017 37.8199L124.55 34.9867C124.416 34.1301 124.483 33.5371 124.617 33.0759C124.817 32.6806 125.218 32.417 125.752 32.2853C126.22 32.2194 126.554 32.2853 126.822 32.5488C127.089 32.8124 127.289 33.2077 127.356 33.7348L127.891 37.2928C127.957 37.6881 127.957 37.9516 127.824 38.0834C127.69 38.2152 127.49 38.347 127.089 38.347L126.888 38.4129L127.156 39.9942L133.036 39.0717L132.768 37.4904L132.301 37.5563C131.9 37.6222 131.632 37.6222 131.499 37.4904C131.365 37.4245 131.232 37.161 131.232 36.7657L130.697 33.2077C130.497 31.9558 130.096 31.0993 129.561 30.6381C129.027 30.1768 128.158 30.0451 127.022 30.2427C126.421 30.3086 125.819 30.5722 125.285 30.9016C124.75 31.231 124.349 31.6923 123.948 32.3511L123.146 27.146L118.536 27.8707L118.803 29.4521L119.271 29.3862C119.672 29.3203 119.939 29.3203 120.073 29.4521C120.206 29.5838 120.34 29.7815 120.34 30.1768L121.61 38.2811C121.676 38.6764 121.676 38.94 121.543 39.0717C121.409 39.2035 121.209 39.3353 120.808 39.3353L120.34 39.4012L120.741 41.1143ZM153.482 32.7465C153.549 33.3395 153.482 33.8007 153.215 34.1301C153.014 34.4596 152.613 34.6572 152.146 34.7231C151.544 34.789 151.01 34.5913 150.676 34.1301C150.275 33.6689 150.008 32.8783 149.807 31.7582C149.607 30.7039 149.673 29.8474 149.941 29.2544C150.208 28.6614 150.676 28.332 151.411 28.2002C151.678 28.1343 151.945 28.1343 152.146 28.2002C152.346 28.2661 152.613 28.332 152.814 28.5296H152.747C152.279 28.5955 151.945 28.7932 151.745 29.0567C151.544 29.3203 151.411 29.7156 151.544 30.1768C151.611 30.638 151.812 31.0334 152.146 31.231C152.48 31.4946 152.881 31.5605 153.415 31.4946C154.017 31.4287 154.484 31.1652 154.818 30.7039C155.153 30.3086 155.219 29.7815 155.153 29.1885C155.019 28.2661 154.484 27.5413 153.683 27.0801C152.814 26.6189 151.812 26.4871 150.542 26.6848C149.005 26.9483 147.869 27.5413 147.134 28.5955C146.399 29.6497 146.132 30.9016 146.399 32.417C146.667 33.9984 147.268 35.1185 148.27 35.8432C149.273 36.568 150.542 36.8315 152.079 36.568C153.348 36.3703 154.284 35.9091 154.885 35.1843C155.487 34.4596 155.754 33.5371 155.62 32.3511L153.482 32.7465ZM139.383 38.94C138.648 39.0717 138.114 39.7306 138.247 40.5213C138.381 41.2461 139.049 41.7732 139.851 41.6414C140.586 41.5096 141.121 40.8507 140.987 40.0601C140.853 39.3353 140.118 38.8082 139.383 38.94Z" fill="#EE1D23"/>
</g>
<defs>
<clipPath id="clip0_99_74">
<rect width="176" height="79" fill="white"/>
</clipPath>
</defs>
</svg>
